M48
; DRILL file {KiCad 5.1.10-1.fc33} date Thu Oct  7 21:11:46 2021
; FORMAT={-:-/ absolute / metric / decimal}
; #@! TF.CreationDate,2021-10-07T21:11:46-05:00
; #@! TF.GenerationSoftware,Kicad,Pcbnew,5.1.10-1.fc33
FMAT,2
METRIC
T1C0.400
T2C0.800
T3C1.000
%
G90
G05
T1
X137.5Y-86.0
X137.5Y-92.25
X140.0Y-92.25
X144.25Y-93.25
X148.25Y-91.5
X151.5Y-91.5
X154.75Y-91.5
T2
X138.51Y-88.0
X138.51Y-95.62
X141.05Y-88.0
X141.05Y-95.62
X143.59Y-88.0
X143.59Y-95.62
X146.13Y-88.0
X146.13Y-95.62
X148.67Y-88.0
X148.67Y-95.62
X151.21Y-88.0
X151.21Y-95.62
X153.75Y-88.0
X153.75Y-95.62
T3
X128.255Y-85.305
X128.255Y-87.845
X128.255Y-90.385
X128.255Y-92.925
X128.255Y-95.465
X128.255Y-98.005
X130.795Y-85.305
X130.795Y-87.845
X130.795Y-90.385
X130.795Y-92.925
X130.795Y-95.465
X130.795Y-98.005
X158.75Y-88.0
X158.75Y-90.54
X158.75Y-93.08
X158.75Y-95.62
X161.29Y-88.0
X161.29Y-90.54
X161.29Y-93.08
X161.29Y-95.62
T0
M30
