G04 #@! TF.GenerationSoftware,KiCad,Pcbnew,5.1.10-1.fc33*
G04 #@! TF.CreationDate,2021-10-10T15:30:15-05:00*
G04 #@! TF.ProjectId,dac_pmod,6461635f-706d-46f6-942e-6b696361645f,A*
G04 #@! TF.SameCoordinates,Original*
G04 #@! TF.FileFunction,Legend,Bot*
G04 #@! TF.FilePolarity,Positive*
%FSLAX46Y46*%
G04 Gerber Fmt 4.6, Leading zero omitted, Abs format (unit mm)*
G04 Created by KiCad (PCBNEW 5.1.10-1.fc33) date 2021-10-10 15:30:15*
%MOMM*%
%LPD*%
G01*
G04 APERTURE LIST*
%ADD10C,0.010000*%
G04 APERTURE END LIST*
D10*
G36*
X151603910Y-94507652D02*
G01*
X151682454Y-94507222D01*
X151739298Y-94506058D01*
X151778105Y-94503793D01*
X151802538Y-94500060D01*
X151816262Y-94494494D01*
X151822940Y-94486727D01*
X151826236Y-94476395D01*
X151826556Y-94475057D01*
X151831562Y-94450921D01*
X151840829Y-94403299D01*
X151853392Y-94337259D01*
X151868287Y-94257872D01*
X151884551Y-94170204D01*
X151885119Y-94167125D01*
X151901410Y-94081211D01*
X151916652Y-94005304D01*
X151929861Y-93943955D01*
X151940054Y-93901718D01*
X151946248Y-93883145D01*
X151946543Y-93882816D01*
X151964788Y-93873747D01*
X152002405Y-93858633D01*
X152051271Y-93840738D01*
X152051543Y-93840642D01*
X152113093Y-93817507D01*
X152185657Y-93788035D01*
X152254057Y-93758403D01*
X152257294Y-93756938D01*
X152368702Y-93706374D01*
X152615399Y-93874840D01*
X152691077Y-93926197D01*
X152759631Y-93972111D01*
X152817088Y-94009970D01*
X152859476Y-94037163D01*
X152882825Y-94051079D01*
X152885042Y-94052111D01*
X152902010Y-94047516D01*
X152933701Y-94025345D01*
X152981352Y-93984553D01*
X153046198Y-93924095D01*
X153112397Y-93859773D01*
X153176214Y-93796388D01*
X153233329Y-93738549D01*
X153280305Y-93689825D01*
X153313703Y-93653790D01*
X153330085Y-93634016D01*
X153330694Y-93632998D01*
X153332505Y-93619428D01*
X153325683Y-93597267D01*
X153308540Y-93563522D01*
X153279393Y-93515200D01*
X153236555Y-93449308D01*
X153179448Y-93364483D01*
X153128766Y-93289823D01*
X153083461Y-93222860D01*
X153046150Y-93167484D01*
X153019452Y-93127580D01*
X153005985Y-93107038D01*
X153005137Y-93105644D01*
X153006781Y-93085962D01*
X153019245Y-93047707D01*
X153040048Y-92998111D01*
X153047462Y-92982272D01*
X153079814Y-92911710D01*
X153114328Y-92831647D01*
X153142365Y-92762371D01*
X153162568Y-92710955D01*
X153178615Y-92671881D01*
X153187888Y-92651459D01*
X153189041Y-92649886D01*
X153206096Y-92647279D01*
X153246298Y-92640137D01*
X153304302Y-92629477D01*
X153374763Y-92616315D01*
X153452335Y-92601667D01*
X153531672Y-92586551D01*
X153607431Y-92571982D01*
X153674264Y-92558978D01*
X153726828Y-92548555D01*
X153759776Y-92541730D01*
X153767857Y-92539801D01*
X153776205Y-92535038D01*
X153782506Y-92524282D01*
X153787045Y-92503902D01*
X153790104Y-92470266D01*
X153791967Y-92419745D01*
X153792918Y-92348708D01*
X153793240Y-92253524D01*
X153793257Y-92214508D01*
X153793257Y-91897201D01*
X153717057Y-91882161D01*
X153674663Y-91874005D01*
X153611400Y-91862101D01*
X153534962Y-91847884D01*
X153453043Y-91832790D01*
X153430400Y-91828645D01*
X153354806Y-91813947D01*
X153288953Y-91799495D01*
X153238366Y-91786625D01*
X153208574Y-91776678D01*
X153203612Y-91773713D01*
X153191426Y-91752717D01*
X153173953Y-91712033D01*
X153154577Y-91659678D01*
X153150734Y-91648400D01*
X153125339Y-91578477D01*
X153093817Y-91499582D01*
X153062969Y-91428734D01*
X153062817Y-91428405D01*
X153011447Y-91317267D01*
X153180399Y-91068747D01*
X153349352Y-90820228D01*
X153132429Y-90602942D01*
X153066819Y-90538274D01*
X153006979Y-90481267D01*
X152956267Y-90434967D01*
X152918046Y-90402416D01*
X152895675Y-90386657D01*
X152892466Y-90385657D01*
X152873626Y-90393531D01*
X152835180Y-90415422D01*
X152781330Y-90448733D01*
X152716276Y-90490869D01*
X152645940Y-90538057D01*
X152574555Y-90586190D01*
X152510908Y-90628072D01*
X152459041Y-90661129D01*
X152422995Y-90682782D01*
X152406867Y-90690457D01*
X152387189Y-90683963D01*
X152349875Y-90666850D01*
X152302621Y-90642674D01*
X152297612Y-90639987D01*
X152233977Y-90608073D01*
X152190341Y-90592421D01*
X152163202Y-90592255D01*
X152149057Y-90606796D01*
X152148975Y-90607000D01*
X152141905Y-90624221D01*
X152125042Y-90665101D01*
X152099695Y-90726475D01*
X152067171Y-90805181D01*
X152028778Y-90898053D01*
X151985822Y-91001928D01*
X151944222Y-91102498D01*
X151898504Y-91213484D01*
X151856526Y-91316297D01*
X151819548Y-91407785D01*
X151788827Y-91484799D01*
X151765622Y-91544185D01*
X151751190Y-91582791D01*
X151746743Y-91597200D01*
X151757896Y-91613728D01*
X151787069Y-91640070D01*
X151825971Y-91669113D01*
X151936757Y-91760961D01*
X152023351Y-91866241D01*
X152084716Y-91982734D01*
X152119815Y-92108224D01*
X152127608Y-92240493D01*
X152121943Y-92301543D01*
X152091078Y-92428205D01*
X152037920Y-92540059D01*
X151965767Y-92635999D01*
X151877917Y-92714924D01*
X151777665Y-92775730D01*
X151668310Y-92817313D01*
X151553147Y-92838572D01*
X151435475Y-92838401D01*
X151318590Y-92815699D01*
X151205789Y-92769362D01*
X151100369Y-92698287D01*
X151056368Y-92658089D01*
X150971979Y-92554871D01*
X150913222Y-92442075D01*
X150879704Y-92322990D01*
X150871035Y-92200905D01*
X150886823Y-92079107D01*
X150926678Y-91960884D01*
X150990207Y-91849525D01*
X151077021Y-91748316D01*
X151174029Y-91669113D01*
X151214437Y-91638838D01*
X151242982Y-91612781D01*
X151253257Y-91597175D01*
X151247877Y-91580157D01*
X151232575Y-91539500D01*
X151208612Y-91478358D01*
X151177244Y-91399881D01*
X151139732Y-91307220D01*
X151097333Y-91203528D01*
X151055663Y-91102474D01*
X151009690Y-90991393D01*
X150967107Y-90888459D01*
X150929221Y-90796835D01*
X150897340Y-90719684D01*
X150872771Y-90660169D01*
X150856820Y-90621456D01*
X150850910Y-90607000D01*
X150836948Y-90592315D01*
X150809940Y-90592358D01*
X150766413Y-90607901D01*
X150702890Y-90639716D01*
X150702388Y-90639987D01*
X150654560Y-90664677D01*
X150615897Y-90682662D01*
X150594095Y-90690386D01*
X150593133Y-90690457D01*
X150576721Y-90682622D01*
X150540487Y-90660835D01*
X150488474Y-90627672D01*
X150424725Y-90585709D01*
X150354060Y-90538057D01*
X150282116Y-90489809D01*
X150217274Y-90447849D01*
X150163735Y-90414773D01*
X150125697Y-90393179D01*
X150107533Y-90385657D01*
X150090808Y-90395543D01*
X150057180Y-90423174D01*
X150010010Y-90465505D01*
X149952658Y-90519495D01*
X149888484Y-90582101D01*
X149867497Y-90603017D01*
X149650499Y-90820377D01*
X149815668Y-91062780D01*
X149865864Y-91137219D01*
X149909919Y-91204028D01*
X149945362Y-91259335D01*
X149969719Y-91299271D01*
X149980522Y-91319964D01*
X149980838Y-91321437D01*
X149975143Y-91340942D01*
X149959826Y-91380178D01*
X149937537Y-91432570D01*
X149921893Y-91467645D01*
X149892641Y-91534799D01*
X149865094Y-91602642D01*
X149843737Y-91659966D01*
X149837935Y-91677428D01*
X149821452Y-91724062D01*
X149805340Y-91760095D01*
X149796490Y-91773713D01*
X149776960Y-91782048D01*
X149734334Y-91793863D01*
X149674145Y-91807819D01*
X149601922Y-91822578D01*
X149569600Y-91828645D01*
X149487522Y-91843727D01*
X149408795Y-91858331D01*
X149341109Y-91871020D01*
X149292160Y-91880358D01*
X149282943Y-91882161D01*
X149206743Y-91897201D01*
X149206743Y-92214508D01*
X149206914Y-92318846D01*
X149207616Y-92397787D01*
X149209134Y-92454962D01*
X149211749Y-92494001D01*
X149215746Y-92518535D01*
X149221409Y-92532195D01*
X149229020Y-92538611D01*
X149232143Y-92539801D01*
X149250978Y-92544020D01*
X149292588Y-92552438D01*
X149351630Y-92564039D01*
X149422757Y-92577805D01*
X149500625Y-92592720D01*
X149579887Y-92607768D01*
X149655198Y-92621931D01*
X149721213Y-92634194D01*
X149772587Y-92643539D01*
X149803975Y-92648950D01*
X149810959Y-92649886D01*
X149817285Y-92662404D01*
X149831290Y-92695754D01*
X149850355Y-92743623D01*
X149857634Y-92762371D01*
X149886996Y-92834805D01*
X149921571Y-92914830D01*
X149952537Y-92982272D01*
X149975323Y-93033841D01*
X149990482Y-93076215D01*
X149995542Y-93102166D01*
X149994736Y-93105644D01*
X149984041Y-93122064D01*
X149959620Y-93158583D01*
X149924095Y-93211313D01*
X149880087Y-93276365D01*
X149830217Y-93349849D01*
X149820356Y-93364355D01*
X149762492Y-93450296D01*
X149719956Y-93515739D01*
X149691054Y-93563696D01*
X149674090Y-93597180D01*
X149667367Y-93619205D01*
X149669190Y-93632783D01*
X149669236Y-93632869D01*
X149683586Y-93650703D01*
X149715323Y-93685183D01*
X149761010Y-93732732D01*
X149817204Y-93789778D01*
X149880468Y-93852745D01*
X149887602Y-93859773D01*
X149967330Y-93936980D01*
X150028857Y-93993670D01*
X150073421Y-94030890D01*
X150102257Y-94049685D01*
X150114958Y-94052111D01*
X150133494Y-94041529D01*
X150171961Y-94017084D01*
X150226386Y-93981388D01*
X150292798Y-93937053D01*
X150367225Y-93886689D01*
X150384601Y-93874840D01*
X150631297Y-93706374D01*
X150742706Y-93756938D01*
X150810457Y-93786405D01*
X150883183Y-93816041D01*
X150945703Y-93839670D01*
X150948457Y-93840642D01*
X150997360Y-93858543D01*
X151035057Y-93873680D01*
X151053425Y-93882790D01*
X151053456Y-93882816D01*
X151059285Y-93899283D01*
X151069192Y-93939781D01*
X151082195Y-93999758D01*
X151097309Y-94074660D01*
X151113552Y-94159936D01*
X151114881Y-94167125D01*
X151131175Y-94254986D01*
X151146133Y-94334740D01*
X151158791Y-94401319D01*
X151168186Y-94449653D01*
X151173354Y-94474675D01*
X151173444Y-94475057D01*
X151176589Y-94485701D01*
X151182704Y-94493738D01*
X151195453Y-94499533D01*
X151218500Y-94503453D01*
X151255509Y-94505865D01*
X151310144Y-94507135D01*
X151386067Y-94507629D01*
X151486944Y-94507714D01*
X151500000Y-94507714D01*
X151603910Y-94507652D01*
G37*
X151603910Y-94507652D02*
X151682454Y-94507222D01*
X151739298Y-94506058D01*
X151778105Y-94503793D01*
X151802538Y-94500060D01*
X151816262Y-94494494D01*
X151822940Y-94486727D01*
X151826236Y-94476395D01*
X151826556Y-94475057D01*
X151831562Y-94450921D01*
X151840829Y-94403299D01*
X151853392Y-94337259D01*
X151868287Y-94257872D01*
X151884551Y-94170204D01*
X151885119Y-94167125D01*
X151901410Y-94081211D01*
X151916652Y-94005304D01*
X151929861Y-93943955D01*
X151940054Y-93901718D01*
X151946248Y-93883145D01*
X151946543Y-93882816D01*
X151964788Y-93873747D01*
X152002405Y-93858633D01*
X152051271Y-93840738D01*
X152051543Y-93840642D01*
X152113093Y-93817507D01*
X152185657Y-93788035D01*
X152254057Y-93758403D01*
X152257294Y-93756938D01*
X152368702Y-93706374D01*
X152615399Y-93874840D01*
X152691077Y-93926197D01*
X152759631Y-93972111D01*
X152817088Y-94009970D01*
X152859476Y-94037163D01*
X152882825Y-94051079D01*
X152885042Y-94052111D01*
X152902010Y-94047516D01*
X152933701Y-94025345D01*
X152981352Y-93984553D01*
X153046198Y-93924095D01*
X153112397Y-93859773D01*
X153176214Y-93796388D01*
X153233329Y-93738549D01*
X153280305Y-93689825D01*
X153313703Y-93653790D01*
X153330085Y-93634016D01*
X153330694Y-93632998D01*
X153332505Y-93619428D01*
X153325683Y-93597267D01*
X153308540Y-93563522D01*
X153279393Y-93515200D01*
X153236555Y-93449308D01*
X153179448Y-93364483D01*
X153128766Y-93289823D01*
X153083461Y-93222860D01*
X153046150Y-93167484D01*
X153019452Y-93127580D01*
X153005985Y-93107038D01*
X153005137Y-93105644D01*
X153006781Y-93085962D01*
X153019245Y-93047707D01*
X153040048Y-92998111D01*
X153047462Y-92982272D01*
X153079814Y-92911710D01*
X153114328Y-92831647D01*
X153142365Y-92762371D01*
X153162568Y-92710955D01*
X153178615Y-92671881D01*
X153187888Y-92651459D01*
X153189041Y-92649886D01*
X153206096Y-92647279D01*
X153246298Y-92640137D01*
X153304302Y-92629477D01*
X153374763Y-92616315D01*
X153452335Y-92601667D01*
X153531672Y-92586551D01*
X153607431Y-92571982D01*
X153674264Y-92558978D01*
X153726828Y-92548555D01*
X153759776Y-92541730D01*
X153767857Y-92539801D01*
X153776205Y-92535038D01*
X153782506Y-92524282D01*
X153787045Y-92503902D01*
X153790104Y-92470266D01*
X153791967Y-92419745D01*
X153792918Y-92348708D01*
X153793240Y-92253524D01*
X153793257Y-92214508D01*
X153793257Y-91897201D01*
X153717057Y-91882161D01*
X153674663Y-91874005D01*
X153611400Y-91862101D01*
X153534962Y-91847884D01*
X153453043Y-91832790D01*
X153430400Y-91828645D01*
X153354806Y-91813947D01*
X153288953Y-91799495D01*
X153238366Y-91786625D01*
X153208574Y-91776678D01*
X153203612Y-91773713D01*
X153191426Y-91752717D01*
X153173953Y-91712033D01*
X153154577Y-91659678D01*
X153150734Y-91648400D01*
X153125339Y-91578477D01*
X153093817Y-91499582D01*
X153062969Y-91428734D01*
X153062817Y-91428405D01*
X153011447Y-91317267D01*
X153180399Y-91068747D01*
X153349352Y-90820228D01*
X153132429Y-90602942D01*
X153066819Y-90538274D01*
X153006979Y-90481267D01*
X152956267Y-90434967D01*
X152918046Y-90402416D01*
X152895675Y-90386657D01*
X152892466Y-90385657D01*
X152873626Y-90393531D01*
X152835180Y-90415422D01*
X152781330Y-90448733D01*
X152716276Y-90490869D01*
X152645940Y-90538057D01*
X152574555Y-90586190D01*
X152510908Y-90628072D01*
X152459041Y-90661129D01*
X152422995Y-90682782D01*
X152406867Y-90690457D01*
X152387189Y-90683963D01*
X152349875Y-90666850D01*
X152302621Y-90642674D01*
X152297612Y-90639987D01*
X152233977Y-90608073D01*
X152190341Y-90592421D01*
X152163202Y-90592255D01*
X152149057Y-90606796D01*
X152148975Y-90607000D01*
X152141905Y-90624221D01*
X152125042Y-90665101D01*
X152099695Y-90726475D01*
X152067171Y-90805181D01*
X152028778Y-90898053D01*
X151985822Y-91001928D01*
X151944222Y-91102498D01*
X151898504Y-91213484D01*
X151856526Y-91316297D01*
X151819548Y-91407785D01*
X151788827Y-91484799D01*
X151765622Y-91544185D01*
X151751190Y-91582791D01*
X151746743Y-91597200D01*
X151757896Y-91613728D01*
X151787069Y-91640070D01*
X151825971Y-91669113D01*
X151936757Y-91760961D01*
X152023351Y-91866241D01*
X152084716Y-91982734D01*
X152119815Y-92108224D01*
X152127608Y-92240493D01*
X152121943Y-92301543D01*
X152091078Y-92428205D01*
X152037920Y-92540059D01*
X151965767Y-92635999D01*
X151877917Y-92714924D01*
X151777665Y-92775730D01*
X151668310Y-92817313D01*
X151553147Y-92838572D01*
X151435475Y-92838401D01*
X151318590Y-92815699D01*
X151205789Y-92769362D01*
X151100369Y-92698287D01*
X151056368Y-92658089D01*
X150971979Y-92554871D01*
X150913222Y-92442075D01*
X150879704Y-92322990D01*
X150871035Y-92200905D01*
X150886823Y-92079107D01*
X150926678Y-91960884D01*
X150990207Y-91849525D01*
X151077021Y-91748316D01*
X151174029Y-91669113D01*
X151214437Y-91638838D01*
X151242982Y-91612781D01*
X151253257Y-91597175D01*
X151247877Y-91580157D01*
X151232575Y-91539500D01*
X151208612Y-91478358D01*
X151177244Y-91399881D01*
X151139732Y-91307220D01*
X151097333Y-91203528D01*
X151055663Y-91102474D01*
X151009690Y-90991393D01*
X150967107Y-90888459D01*
X150929221Y-90796835D01*
X150897340Y-90719684D01*
X150872771Y-90660169D01*
X150856820Y-90621456D01*
X150850910Y-90607000D01*
X150836948Y-90592315D01*
X150809940Y-90592358D01*
X150766413Y-90607901D01*
X150702890Y-90639716D01*
X150702388Y-90639987D01*
X150654560Y-90664677D01*
X150615897Y-90682662D01*
X150594095Y-90690386D01*
X150593133Y-90690457D01*
X150576721Y-90682622D01*
X150540487Y-90660835D01*
X150488474Y-90627672D01*
X150424725Y-90585709D01*
X150354060Y-90538057D01*
X150282116Y-90489809D01*
X150217274Y-90447849D01*
X150163735Y-90414773D01*
X150125697Y-90393179D01*
X150107533Y-90385657D01*
X150090808Y-90395543D01*
X150057180Y-90423174D01*
X150010010Y-90465505D01*
X149952658Y-90519495D01*
X149888484Y-90582101D01*
X149867497Y-90603017D01*
X149650499Y-90820377D01*
X149815668Y-91062780D01*
X149865864Y-91137219D01*
X149909919Y-91204028D01*
X149945362Y-91259335D01*
X149969719Y-91299271D01*
X149980522Y-91319964D01*
X149980838Y-91321437D01*
X149975143Y-91340942D01*
X149959826Y-91380178D01*
X149937537Y-91432570D01*
X149921893Y-91467645D01*
X149892641Y-91534799D01*
X149865094Y-91602642D01*
X149843737Y-91659966D01*
X149837935Y-91677428D01*
X149821452Y-91724062D01*
X149805340Y-91760095D01*
X149796490Y-91773713D01*
X149776960Y-91782048D01*
X149734334Y-91793863D01*
X149674145Y-91807819D01*
X149601922Y-91822578D01*
X149569600Y-91828645D01*
X149487522Y-91843727D01*
X149408795Y-91858331D01*
X149341109Y-91871020D01*
X149292160Y-91880358D01*
X149282943Y-91882161D01*
X149206743Y-91897201D01*
X149206743Y-92214508D01*
X149206914Y-92318846D01*
X149207616Y-92397787D01*
X149209134Y-92454962D01*
X149211749Y-92494001D01*
X149215746Y-92518535D01*
X149221409Y-92532195D01*
X149229020Y-92538611D01*
X149232143Y-92539801D01*
X149250978Y-92544020D01*
X149292588Y-92552438D01*
X149351630Y-92564039D01*
X149422757Y-92577805D01*
X149500625Y-92592720D01*
X149579887Y-92607768D01*
X149655198Y-92621931D01*
X149721213Y-92634194D01*
X149772587Y-92643539D01*
X149803975Y-92648950D01*
X149810959Y-92649886D01*
X149817285Y-92662404D01*
X149831290Y-92695754D01*
X149850355Y-92743623D01*
X149857634Y-92762371D01*
X149886996Y-92834805D01*
X149921571Y-92914830D01*
X149952537Y-92982272D01*
X149975323Y-93033841D01*
X149990482Y-93076215D01*
X149995542Y-93102166D01*
X149994736Y-93105644D01*
X149984041Y-93122064D01*
X149959620Y-93158583D01*
X149924095Y-93211313D01*
X149880087Y-93276365D01*
X149830217Y-93349849D01*
X149820356Y-93364355D01*
X149762492Y-93450296D01*
X149719956Y-93515739D01*
X149691054Y-93563696D01*
X149674090Y-93597180D01*
X149667367Y-93619205D01*
X149669190Y-93632783D01*
X149669236Y-93632869D01*
X149683586Y-93650703D01*
X149715323Y-93685183D01*
X149761010Y-93732732D01*
X149817204Y-93789778D01*
X149880468Y-93852745D01*
X149887602Y-93859773D01*
X149967330Y-93936980D01*
X150028857Y-93993670D01*
X150073421Y-94030890D01*
X150102257Y-94049685D01*
X150114958Y-94052111D01*
X150133494Y-94041529D01*
X150171961Y-94017084D01*
X150226386Y-93981388D01*
X150292798Y-93937053D01*
X150367225Y-93886689D01*
X150384601Y-93874840D01*
X150631297Y-93706374D01*
X150742706Y-93756938D01*
X150810457Y-93786405D01*
X150883183Y-93816041D01*
X150945703Y-93839670D01*
X150948457Y-93840642D01*
X150997360Y-93858543D01*
X151035057Y-93873680D01*
X151053425Y-93882790D01*
X151053456Y-93882816D01*
X151059285Y-93899283D01*
X151069192Y-93939781D01*
X151082195Y-93999758D01*
X151097309Y-94074660D01*
X151113552Y-94159936D01*
X151114881Y-94167125D01*
X151131175Y-94254986D01*
X151146133Y-94334740D01*
X151158791Y-94401319D01*
X151168186Y-94449653D01*
X151173354Y-94474675D01*
X151173444Y-94475057D01*
X151176589Y-94485701D01*
X151182704Y-94493738D01*
X151195453Y-94499533D01*
X151218500Y-94503453D01*
X151255509Y-94505865D01*
X151310144Y-94507135D01*
X151386067Y-94507629D01*
X151486944Y-94507714D01*
X151500000Y-94507714D01*
X151603910Y-94507652D01*
G36*
X154653595Y-89783034D02*
G01*
X154711021Y-89745503D01*
X154738719Y-89711904D01*
X154760662Y-89650936D01*
X154762405Y-89602692D01*
X154758457Y-89538184D01*
X154609686Y-89473066D01*
X154537349Y-89439798D01*
X154490084Y-89413036D01*
X154465507Y-89389856D01*
X154461237Y-89367333D01*
X154474889Y-89342545D01*
X154489943Y-89326114D01*
X154533746Y-89299765D01*
X154581389Y-89297919D01*
X154625145Y-89318454D01*
X154657289Y-89359248D01*
X154663038Y-89373653D01*
X154690576Y-89418644D01*
X154722258Y-89437818D01*
X154765714Y-89454221D01*
X154765714Y-89392034D01*
X154761872Y-89349717D01*
X154746823Y-89314031D01*
X154715280Y-89273057D01*
X154710592Y-89267733D01*
X154675506Y-89231280D01*
X154645347Y-89211717D01*
X154607615Y-89202717D01*
X154576335Y-89199770D01*
X154520385Y-89199035D01*
X154480555Y-89208340D01*
X154455708Y-89222154D01*
X154416656Y-89252533D01*
X154389625Y-89285387D01*
X154372517Y-89326706D01*
X154363238Y-89382479D01*
X154359693Y-89458695D01*
X154359410Y-89497378D01*
X154360372Y-89543753D01*
X154448007Y-89543753D01*
X154449023Y-89518874D01*
X154451556Y-89514800D01*
X154468274Y-89520335D01*
X154504249Y-89534983D01*
X154552331Y-89555810D01*
X154562386Y-89560286D01*
X154623152Y-89591186D01*
X154656632Y-89618343D01*
X154663990Y-89643780D01*
X154646391Y-89669519D01*
X154631856Y-89680891D01*
X154579410Y-89703636D01*
X154530322Y-89699878D01*
X154489227Y-89672116D01*
X154460758Y-89622848D01*
X154451631Y-89583743D01*
X154448007Y-89543753D01*
X154360372Y-89543753D01*
X154361285Y-89587751D01*
X154368196Y-89654616D01*
X154381884Y-89703305D01*
X154404096Y-89739151D01*
X154436574Y-89767487D01*
X154450733Y-89776645D01*
X154515053Y-89800493D01*
X154585473Y-89801994D01*
X154653595Y-89783034D01*
G37*
X154653595Y-89783034D02*
X154711021Y-89745503D01*
X154738719Y-89711904D01*
X154760662Y-89650936D01*
X154762405Y-89602692D01*
X154758457Y-89538184D01*
X154609686Y-89473066D01*
X154537349Y-89439798D01*
X154490084Y-89413036D01*
X154465507Y-89389856D01*
X154461237Y-89367333D01*
X154474889Y-89342545D01*
X154489943Y-89326114D01*
X154533746Y-89299765D01*
X154581389Y-89297919D01*
X154625145Y-89318454D01*
X154657289Y-89359248D01*
X154663038Y-89373653D01*
X154690576Y-89418644D01*
X154722258Y-89437818D01*
X154765714Y-89454221D01*
X154765714Y-89392034D01*
X154761872Y-89349717D01*
X154746823Y-89314031D01*
X154715280Y-89273057D01*
X154710592Y-89267733D01*
X154675506Y-89231280D01*
X154645347Y-89211717D01*
X154607615Y-89202717D01*
X154576335Y-89199770D01*
X154520385Y-89199035D01*
X154480555Y-89208340D01*
X154455708Y-89222154D01*
X154416656Y-89252533D01*
X154389625Y-89285387D01*
X154372517Y-89326706D01*
X154363238Y-89382479D01*
X154359693Y-89458695D01*
X154359410Y-89497378D01*
X154360372Y-89543753D01*
X154448007Y-89543753D01*
X154449023Y-89518874D01*
X154451556Y-89514800D01*
X154468274Y-89520335D01*
X154504249Y-89534983D01*
X154552331Y-89555810D01*
X154562386Y-89560286D01*
X154623152Y-89591186D01*
X154656632Y-89618343D01*
X154663990Y-89643780D01*
X154646391Y-89669519D01*
X154631856Y-89680891D01*
X154579410Y-89703636D01*
X154530322Y-89699878D01*
X154489227Y-89672116D01*
X154460758Y-89622848D01*
X154451631Y-89583743D01*
X154448007Y-89543753D01*
X154360372Y-89543753D01*
X154361285Y-89587751D01*
X154368196Y-89654616D01*
X154381884Y-89703305D01*
X154404096Y-89739151D01*
X154436574Y-89767487D01*
X154450733Y-89776645D01*
X154515053Y-89800493D01*
X154585473Y-89801994D01*
X154653595Y-89783034D01*
G36*
X154152600Y-89791248D02*
G01*
X154169948Y-89783666D01*
X154211356Y-89750872D01*
X154246765Y-89703453D01*
X154268664Y-89652849D01*
X154272229Y-89627902D01*
X154260279Y-89593073D01*
X154234067Y-89574643D01*
X154205964Y-89563484D01*
X154193095Y-89561428D01*
X154186829Y-89576351D01*
X154174456Y-89608825D01*
X154169028Y-89623498D01*
X154138590Y-89674256D01*
X154094520Y-89699573D01*
X154038010Y-89698794D01*
X154033825Y-89697797D01*
X154003655Y-89683493D01*
X153981476Y-89655607D01*
X153966327Y-89610713D01*
X153957250Y-89545385D01*
X153953286Y-89456196D01*
X153952914Y-89408739D01*
X153952730Y-89333929D01*
X153951522Y-89282931D01*
X153948309Y-89250529D01*
X153942109Y-89231505D01*
X153931940Y-89220644D01*
X153916819Y-89212728D01*
X153915946Y-89212330D01*
X153886828Y-89200019D01*
X153872403Y-89195486D01*
X153870186Y-89209191D01*
X153868289Y-89247075D01*
X153866847Y-89304285D01*
X153865998Y-89375973D01*
X153865829Y-89428435D01*
X153866692Y-89529953D01*
X153870070Y-89606968D01*
X153877142Y-89663977D01*
X153889088Y-89705474D01*
X153907090Y-89735957D01*
X153932327Y-89759920D01*
X153957247Y-89776645D01*
X154017171Y-89798903D01*
X154086911Y-89803924D01*
X154152600Y-89791248D01*
G37*
X154152600Y-89791248D02*
X154169948Y-89783666D01*
X154211356Y-89750872D01*
X154246765Y-89703453D01*
X154268664Y-89652849D01*
X154272229Y-89627902D01*
X154260279Y-89593073D01*
X154234067Y-89574643D01*
X154205964Y-89563484D01*
X154193095Y-89561428D01*
X154186829Y-89576351D01*
X154174456Y-89608825D01*
X154169028Y-89623498D01*
X154138590Y-89674256D01*
X154094520Y-89699573D01*
X154038010Y-89698794D01*
X154033825Y-89697797D01*
X154003655Y-89683493D01*
X153981476Y-89655607D01*
X153966327Y-89610713D01*
X153957250Y-89545385D01*
X153953286Y-89456196D01*
X153952914Y-89408739D01*
X153952730Y-89333929D01*
X153951522Y-89282931D01*
X153948309Y-89250529D01*
X153942109Y-89231505D01*
X153931940Y-89220644D01*
X153916819Y-89212728D01*
X153915946Y-89212330D01*
X153886828Y-89200019D01*
X153872403Y-89195486D01*
X153870186Y-89209191D01*
X153868289Y-89247075D01*
X153866847Y-89304285D01*
X153865998Y-89375973D01*
X153865829Y-89428435D01*
X153866692Y-89529953D01*
X153870070Y-89606968D01*
X153877142Y-89663977D01*
X153889088Y-89705474D01*
X153907090Y-89735957D01*
X153932327Y-89759920D01*
X153957247Y-89776645D01*
X154017171Y-89798903D01*
X154086911Y-89803924D01*
X154152600Y-89791248D01*
G36*
X153644876Y-89793665D02*
G01*
X153686667Y-89774656D01*
X153719469Y-89751622D01*
X153743503Y-89725867D01*
X153760097Y-89692642D01*
X153770577Y-89647200D01*
X153776271Y-89584793D01*
X153778507Y-89500673D01*
X153778743Y-89445279D01*
X153778743Y-89229174D01*
X153741774Y-89212330D01*
X153712656Y-89200019D01*
X153698231Y-89195486D01*
X153695472Y-89208975D01*
X153693282Y-89245347D01*
X153691942Y-89298458D01*
X153691657Y-89340628D01*
X153690434Y-89401553D01*
X153687136Y-89449885D01*
X153682321Y-89479482D01*
X153678496Y-89485771D01*
X153652783Y-89479348D01*
X153612418Y-89462875D01*
X153565679Y-89440542D01*
X153520845Y-89416543D01*
X153486193Y-89395070D01*
X153470002Y-89380315D01*
X153469938Y-89380155D01*
X153471330Y-89352848D01*
X153483818Y-89326781D01*
X153505743Y-89305608D01*
X153537743Y-89298526D01*
X153565092Y-89299351D01*
X153603826Y-89299958D01*
X153624158Y-89290884D01*
X153636369Y-89266908D01*
X153637909Y-89262387D01*
X153643203Y-89228194D01*
X153629047Y-89207432D01*
X153592148Y-89197538D01*
X153552289Y-89195708D01*
X153480562Y-89209273D01*
X153443432Y-89228645D01*
X153397576Y-89274155D01*
X153373256Y-89330017D01*
X153371073Y-89389043D01*
X153391629Y-89444047D01*
X153422549Y-89478514D01*
X153453420Y-89497811D01*
X153501942Y-89522241D01*
X153558485Y-89547015D01*
X153567910Y-89550801D01*
X153630019Y-89578209D01*
X153665822Y-89602366D01*
X153677337Y-89626381D01*
X153666580Y-89653365D01*
X153648114Y-89674457D01*
X153604469Y-89700428D01*
X153556446Y-89702376D01*
X153512406Y-89682363D01*
X153480709Y-89642449D01*
X153476549Y-89632152D01*
X153452327Y-89594276D01*
X153416965Y-89566158D01*
X153372343Y-89543083D01*
X153372343Y-89608515D01*
X153374969Y-89648494D01*
X153386230Y-89680003D01*
X153411199Y-89713622D01*
X153435169Y-89739516D01*
X153472441Y-89776183D01*
X153501401Y-89795879D01*
X153532505Y-89803780D01*
X153567713Y-89805086D01*
X153644876Y-89793665D01*
G37*
X153644876Y-89793665D02*
X153686667Y-89774656D01*
X153719469Y-89751622D01*
X153743503Y-89725867D01*
X153760097Y-89692642D01*
X153770577Y-89647200D01*
X153776271Y-89584793D01*
X153778507Y-89500673D01*
X153778743Y-89445279D01*
X153778743Y-89229174D01*
X153741774Y-89212330D01*
X153712656Y-89200019D01*
X153698231Y-89195486D01*
X153695472Y-89208975D01*
X153693282Y-89245347D01*
X153691942Y-89298458D01*
X153691657Y-89340628D01*
X153690434Y-89401553D01*
X153687136Y-89449885D01*
X153682321Y-89479482D01*
X153678496Y-89485771D01*
X153652783Y-89479348D01*
X153612418Y-89462875D01*
X153565679Y-89440542D01*
X153520845Y-89416543D01*
X153486193Y-89395070D01*
X153470002Y-89380315D01*
X153469938Y-89380155D01*
X153471330Y-89352848D01*
X153483818Y-89326781D01*
X153505743Y-89305608D01*
X153537743Y-89298526D01*
X153565092Y-89299351D01*
X153603826Y-89299958D01*
X153624158Y-89290884D01*
X153636369Y-89266908D01*
X153637909Y-89262387D01*
X153643203Y-89228194D01*
X153629047Y-89207432D01*
X153592148Y-89197538D01*
X153552289Y-89195708D01*
X153480562Y-89209273D01*
X153443432Y-89228645D01*
X153397576Y-89274155D01*
X153373256Y-89330017D01*
X153371073Y-89389043D01*
X153391629Y-89444047D01*
X153422549Y-89478514D01*
X153453420Y-89497811D01*
X153501942Y-89522241D01*
X153558485Y-89547015D01*
X153567910Y-89550801D01*
X153630019Y-89578209D01*
X153665822Y-89602366D01*
X153677337Y-89626381D01*
X153666580Y-89653365D01*
X153648114Y-89674457D01*
X153604469Y-89700428D01*
X153556446Y-89702376D01*
X153512406Y-89682363D01*
X153480709Y-89642449D01*
X153476549Y-89632152D01*
X153452327Y-89594276D01*
X153416965Y-89566158D01*
X153372343Y-89543083D01*
X153372343Y-89608515D01*
X153374969Y-89648494D01*
X153386230Y-89680003D01*
X153411199Y-89713622D01*
X153435169Y-89739516D01*
X153472441Y-89776183D01*
X153501401Y-89795879D01*
X153532505Y-89803780D01*
X153567713Y-89805086D01*
X153644876Y-89793665D01*
G36*
X153279833Y-89791337D02*
G01*
X153282048Y-89753150D01*
X153283784Y-89695114D01*
X153284899Y-89621820D01*
X153285257Y-89544945D01*
X153285257Y-89284804D01*
X153239326Y-89238873D01*
X153207675Y-89210571D01*
X153179890Y-89199107D01*
X153141915Y-89199832D01*
X153126840Y-89201679D01*
X153079726Y-89207052D01*
X153040756Y-89210131D01*
X153031257Y-89210415D01*
X152999233Y-89208555D01*
X152953432Y-89203886D01*
X152935674Y-89201679D01*
X152892057Y-89198265D01*
X152862745Y-89205680D01*
X152833680Y-89228573D01*
X152823188Y-89238873D01*
X152777257Y-89284804D01*
X152777257Y-89771398D01*
X152814226Y-89788242D01*
X152846059Y-89800718D01*
X152864683Y-89805086D01*
X152869458Y-89791282D01*
X152873921Y-89752714D01*
X152877775Y-89693644D01*
X152880722Y-89618337D01*
X152882143Y-89554714D01*
X152886114Y-89304343D01*
X152920759Y-89299444D01*
X152952268Y-89302869D01*
X152967708Y-89313959D01*
X152972023Y-89334692D01*
X152975708Y-89378855D01*
X152978469Y-89440854D01*
X152980012Y-89515091D01*
X152980235Y-89553294D01*
X152980457Y-89773217D01*
X153026166Y-89789151D01*
X153058518Y-89799985D01*
X153076115Y-89805038D01*
X153076623Y-89805086D01*
X153078388Y-89791352D01*
X153080329Y-89753270D01*
X153082282Y-89695518D01*
X153084084Y-89622773D01*
X153085343Y-89554714D01*
X153089314Y-89304343D01*
X153176400Y-89304343D01*
X153180396Y-89532760D01*
X153184392Y-89761178D01*
X153226847Y-89783132D01*
X153258192Y-89798207D01*
X153276744Y-89805049D01*
X153277279Y-89805086D01*
X153279833Y-89791337D01*
G37*
X153279833Y-89791337D02*
X153282048Y-89753150D01*
X153283784Y-89695114D01*
X153284899Y-89621820D01*
X153285257Y-89544945D01*
X153285257Y-89284804D01*
X153239326Y-89238873D01*
X153207675Y-89210571D01*
X153179890Y-89199107D01*
X153141915Y-89199832D01*
X153126840Y-89201679D01*
X153079726Y-89207052D01*
X153040756Y-89210131D01*
X153031257Y-89210415D01*
X152999233Y-89208555D01*
X152953432Y-89203886D01*
X152935674Y-89201679D01*
X152892057Y-89198265D01*
X152862745Y-89205680D01*
X152833680Y-89228573D01*
X152823188Y-89238873D01*
X152777257Y-89284804D01*
X152777257Y-89771398D01*
X152814226Y-89788242D01*
X152846059Y-89800718D01*
X152864683Y-89805086D01*
X152869458Y-89791282D01*
X152873921Y-89752714D01*
X152877775Y-89693644D01*
X152880722Y-89618337D01*
X152882143Y-89554714D01*
X152886114Y-89304343D01*
X152920759Y-89299444D01*
X152952268Y-89302869D01*
X152967708Y-89313959D01*
X152972023Y-89334692D01*
X152975708Y-89378855D01*
X152978469Y-89440854D01*
X152980012Y-89515091D01*
X152980235Y-89553294D01*
X152980457Y-89773217D01*
X153026166Y-89789151D01*
X153058518Y-89799985D01*
X153076115Y-89805038D01*
X153076623Y-89805086D01*
X153078388Y-89791352D01*
X153080329Y-89753270D01*
X153082282Y-89695518D01*
X153084084Y-89622773D01*
X153085343Y-89554714D01*
X153089314Y-89304343D01*
X153176400Y-89304343D01*
X153180396Y-89532760D01*
X153184392Y-89761178D01*
X153226847Y-89783132D01*
X153258192Y-89798207D01*
X153276744Y-89805049D01*
X153277279Y-89805086D01*
X153279833Y-89791337D01*
G36*
X152690117Y-89684642D02*
G01*
X152689933Y-89576163D01*
X152689219Y-89492713D01*
X152687675Y-89430296D01*
X152685001Y-89384915D01*
X152680894Y-89352571D01*
X152675055Y-89329267D01*
X152667182Y-89311005D01*
X152661221Y-89300582D01*
X152611855Y-89244055D01*
X152549264Y-89208623D01*
X152480013Y-89195910D01*
X152410668Y-89207537D01*
X152369375Y-89228432D01*
X152326025Y-89264578D01*
X152296481Y-89308724D01*
X152278655Y-89366538D01*
X152270463Y-89443687D01*
X152269302Y-89500286D01*
X152269458Y-89504353D01*
X152370857Y-89504353D01*
X152371476Y-89439450D01*
X152374314Y-89396486D01*
X152380840Y-89368378D01*
X152392523Y-89348047D01*
X152406483Y-89332712D01*
X152453365Y-89303110D01*
X152503701Y-89300581D01*
X152551276Y-89325295D01*
X152554979Y-89328644D01*
X152570783Y-89346065D01*
X152580693Y-89366791D01*
X152586058Y-89397638D01*
X152588228Y-89445423D01*
X152588571Y-89498252D01*
X152587827Y-89564619D01*
X152584748Y-89608894D01*
X152578061Y-89637991D01*
X152566496Y-89658827D01*
X152557013Y-89669893D01*
X152512960Y-89697802D01*
X152462224Y-89701157D01*
X152413796Y-89679841D01*
X152404450Y-89671927D01*
X152388540Y-89654353D01*
X152378610Y-89633413D01*
X152373278Y-89602218D01*
X152371163Y-89553878D01*
X152370857Y-89504353D01*
X152269458Y-89504353D01*
X152272810Y-89591432D01*
X152284726Y-89659914D01*
X152307135Y-89711400D01*
X152342124Y-89751557D01*
X152369375Y-89772139D01*
X152418907Y-89794375D01*
X152476316Y-89804696D01*
X152529682Y-89801933D01*
X152559543Y-89790788D01*
X152571261Y-89787617D01*
X152579037Y-89799443D01*
X152584465Y-89831134D01*
X152588571Y-89879407D01*
X152593067Y-89933171D01*
X152599313Y-89965518D01*
X152610676Y-89984015D01*
X152630528Y-89996230D01*
X152643000Y-90001638D01*
X152690171Y-90021399D01*
X152690117Y-89684642D01*
G37*
X152690117Y-89684642D02*
X152689933Y-89576163D01*
X152689219Y-89492713D01*
X152687675Y-89430296D01*
X152685001Y-89384915D01*
X152680894Y-89352571D01*
X152675055Y-89329267D01*
X152667182Y-89311005D01*
X152661221Y-89300582D01*
X152611855Y-89244055D01*
X152549264Y-89208623D01*
X152480013Y-89195910D01*
X152410668Y-89207537D01*
X152369375Y-89228432D01*
X152326025Y-89264578D01*
X152296481Y-89308724D01*
X152278655Y-89366538D01*
X152270463Y-89443687D01*
X152269302Y-89500286D01*
X152269458Y-89504353D01*
X152370857Y-89504353D01*
X152371476Y-89439450D01*
X152374314Y-89396486D01*
X152380840Y-89368378D01*
X152392523Y-89348047D01*
X152406483Y-89332712D01*
X152453365Y-89303110D01*
X152503701Y-89300581D01*
X152551276Y-89325295D01*
X152554979Y-89328644D01*
X152570783Y-89346065D01*
X152580693Y-89366791D01*
X152586058Y-89397638D01*
X152588228Y-89445423D01*
X152588571Y-89498252D01*
X152587827Y-89564619D01*
X152584748Y-89608894D01*
X152578061Y-89637991D01*
X152566496Y-89658827D01*
X152557013Y-89669893D01*
X152512960Y-89697802D01*
X152462224Y-89701157D01*
X152413796Y-89679841D01*
X152404450Y-89671927D01*
X152388540Y-89654353D01*
X152378610Y-89633413D01*
X152373278Y-89602218D01*
X152371163Y-89553878D01*
X152370857Y-89504353D01*
X152269458Y-89504353D01*
X152272810Y-89591432D01*
X152284726Y-89659914D01*
X152307135Y-89711400D01*
X152342124Y-89751557D01*
X152369375Y-89772139D01*
X152418907Y-89794375D01*
X152476316Y-89804696D01*
X152529682Y-89801933D01*
X152559543Y-89790788D01*
X152571261Y-89787617D01*
X152579037Y-89799443D01*
X152584465Y-89831134D01*
X152588571Y-89879407D01*
X152593067Y-89933171D01*
X152599313Y-89965518D01*
X152610676Y-89984015D01*
X152630528Y-89996230D01*
X152643000Y-90001638D01*
X152690171Y-90021399D01*
X152690117Y-89684642D01*
G36*
X152029926Y-89800245D02*
G01*
X152095858Y-89775916D01*
X152149273Y-89732883D01*
X152170164Y-89702591D01*
X152192939Y-89647006D01*
X152192466Y-89606814D01*
X152168562Y-89579783D01*
X152159717Y-89575187D01*
X152121530Y-89560856D01*
X152102028Y-89564528D01*
X152095422Y-89588593D01*
X152095086Y-89601886D01*
X152082992Y-89650790D01*
X152051471Y-89685001D01*
X152007659Y-89701524D01*
X151958695Y-89697366D01*
X151918894Y-89675773D01*
X151905450Y-89663456D01*
X151895921Y-89648513D01*
X151889485Y-89625925D01*
X151885317Y-89590672D01*
X151882597Y-89537734D01*
X151880502Y-89462093D01*
X151879960Y-89438143D01*
X151877981Y-89356210D01*
X151875731Y-89298545D01*
X151872357Y-89260392D01*
X151867006Y-89236996D01*
X151858824Y-89223602D01*
X151846959Y-89215455D01*
X151839362Y-89211856D01*
X151807102Y-89199548D01*
X151788111Y-89195486D01*
X151781836Y-89209052D01*
X151778006Y-89250066D01*
X151776600Y-89319001D01*
X151777598Y-89416331D01*
X151777908Y-89431343D01*
X151780101Y-89520141D01*
X151782693Y-89584981D01*
X151786382Y-89630933D01*
X151791864Y-89663065D01*
X151799835Y-89686447D01*
X151810993Y-89706148D01*
X151816830Y-89714590D01*
X151850296Y-89751943D01*
X151887727Y-89780997D01*
X151892309Y-89783533D01*
X151959426Y-89803557D01*
X152029926Y-89800245D01*
G37*
X152029926Y-89800245D02*
X152095858Y-89775916D01*
X152149273Y-89732883D01*
X152170164Y-89702591D01*
X152192939Y-89647006D01*
X152192466Y-89606814D01*
X152168562Y-89579783D01*
X152159717Y-89575187D01*
X152121530Y-89560856D01*
X152102028Y-89564528D01*
X152095422Y-89588593D01*
X152095086Y-89601886D01*
X152082992Y-89650790D01*
X152051471Y-89685001D01*
X152007659Y-89701524D01*
X151958695Y-89697366D01*
X151918894Y-89675773D01*
X151905450Y-89663456D01*
X151895921Y-89648513D01*
X151889485Y-89625925D01*
X151885317Y-89590672D01*
X151882597Y-89537734D01*
X151880502Y-89462093D01*
X151879960Y-89438143D01*
X151877981Y-89356210D01*
X151875731Y-89298545D01*
X151872357Y-89260392D01*
X151867006Y-89236996D01*
X151858824Y-89223602D01*
X151846959Y-89215455D01*
X151839362Y-89211856D01*
X151807102Y-89199548D01*
X151788111Y-89195486D01*
X151781836Y-89209052D01*
X151778006Y-89250066D01*
X151776600Y-89319001D01*
X151777598Y-89416331D01*
X151777908Y-89431343D01*
X151780101Y-89520141D01*
X151782693Y-89584981D01*
X151786382Y-89630933D01*
X151791864Y-89663065D01*
X151799835Y-89686447D01*
X151810993Y-89706148D01*
X151816830Y-89714590D01*
X151850296Y-89751943D01*
X151887727Y-89780997D01*
X151892309Y-89783533D01*
X151959426Y-89803557D01*
X152029926Y-89800245D01*
G36*
X151539744Y-89799032D02*
G01*
X151596616Y-89777913D01*
X151597267Y-89777507D01*
X151632440Y-89751620D01*
X151658407Y-89721367D01*
X151676670Y-89681942D01*
X151688732Y-89628538D01*
X151696096Y-89556349D01*
X151700264Y-89460568D01*
X151700629Y-89446922D01*
X151705876Y-89241158D01*
X151661716Y-89218322D01*
X151629763Y-89202890D01*
X151610470Y-89195577D01*
X151609578Y-89195486D01*
X151606239Y-89208978D01*
X151603587Y-89245374D01*
X151601956Y-89298548D01*
X151601600Y-89341607D01*
X151601592Y-89411359D01*
X151598403Y-89455163D01*
X151587288Y-89476056D01*
X151563501Y-89477075D01*
X151522296Y-89461259D01*
X151460086Y-89432185D01*
X151414341Y-89408037D01*
X151390813Y-89387087D01*
X151383896Y-89364253D01*
X151383886Y-89363123D01*
X151395299Y-89323788D01*
X151429092Y-89302538D01*
X151480809Y-89299461D01*
X151518061Y-89299994D01*
X151537703Y-89289265D01*
X151549952Y-89263495D01*
X151557002Y-89230663D01*
X151546842Y-89212034D01*
X151543017Y-89209368D01*
X151507001Y-89198660D01*
X151456566Y-89197144D01*
X151404626Y-89204241D01*
X151367822Y-89217212D01*
X151316938Y-89260415D01*
X151288014Y-89320554D01*
X151282286Y-89367538D01*
X151286657Y-89409918D01*
X151302475Y-89444512D01*
X151333797Y-89475237D01*
X151384678Y-89506010D01*
X151459176Y-89540748D01*
X151463714Y-89542712D01*
X151530821Y-89573713D01*
X151572232Y-89599138D01*
X151589981Y-89621986D01*
X151586107Y-89645255D01*
X151562643Y-89671944D01*
X151555627Y-89678086D01*
X151508630Y-89701900D01*
X151459933Y-89700897D01*
X151417522Y-89677549D01*
X151389384Y-89634325D01*
X151386769Y-89625840D01*
X151361308Y-89584692D01*
X151329001Y-89564872D01*
X151282286Y-89545230D01*
X151282286Y-89596050D01*
X151296496Y-89669918D01*
X151338675Y-89737673D01*
X151360624Y-89760339D01*
X151410517Y-89789431D01*
X151473967Y-89802600D01*
X151539744Y-89799032D01*
G37*
X151539744Y-89799032D02*
X151596616Y-89777913D01*
X151597267Y-89777507D01*
X151632440Y-89751620D01*
X151658407Y-89721367D01*
X151676670Y-89681942D01*
X151688732Y-89628538D01*
X151696096Y-89556349D01*
X151700264Y-89460568D01*
X151700629Y-89446922D01*
X151705876Y-89241158D01*
X151661716Y-89218322D01*
X151629763Y-89202890D01*
X151610470Y-89195577D01*
X151609578Y-89195486D01*
X151606239Y-89208978D01*
X151603587Y-89245374D01*
X151601956Y-89298548D01*
X151601600Y-89341607D01*
X151601592Y-89411359D01*
X151598403Y-89455163D01*
X151587288Y-89476056D01*
X151563501Y-89477075D01*
X151522296Y-89461259D01*
X151460086Y-89432185D01*
X151414341Y-89408037D01*
X151390813Y-89387087D01*
X151383896Y-89364253D01*
X151383886Y-89363123D01*
X151395299Y-89323788D01*
X151429092Y-89302538D01*
X151480809Y-89299461D01*
X151518061Y-89299994D01*
X151537703Y-89289265D01*
X151549952Y-89263495D01*
X151557002Y-89230663D01*
X151546842Y-89212034D01*
X151543017Y-89209368D01*
X151507001Y-89198660D01*
X151456566Y-89197144D01*
X151404626Y-89204241D01*
X151367822Y-89217212D01*
X151316938Y-89260415D01*
X151288014Y-89320554D01*
X151282286Y-89367538D01*
X151286657Y-89409918D01*
X151302475Y-89444512D01*
X151333797Y-89475237D01*
X151384678Y-89506010D01*
X151459176Y-89540748D01*
X151463714Y-89542712D01*
X151530821Y-89573713D01*
X151572232Y-89599138D01*
X151589981Y-89621986D01*
X151586107Y-89645255D01*
X151562643Y-89671944D01*
X151555627Y-89678086D01*
X151508630Y-89701900D01*
X151459933Y-89700897D01*
X151417522Y-89677549D01*
X151389384Y-89634325D01*
X151386769Y-89625840D01*
X151361308Y-89584692D01*
X151329001Y-89564872D01*
X151282286Y-89545230D01*
X151282286Y-89596050D01*
X151296496Y-89669918D01*
X151338675Y-89737673D01*
X151360624Y-89760339D01*
X151410517Y-89789431D01*
X151473967Y-89802600D01*
X151539744Y-89799032D01*
G36*
X150875886Y-89898711D02*
G01*
X150880139Y-89839387D01*
X150885025Y-89804428D01*
X150891795Y-89789180D01*
X150901702Y-89788985D01*
X150904914Y-89790805D01*
X150947644Y-89803985D01*
X151003227Y-89803215D01*
X151059737Y-89789667D01*
X151095082Y-89772139D01*
X151131321Y-89744139D01*
X151157813Y-89712451D01*
X151175999Y-89672187D01*
X151187322Y-89618457D01*
X151193222Y-89546374D01*
X151195143Y-89451049D01*
X151195177Y-89432763D01*
X151195200Y-89227354D01*
X151149491Y-89211420D01*
X151117027Y-89200580D01*
X151099215Y-89195532D01*
X151098691Y-89195486D01*
X151096937Y-89209172D01*
X151095444Y-89246924D01*
X151094326Y-89303776D01*
X151093697Y-89374766D01*
X151093600Y-89417927D01*
X151093398Y-89503027D01*
X151092358Y-89564019D01*
X151089831Y-89605823D01*
X151085164Y-89633358D01*
X151077707Y-89651544D01*
X151066811Y-89665302D01*
X151060007Y-89671927D01*
X151013272Y-89698625D01*
X150962272Y-89700625D01*
X150916001Y-89678045D01*
X150907444Y-89669893D01*
X150894893Y-89654564D01*
X150886188Y-89636382D01*
X150880631Y-89610091D01*
X150877526Y-89570438D01*
X150876176Y-89512168D01*
X150875886Y-89431827D01*
X150875886Y-89227354D01*
X150830177Y-89211420D01*
X150797713Y-89200580D01*
X150779901Y-89195532D01*
X150779377Y-89195486D01*
X150778037Y-89209377D01*
X150776828Y-89248561D01*
X150775801Y-89309300D01*
X150775002Y-89387859D01*
X150774481Y-89480502D01*
X150774286Y-89583491D01*
X150774286Y-89980658D01*
X150821457Y-90000556D01*
X150868629Y-90020453D01*
X150875886Y-89898711D01*
G37*
X150875886Y-89898711D02*
X150880139Y-89839387D01*
X150885025Y-89804428D01*
X150891795Y-89789180D01*
X150901702Y-89788985D01*
X150904914Y-89790805D01*
X150947644Y-89803985D01*
X151003227Y-89803215D01*
X151059737Y-89789667D01*
X151095082Y-89772139D01*
X151131321Y-89744139D01*
X151157813Y-89712451D01*
X151175999Y-89672187D01*
X151187322Y-89618457D01*
X151193222Y-89546374D01*
X151195143Y-89451049D01*
X151195177Y-89432763D01*
X151195200Y-89227354D01*
X151149491Y-89211420D01*
X151117027Y-89200580D01*
X151099215Y-89195532D01*
X151098691Y-89195486D01*
X151096937Y-89209172D01*
X151095444Y-89246924D01*
X151094326Y-89303776D01*
X151093697Y-89374766D01*
X151093600Y-89417927D01*
X151093398Y-89503027D01*
X151092358Y-89564019D01*
X151089831Y-89605823D01*
X151085164Y-89633358D01*
X151077707Y-89651544D01*
X151066811Y-89665302D01*
X151060007Y-89671927D01*
X151013272Y-89698625D01*
X150962272Y-89700625D01*
X150916001Y-89678045D01*
X150907444Y-89669893D01*
X150894893Y-89654564D01*
X150886188Y-89636382D01*
X150880631Y-89610091D01*
X150877526Y-89570438D01*
X150876176Y-89512168D01*
X150875886Y-89431827D01*
X150875886Y-89227354D01*
X150830177Y-89211420D01*
X150797713Y-89200580D01*
X150779901Y-89195532D01*
X150779377Y-89195486D01*
X150778037Y-89209377D01*
X150776828Y-89248561D01*
X150775801Y-89309300D01*
X150775002Y-89387859D01*
X150774481Y-89480502D01*
X150774286Y-89583491D01*
X150774286Y-89980658D01*
X150821457Y-90000556D01*
X150868629Y-90020453D01*
X150875886Y-89898711D01*
G36*
X149668303Y-89818761D02*
G01*
X149725527Y-89780265D01*
X149769749Y-89724665D01*
X149796167Y-89653914D01*
X149801510Y-89601838D01*
X149800903Y-89580107D01*
X149795822Y-89563469D01*
X149781855Y-89548563D01*
X149754589Y-89532027D01*
X149709612Y-89510502D01*
X149642511Y-89480626D01*
X149642171Y-89480476D01*
X149580407Y-89452187D01*
X149529759Y-89427067D01*
X149495404Y-89407821D01*
X149482518Y-89397152D01*
X149482514Y-89397066D01*
X149493872Y-89373834D01*
X149520431Y-89348226D01*
X149550923Y-89329779D01*
X149566370Y-89326114D01*
X149608515Y-89338788D01*
X149644808Y-89370529D01*
X149662517Y-89405428D01*
X149679552Y-89431155D01*
X149712922Y-89460454D01*
X149752149Y-89485765D01*
X149786756Y-89499529D01*
X149793993Y-89500286D01*
X149802139Y-89487840D01*
X149802630Y-89456028D01*
X149796643Y-89413134D01*
X149785357Y-89367442D01*
X149769950Y-89327239D01*
X149769171Y-89325678D01*
X149722804Y-89260938D01*
X149662711Y-89216903D01*
X149594465Y-89195289D01*
X149523638Y-89197815D01*
X149455804Y-89226196D01*
X149452788Y-89228192D01*
X149399427Y-89276552D01*
X149364340Y-89339648D01*
X149344922Y-89422613D01*
X149342316Y-89445922D01*
X149337701Y-89555945D01*
X149343233Y-89607252D01*
X149482514Y-89607252D01*
X149484324Y-89575247D01*
X149494222Y-89565907D01*
X149518898Y-89572895D01*
X149557795Y-89589413D01*
X149601275Y-89610119D01*
X149602356Y-89610667D01*
X149639209Y-89630051D01*
X149654000Y-89642987D01*
X149650353Y-89656549D01*
X149634995Y-89674368D01*
X149595923Y-89700155D01*
X149553846Y-89702050D01*
X149516103Y-89683283D01*
X149490034Y-89647085D01*
X149482514Y-89607252D01*
X149343233Y-89607252D01*
X149347194Y-89643973D01*
X149371550Y-89713788D01*
X149405456Y-89762698D01*
X149466653Y-89812122D01*
X149534063Y-89836641D01*
X149602880Y-89838203D01*
X149668303Y-89818761D01*
G37*
X149668303Y-89818761D02*
X149725527Y-89780265D01*
X149769749Y-89724665D01*
X149796167Y-89653914D01*
X149801510Y-89601838D01*
X149800903Y-89580107D01*
X149795822Y-89563469D01*
X149781855Y-89548563D01*
X149754589Y-89532027D01*
X149709612Y-89510502D01*
X149642511Y-89480626D01*
X149642171Y-89480476D01*
X149580407Y-89452187D01*
X149529759Y-89427067D01*
X149495404Y-89407821D01*
X149482518Y-89397152D01*
X149482514Y-89397066D01*
X149493872Y-89373834D01*
X149520431Y-89348226D01*
X149550923Y-89329779D01*
X149566370Y-89326114D01*
X149608515Y-89338788D01*
X149644808Y-89370529D01*
X149662517Y-89405428D01*
X149679552Y-89431155D01*
X149712922Y-89460454D01*
X149752149Y-89485765D01*
X149786756Y-89499529D01*
X149793993Y-89500286D01*
X149802139Y-89487840D01*
X149802630Y-89456028D01*
X149796643Y-89413134D01*
X149785357Y-89367442D01*
X149769950Y-89327239D01*
X149769171Y-89325678D01*
X149722804Y-89260938D01*
X149662711Y-89216903D01*
X149594465Y-89195289D01*
X149523638Y-89197815D01*
X149455804Y-89226196D01*
X149452788Y-89228192D01*
X149399427Y-89276552D01*
X149364340Y-89339648D01*
X149344922Y-89422613D01*
X149342316Y-89445922D01*
X149337701Y-89555945D01*
X149343233Y-89607252D01*
X149482514Y-89607252D01*
X149484324Y-89575247D01*
X149494222Y-89565907D01*
X149518898Y-89572895D01*
X149557795Y-89589413D01*
X149601275Y-89610119D01*
X149602356Y-89610667D01*
X149639209Y-89630051D01*
X149654000Y-89642987D01*
X149650353Y-89656549D01*
X149634995Y-89674368D01*
X149595923Y-89700155D01*
X149553846Y-89702050D01*
X149516103Y-89683283D01*
X149490034Y-89647085D01*
X149482514Y-89607252D01*
X149343233Y-89607252D01*
X149347194Y-89643973D01*
X149371550Y-89713788D01*
X149405456Y-89762698D01*
X149466653Y-89812122D01*
X149534063Y-89836641D01*
X149602880Y-89838203D01*
X149668303Y-89818761D01*
G36*
X148541115Y-89828038D02*
G01*
X148609145Y-89792267D01*
X148659351Y-89734699D01*
X148677185Y-89697688D01*
X148691063Y-89642118D01*
X148698167Y-89571904D01*
X148698840Y-89495273D01*
X148693427Y-89420448D01*
X148682270Y-89355658D01*
X148665714Y-89309127D01*
X148660626Y-89301113D01*
X148600355Y-89241293D01*
X148528769Y-89205465D01*
X148451092Y-89194980D01*
X148372548Y-89211190D01*
X148350689Y-89220908D01*
X148308122Y-89250857D01*
X148270763Y-89290567D01*
X148267232Y-89295603D01*
X148252881Y-89319876D01*
X148243394Y-89345822D01*
X148237790Y-89379978D01*
X148235086Y-89428881D01*
X148234299Y-89499065D01*
X148234286Y-89514800D01*
X148234322Y-89519808D01*
X148379429Y-89519808D01*
X148380273Y-89453570D01*
X148383596Y-89409614D01*
X148390583Y-89381221D01*
X148402416Y-89361675D01*
X148408457Y-89355143D01*
X148443186Y-89330320D01*
X148476903Y-89331452D01*
X148510995Y-89352984D01*
X148531329Y-89375971D01*
X148543371Y-89409522D01*
X148550134Y-89462431D01*
X148550598Y-89468601D01*
X148551752Y-89564487D01*
X148539688Y-89635701D01*
X148514570Y-89681806D01*
X148476560Y-89702365D01*
X148462992Y-89703486D01*
X148427364Y-89697848D01*
X148402994Y-89678314D01*
X148388093Y-89640958D01*
X148380875Y-89581850D01*
X148379429Y-89519808D01*
X148234322Y-89519808D01*
X148234826Y-89589587D01*
X148237096Y-89641841D01*
X148242068Y-89678051D01*
X148250713Y-89704701D01*
X148264005Y-89728278D01*
X148266943Y-89732662D01*
X148316313Y-89791751D01*
X148370109Y-89826053D01*
X148435602Y-89839669D01*
X148457842Y-89840335D01*
X148541115Y-89828038D01*
G37*
X148541115Y-89828038D02*
X148609145Y-89792267D01*
X148659351Y-89734699D01*
X148677185Y-89697688D01*
X148691063Y-89642118D01*
X148698167Y-89571904D01*
X148698840Y-89495273D01*
X148693427Y-89420448D01*
X148682270Y-89355658D01*
X148665714Y-89309127D01*
X148660626Y-89301113D01*
X148600355Y-89241293D01*
X148528769Y-89205465D01*
X148451092Y-89194980D01*
X148372548Y-89211190D01*
X148350689Y-89220908D01*
X148308122Y-89250857D01*
X148270763Y-89290567D01*
X148267232Y-89295603D01*
X148252881Y-89319876D01*
X148243394Y-89345822D01*
X148237790Y-89379978D01*
X148235086Y-89428881D01*
X148234299Y-89499065D01*
X148234286Y-89514800D01*
X148234322Y-89519808D01*
X148379429Y-89519808D01*
X148380273Y-89453570D01*
X148383596Y-89409614D01*
X148390583Y-89381221D01*
X148402416Y-89361675D01*
X148408457Y-89355143D01*
X148443186Y-89330320D01*
X148476903Y-89331452D01*
X148510995Y-89352984D01*
X148531329Y-89375971D01*
X148543371Y-89409522D01*
X148550134Y-89462431D01*
X148550598Y-89468601D01*
X148551752Y-89564487D01*
X148539688Y-89635701D01*
X148514570Y-89681806D01*
X148476560Y-89702365D01*
X148462992Y-89703486D01*
X148427364Y-89697848D01*
X148402994Y-89678314D01*
X148388093Y-89640958D01*
X148380875Y-89581850D01*
X148379429Y-89519808D01*
X148234322Y-89519808D01*
X148234826Y-89589587D01*
X148237096Y-89641841D01*
X148242068Y-89678051D01*
X148250713Y-89704701D01*
X148264005Y-89728278D01*
X148266943Y-89732662D01*
X148316313Y-89791751D01*
X148370109Y-89826053D01*
X148435602Y-89839669D01*
X148457842Y-89840335D01*
X148541115Y-89828038D01*
G36*
X150216093Y-89822220D02*
G01*
X150262672Y-89795277D01*
X150295057Y-89768534D01*
X150318742Y-89740516D01*
X150335059Y-89706252D01*
X150345339Y-89660773D01*
X150350914Y-89599108D01*
X150353116Y-89516289D01*
X150353371Y-89456754D01*
X150353371Y-89237609D01*
X150291686Y-89209956D01*
X150230000Y-89182303D01*
X150222743Y-89422330D01*
X150219744Y-89511972D01*
X150216598Y-89577038D01*
X150212701Y-89621974D01*
X150207447Y-89651230D01*
X150200231Y-89669252D01*
X150190450Y-89680489D01*
X150187312Y-89682921D01*
X150139761Y-89701917D01*
X150091697Y-89694400D01*
X150063086Y-89674457D01*
X150051447Y-89660325D01*
X150043391Y-89641780D01*
X150038271Y-89613666D01*
X150035441Y-89570827D01*
X150034256Y-89508105D01*
X150034057Y-89442739D01*
X150034018Y-89360732D01*
X150032614Y-89302684D01*
X150027914Y-89263535D01*
X150017987Y-89238220D01*
X150000903Y-89221677D01*
X149974732Y-89208844D01*
X149939775Y-89195509D01*
X149901596Y-89180993D01*
X149906141Y-89438611D01*
X149907971Y-89531481D01*
X149910112Y-89600111D01*
X149913181Y-89649289D01*
X149917794Y-89683802D01*
X149924568Y-89708438D01*
X149934119Y-89727984D01*
X149945634Y-89745230D01*
X150001190Y-89800320D01*
X150068980Y-89832178D01*
X150142713Y-89839809D01*
X150216093Y-89822220D01*
G37*
X150216093Y-89822220D02*
X150262672Y-89795277D01*
X150295057Y-89768534D01*
X150318742Y-89740516D01*
X150335059Y-89706252D01*
X150345339Y-89660773D01*
X150350914Y-89599108D01*
X150353116Y-89516289D01*
X150353371Y-89456754D01*
X150353371Y-89237609D01*
X150291686Y-89209956D01*
X150230000Y-89182303D01*
X150222743Y-89422330D01*
X150219744Y-89511972D01*
X150216598Y-89577038D01*
X150212701Y-89621974D01*
X150207447Y-89651230D01*
X150200231Y-89669252D01*
X150190450Y-89680489D01*
X150187312Y-89682921D01*
X150139761Y-89701917D01*
X150091697Y-89694400D01*
X150063086Y-89674457D01*
X150051447Y-89660325D01*
X150043391Y-89641780D01*
X150038271Y-89613666D01*
X150035441Y-89570827D01*
X150034256Y-89508105D01*
X150034057Y-89442739D01*
X150034018Y-89360732D01*
X150032614Y-89302684D01*
X150027914Y-89263535D01*
X150017987Y-89238220D01*
X150000903Y-89221677D01*
X149974732Y-89208844D01*
X149939775Y-89195509D01*
X149901596Y-89180993D01*
X149906141Y-89438611D01*
X149907971Y-89531481D01*
X149910112Y-89600111D01*
X149913181Y-89649289D01*
X149917794Y-89683802D01*
X149924568Y-89708438D01*
X149934119Y-89727984D01*
X149945634Y-89745230D01*
X150001190Y-89800320D01*
X150068980Y-89832178D01*
X150142713Y-89839809D01*
X150216093Y-89822220D01*
G36*
X149099744Y-89830082D02*
G01*
X149155201Y-89802432D01*
X149204148Y-89751520D01*
X149217629Y-89732662D01*
X149232314Y-89707985D01*
X149241842Y-89681184D01*
X149247293Y-89645413D01*
X149249747Y-89593831D01*
X149250286Y-89525733D01*
X149247852Y-89432412D01*
X149239394Y-89362343D01*
X149223174Y-89310069D01*
X149197454Y-89270131D01*
X149160497Y-89237071D01*
X149157782Y-89235114D01*
X149121360Y-89215092D01*
X149077502Y-89205185D01*
X149021724Y-89202743D01*
X148931048Y-89202743D01*
X148931010Y-89114717D01*
X148930166Y-89065692D01*
X148925024Y-89036935D01*
X148911587Y-89019689D01*
X148885858Y-89005192D01*
X148879679Y-89002231D01*
X148850764Y-88988352D01*
X148828376Y-88979586D01*
X148811729Y-88978829D01*
X148800036Y-88988977D01*
X148792510Y-89012927D01*
X148788366Y-89053574D01*
X148786815Y-89113814D01*
X148787071Y-89196545D01*
X148788349Y-89304661D01*
X148788748Y-89337000D01*
X148790185Y-89448476D01*
X148791472Y-89521397D01*
X148930971Y-89521397D01*
X148931755Y-89459501D01*
X148935240Y-89419003D01*
X148943124Y-89392292D01*
X148957105Y-89371756D01*
X148966597Y-89361740D01*
X149005404Y-89332433D01*
X149039763Y-89330048D01*
X149075216Y-89354250D01*
X149076114Y-89355143D01*
X149090539Y-89373847D01*
X149099313Y-89399268D01*
X149103739Y-89438416D01*
X149105118Y-89498303D01*
X149105143Y-89511570D01*
X149101812Y-89594099D01*
X149090969Y-89651309D01*
X149071340Y-89686234D01*
X149041650Y-89701906D01*
X149024491Y-89703486D01*
X148983766Y-89696074D01*
X148955832Y-89671670D01*
X148939017Y-89627020D01*
X148931650Y-89558870D01*
X148930971Y-89521397D01*
X148791472Y-89521397D01*
X148791708Y-89534755D01*
X148793677Y-89599667D01*
X148796450Y-89647042D01*
X148800388Y-89680710D01*
X148805849Y-89704502D01*
X148813192Y-89722247D01*
X148822777Y-89737776D01*
X148826887Y-89743619D01*
X148881405Y-89798815D01*
X148950336Y-89830110D01*
X149030072Y-89838835D01*
X149099744Y-89830082D01*
G37*
X149099744Y-89830082D02*
X149155201Y-89802432D01*
X149204148Y-89751520D01*
X149217629Y-89732662D01*
X149232314Y-89707985D01*
X149241842Y-89681184D01*
X149247293Y-89645413D01*
X149249747Y-89593831D01*
X149250286Y-89525733D01*
X149247852Y-89432412D01*
X149239394Y-89362343D01*
X149223174Y-89310069D01*
X149197454Y-89270131D01*
X149160497Y-89237071D01*
X149157782Y-89235114D01*
X149121360Y-89215092D01*
X149077502Y-89205185D01*
X149021724Y-89202743D01*
X148931048Y-89202743D01*
X148931010Y-89114717D01*
X148930166Y-89065692D01*
X148925024Y-89036935D01*
X148911587Y-89019689D01*
X148885858Y-89005192D01*
X148879679Y-89002231D01*
X148850764Y-88988352D01*
X148828376Y-88979586D01*
X148811729Y-88978829D01*
X148800036Y-88988977D01*
X148792510Y-89012927D01*
X148788366Y-89053574D01*
X148786815Y-89113814D01*
X148787071Y-89196545D01*
X148788349Y-89304661D01*
X148788748Y-89337000D01*
X148790185Y-89448476D01*
X148791472Y-89521397D01*
X148930971Y-89521397D01*
X148931755Y-89459501D01*
X148935240Y-89419003D01*
X148943124Y-89392292D01*
X148957105Y-89371756D01*
X148966597Y-89361740D01*
X149005404Y-89332433D01*
X149039763Y-89330048D01*
X149075216Y-89354250D01*
X149076114Y-89355143D01*
X149090539Y-89373847D01*
X149099313Y-89399268D01*
X149103739Y-89438416D01*
X149105118Y-89498303D01*
X149105143Y-89511570D01*
X149101812Y-89594099D01*
X149090969Y-89651309D01*
X149071340Y-89686234D01*
X149041650Y-89701906D01*
X149024491Y-89703486D01*
X148983766Y-89696074D01*
X148955832Y-89671670D01*
X148939017Y-89627020D01*
X148931650Y-89558870D01*
X148930971Y-89521397D01*
X148791472Y-89521397D01*
X148791708Y-89534755D01*
X148793677Y-89599667D01*
X148796450Y-89647042D01*
X148800388Y-89680710D01*
X148805849Y-89704502D01*
X148813192Y-89722247D01*
X148822777Y-89737776D01*
X148826887Y-89743619D01*
X148881405Y-89798815D01*
X148950336Y-89830110D01*
X149030072Y-89838835D01*
X149099744Y-89830082D01*
G36*
X135729566Y-93712979D02*
G01*
X135822770Y-93671183D01*
X135891089Y-93609330D01*
X135901669Y-93593241D01*
X135920656Y-93550801D01*
X135947550Y-93477570D01*
X135978887Y-93383533D01*
X136011206Y-93278678D01*
X136013765Y-93270000D01*
X136049540Y-93151911D01*
X136080336Y-93066275D01*
X136112268Y-93004692D01*
X136151450Y-92958762D01*
X136203997Y-92920082D01*
X136276022Y-92880253D01*
X136310041Y-92862933D01*
X136476866Y-92760268D01*
X136609432Y-92638937D01*
X136705645Y-92501410D01*
X136763410Y-92350160D01*
X136769760Y-92320633D01*
X136774182Y-92273887D01*
X136777584Y-92187704D01*
X136780014Y-92064966D01*
X136781519Y-91908557D01*
X136782144Y-91721357D01*
X136781938Y-91506251D01*
X136780946Y-91266122D01*
X136779217Y-91003850D01*
X136776796Y-90722320D01*
X136773731Y-90424414D01*
X136770069Y-90113014D01*
X136765856Y-89791004D01*
X136761139Y-89461265D01*
X136755966Y-89126681D01*
X136750383Y-88790134D01*
X136744437Y-88454507D01*
X136738175Y-88122682D01*
X136731645Y-87797542D01*
X136724891Y-87481969D01*
X136717963Y-87178847D01*
X136710906Y-86891058D01*
X136703768Y-86621485D01*
X136696595Y-86373010D01*
X136689435Y-86148516D01*
X136682334Y-85950885D01*
X136675339Y-85783000D01*
X136668497Y-85647744D01*
X136661855Y-85548000D01*
X136659054Y-85516569D01*
X136627381Y-85284273D01*
X136580549Y-85088616D01*
X136515333Y-84926487D01*
X136428509Y-84794779D01*
X136316851Y-84690380D01*
X136177134Y-84610182D01*
X136006132Y-84551075D01*
X135800621Y-84509949D01*
X135590477Y-84486313D01*
X135509607Y-84481643D01*
X135392220Y-84477683D01*
X135244123Y-84474430D01*
X135071126Y-84471881D01*
X134879038Y-84470035D01*
X134673668Y-84468889D01*
X134460825Y-84468441D01*
X134246318Y-84468687D01*
X134035956Y-84469625D01*
X133835547Y-84471253D01*
X133650902Y-84473568D01*
X133487829Y-84476568D01*
X133352137Y-84480250D01*
X133249636Y-84484612D01*
X133208968Y-84487345D01*
X132964698Y-84518035D01*
X132756721Y-84567258D01*
X132582716Y-84636192D01*
X132440361Y-84726019D01*
X132327336Y-84837917D01*
X132241320Y-84973067D01*
X132237255Y-84981346D01*
X132197280Y-85082831D01*
X132158932Y-85214800D01*
X132125055Y-85365420D01*
X132098496Y-85522858D01*
X132089213Y-85597083D01*
X132083355Y-85671830D01*
X132077655Y-85785635D01*
X132072144Y-85935223D01*
X132066854Y-86117319D01*
X132061818Y-86328648D01*
X132057066Y-86565934D01*
X132052631Y-86825904D01*
X132048544Y-87105280D01*
X132044838Y-87400789D01*
X132041543Y-87709156D01*
X132038691Y-88027104D01*
X132036315Y-88351360D01*
X132034445Y-88678648D01*
X132033115Y-89005694D01*
X132032354Y-89329221D01*
X132032196Y-89645954D01*
X132032672Y-89952620D01*
X132033814Y-90245942D01*
X132035652Y-90522646D01*
X132038220Y-90779457D01*
X132038653Y-90814666D01*
X132051316Y-91820083D01*
X132737983Y-91820083D01*
X132752871Y-90497166D01*
X132756028Y-90224746D01*
X132758978Y-89991440D01*
X132761840Y-89794031D01*
X132764731Y-89629300D01*
X132767767Y-89494030D01*
X132771065Y-89385003D01*
X132774743Y-89299000D01*
X132778918Y-89232805D01*
X132783706Y-89183200D01*
X132789224Y-89146966D01*
X132795590Y-89120885D01*
X132802921Y-89101740D01*
X132803672Y-89100166D01*
X132859499Y-89030106D01*
X132954811Y-88969305D01*
X133090042Y-88917618D01*
X133265628Y-88874896D01*
X133482002Y-88840993D01*
X133612167Y-88826666D01*
X133710792Y-88819941D01*
X133842056Y-88815177D01*
X133999187Y-88812275D01*
X134175411Y-88811135D01*
X134363955Y-88811655D01*
X134558049Y-88813737D01*
X134750918Y-88817280D01*
X134935790Y-88822183D01*
X135105893Y-88828346D01*
X135254454Y-88835670D01*
X135374701Y-88844053D01*
X135459861Y-88853396D01*
X135464250Y-88854071D01*
X135565030Y-88870985D01*
X135659784Y-88888676D01*
X135734311Y-88904415D01*
X135760584Y-88910986D01*
X135852144Y-88944301D01*
X135937294Y-88988972D01*
X136004976Y-89038068D01*
X136044137Y-89084657D01*
X136046601Y-89090287D01*
X136051422Y-89123384D01*
X136056065Y-89193977D01*
X136060492Y-89297665D01*
X136064665Y-89430047D01*
X136068546Y-89586721D01*
X136072098Y-89763284D01*
X136075283Y-89955337D01*
X136078062Y-90158476D01*
X136080399Y-90368301D01*
X136082255Y-90580410D01*
X136083593Y-90790401D01*
X136084374Y-90993873D01*
X136084561Y-91186424D01*
X136084116Y-91363652D01*
X136083001Y-91521156D01*
X136081179Y-91654534D01*
X136078611Y-91759385D01*
X136075260Y-91831308D01*
X136071088Y-91865899D01*
X136070462Y-91867465D01*
X136029152Y-91913848D01*
X135958189Y-91963857D01*
X135869000Y-92010890D01*
X135773011Y-92048348D01*
X135741374Y-92057592D01*
X135594151Y-92088721D01*
X135411752Y-92114710D01*
X135201033Y-92135457D01*
X134968851Y-92150859D01*
X134722062Y-92160813D01*
X134467522Y-92165218D01*
X134212089Y-92163969D01*
X133962617Y-92156966D01*
X133725964Y-92144105D01*
X133508987Y-92125283D01*
X133318541Y-92100398D01*
X133282527Y-92094387D01*
X133121862Y-92057816D01*
X132982196Y-92008986D01*
X132870567Y-91950898D01*
X132794011Y-91886556D01*
X132793190Y-91885587D01*
X132737983Y-91820083D01*
X132051316Y-91820083D01*
X132057982Y-92349250D01*
X132109180Y-92455083D01*
X132192949Y-92585970D01*
X132311134Y-92709496D01*
X132455818Y-92818359D01*
X132575838Y-92885451D01*
X132688095Y-92934760D01*
X132807961Y-92976776D01*
X132939530Y-93012021D01*
X133086893Y-93041019D01*
X133254145Y-93064294D01*
X133445379Y-93082367D01*
X133664688Y-93095763D01*
X133916165Y-93105004D01*
X134203904Y-93110613D01*
X134349437Y-93112117D01*
X134525433Y-93113704D01*
X134687586Y-93115526D01*
X134831144Y-93117502D01*
X134951357Y-93119552D01*
X135043476Y-93121593D01*
X135102750Y-93123546D01*
X135124426Y-93125325D01*
X135133097Y-93147123D01*
X135151859Y-93200493D01*
X135177710Y-93276750D01*
X135200058Y-93344083D01*
X135240254Y-93461730D01*
X135273925Y-93546221D01*
X135305745Y-93605223D01*
X135340390Y-93646405D01*
X135382534Y-93677435D01*
X135413724Y-93694552D01*
X135513734Y-93727012D01*
X135622784Y-93732372D01*
X135729566Y-93712979D01*
G37*
X135729566Y-93712979D02*
X135822770Y-93671183D01*
X135891089Y-93609330D01*
X135901669Y-93593241D01*
X135920656Y-93550801D01*
X135947550Y-93477570D01*
X135978887Y-93383533D01*
X136011206Y-93278678D01*
X136013765Y-93270000D01*
X136049540Y-93151911D01*
X136080336Y-93066275D01*
X136112268Y-93004692D01*
X136151450Y-92958762D01*
X136203997Y-92920082D01*
X136276022Y-92880253D01*
X136310041Y-92862933D01*
X136476866Y-92760268D01*
X136609432Y-92638937D01*
X136705645Y-92501410D01*
X136763410Y-92350160D01*
X136769760Y-92320633D01*
X136774182Y-92273887D01*
X136777584Y-92187704D01*
X136780014Y-92064966D01*
X136781519Y-91908557D01*
X136782144Y-91721357D01*
X136781938Y-91506251D01*
X136780946Y-91266122D01*
X136779217Y-91003850D01*
X136776796Y-90722320D01*
X136773731Y-90424414D01*
X136770069Y-90113014D01*
X136765856Y-89791004D01*
X136761139Y-89461265D01*
X136755966Y-89126681D01*
X136750383Y-88790134D01*
X136744437Y-88454507D01*
X136738175Y-88122682D01*
X136731645Y-87797542D01*
X136724891Y-87481969D01*
X136717963Y-87178847D01*
X136710906Y-86891058D01*
X136703768Y-86621485D01*
X136696595Y-86373010D01*
X136689435Y-86148516D01*
X136682334Y-85950885D01*
X136675339Y-85783000D01*
X136668497Y-85647744D01*
X136661855Y-85548000D01*
X136659054Y-85516569D01*
X136627381Y-85284273D01*
X136580549Y-85088616D01*
X136515333Y-84926487D01*
X136428509Y-84794779D01*
X136316851Y-84690380D01*
X136177134Y-84610182D01*
X136006132Y-84551075D01*
X135800621Y-84509949D01*
X135590477Y-84486313D01*
X135509607Y-84481643D01*
X135392220Y-84477683D01*
X135244123Y-84474430D01*
X135071126Y-84471881D01*
X134879038Y-84470035D01*
X134673668Y-84468889D01*
X134460825Y-84468441D01*
X134246318Y-84468687D01*
X134035956Y-84469625D01*
X133835547Y-84471253D01*
X133650902Y-84473568D01*
X133487829Y-84476568D01*
X133352137Y-84480250D01*
X133249636Y-84484612D01*
X133208968Y-84487345D01*
X132964698Y-84518035D01*
X132756721Y-84567258D01*
X132582716Y-84636192D01*
X132440361Y-84726019D01*
X132327336Y-84837917D01*
X132241320Y-84973067D01*
X132237255Y-84981346D01*
X132197280Y-85082831D01*
X132158932Y-85214800D01*
X132125055Y-85365420D01*
X132098496Y-85522858D01*
X132089213Y-85597083D01*
X132083355Y-85671830D01*
X132077655Y-85785635D01*
X132072144Y-85935223D01*
X132066854Y-86117319D01*
X132061818Y-86328648D01*
X132057066Y-86565934D01*
X132052631Y-86825904D01*
X132048544Y-87105280D01*
X132044838Y-87400789D01*
X132041543Y-87709156D01*
X132038691Y-88027104D01*
X132036315Y-88351360D01*
X132034445Y-88678648D01*
X132033115Y-89005694D01*
X132032354Y-89329221D01*
X132032196Y-89645954D01*
X132032672Y-89952620D01*
X132033814Y-90245942D01*
X132035652Y-90522646D01*
X132038220Y-90779457D01*
X132038653Y-90814666D01*
X132051316Y-91820083D01*
X132737983Y-91820083D01*
X132752871Y-90497166D01*
X132756028Y-90224746D01*
X132758978Y-89991440D01*
X132761840Y-89794031D01*
X132764731Y-89629300D01*
X132767767Y-89494030D01*
X132771065Y-89385003D01*
X132774743Y-89299000D01*
X132778918Y-89232805D01*
X132783706Y-89183200D01*
X132789224Y-89146966D01*
X132795590Y-89120885D01*
X132802921Y-89101740D01*
X132803672Y-89100166D01*
X132859499Y-89030106D01*
X132954811Y-88969305D01*
X133090042Y-88917618D01*
X133265628Y-88874896D01*
X133482002Y-88840993D01*
X133612167Y-88826666D01*
X133710792Y-88819941D01*
X133842056Y-88815177D01*
X133999187Y-88812275D01*
X134175411Y-88811135D01*
X134363955Y-88811655D01*
X134558049Y-88813737D01*
X134750918Y-88817280D01*
X134935790Y-88822183D01*
X135105893Y-88828346D01*
X135254454Y-88835670D01*
X135374701Y-88844053D01*
X135459861Y-88853396D01*
X135464250Y-88854071D01*
X135565030Y-88870985D01*
X135659784Y-88888676D01*
X135734311Y-88904415D01*
X135760584Y-88910986D01*
X135852144Y-88944301D01*
X135937294Y-88988972D01*
X136004976Y-89038068D01*
X136044137Y-89084657D01*
X136046601Y-89090287D01*
X136051422Y-89123384D01*
X136056065Y-89193977D01*
X136060492Y-89297665D01*
X136064665Y-89430047D01*
X136068546Y-89586721D01*
X136072098Y-89763284D01*
X136075283Y-89955337D01*
X136078062Y-90158476D01*
X136080399Y-90368301D01*
X136082255Y-90580410D01*
X136083593Y-90790401D01*
X136084374Y-90993873D01*
X136084561Y-91186424D01*
X136084116Y-91363652D01*
X136083001Y-91521156D01*
X136081179Y-91654534D01*
X136078611Y-91759385D01*
X136075260Y-91831308D01*
X136071088Y-91865899D01*
X136070462Y-91867465D01*
X136029152Y-91913848D01*
X135958189Y-91963857D01*
X135869000Y-92010890D01*
X135773011Y-92048348D01*
X135741374Y-92057592D01*
X135594151Y-92088721D01*
X135411752Y-92114710D01*
X135201033Y-92135457D01*
X134968851Y-92150859D01*
X134722062Y-92160813D01*
X134467522Y-92165218D01*
X134212089Y-92163969D01*
X133962617Y-92156966D01*
X133725964Y-92144105D01*
X133508987Y-92125283D01*
X133318541Y-92100398D01*
X133282527Y-92094387D01*
X133121862Y-92057816D01*
X132982196Y-92008986D01*
X132870567Y-91950898D01*
X132794011Y-91886556D01*
X132793190Y-91885587D01*
X132737983Y-91820083D01*
X132051316Y-91820083D01*
X132057982Y-92349250D01*
X132109180Y-92455083D01*
X132192949Y-92585970D01*
X132311134Y-92709496D01*
X132455818Y-92818359D01*
X132575838Y-92885451D01*
X132688095Y-92934760D01*
X132807961Y-92976776D01*
X132939530Y-93012021D01*
X133086893Y-93041019D01*
X133254145Y-93064294D01*
X133445379Y-93082367D01*
X133664688Y-93095763D01*
X133916165Y-93105004D01*
X134203904Y-93110613D01*
X134349437Y-93112117D01*
X134525433Y-93113704D01*
X134687586Y-93115526D01*
X134831144Y-93117502D01*
X134951357Y-93119552D01*
X135043476Y-93121593D01*
X135102750Y-93123546D01*
X135124426Y-93125325D01*
X135133097Y-93147123D01*
X135151859Y-93200493D01*
X135177710Y-93276750D01*
X135200058Y-93344083D01*
X135240254Y-93461730D01*
X135273925Y-93546221D01*
X135305745Y-93605223D01*
X135340390Y-93646405D01*
X135382534Y-93677435D01*
X135413724Y-93694552D01*
X135513734Y-93727012D01*
X135622784Y-93732372D01*
X135729566Y-93712979D01*
G36*
X136544979Y-95873329D02*
G01*
X136586084Y-95870396D01*
X136902095Y-95825419D01*
X137205115Y-95740472D01*
X137493249Y-95616435D01*
X137764606Y-95454189D01*
X138017292Y-95254616D01*
X138121898Y-95155379D01*
X138337208Y-94911713D01*
X138514012Y-94650476D01*
X138652443Y-94371395D01*
X138752634Y-94074197D01*
X138814716Y-93758609D01*
X138820076Y-93715520D01*
X138833837Y-93539148D01*
X138829539Y-93397049D01*
X138806791Y-93285027D01*
X138772826Y-93210600D01*
X138695099Y-93122744D01*
X138592161Y-93060605D01*
X138475524Y-93028831D01*
X138356696Y-93032071D01*
X138339915Y-93035736D01*
X138240434Y-93069980D01*
X138162583Y-93121514D01*
X138103039Y-93195532D01*
X138058480Y-93297224D01*
X138025583Y-93431781D01*
X138006682Y-93556465D01*
X137989926Y-93670698D01*
X137969179Y-93783590D01*
X137947342Y-93880559D01*
X137931077Y-93936750D01*
X137825491Y-94180614D01*
X137687136Y-94399846D01*
X137519106Y-94591964D01*
X137324498Y-94754487D01*
X137106405Y-94884935D01*
X136867923Y-94980825D01*
X136612146Y-95039677D01*
X136544394Y-95048474D01*
X136450613Y-95059370D01*
X136365814Y-95070264D01*
X136303981Y-95079324D01*
X136289750Y-95081840D01*
X136178851Y-95122729D01*
X136090725Y-95193007D01*
X136027494Y-95285106D01*
X135991282Y-95391459D01*
X135984212Y-95504499D01*
X136008408Y-95616659D01*
X136065994Y-95720371D01*
X136099810Y-95758757D01*
X136163006Y-95813197D01*
X136230423Y-95849878D01*
X136310759Y-95870795D01*
X136412711Y-95877947D01*
X136544979Y-95873329D01*
G37*
X136544979Y-95873329D02*
X136586084Y-95870396D01*
X136902095Y-95825419D01*
X137205115Y-95740472D01*
X137493249Y-95616435D01*
X137764606Y-95454189D01*
X138017292Y-95254616D01*
X138121898Y-95155379D01*
X138337208Y-94911713D01*
X138514012Y-94650476D01*
X138652443Y-94371395D01*
X138752634Y-94074197D01*
X138814716Y-93758609D01*
X138820076Y-93715520D01*
X138833837Y-93539148D01*
X138829539Y-93397049D01*
X138806791Y-93285027D01*
X138772826Y-93210600D01*
X138695099Y-93122744D01*
X138592161Y-93060605D01*
X138475524Y-93028831D01*
X138356696Y-93032071D01*
X138339915Y-93035736D01*
X138240434Y-93069980D01*
X138162583Y-93121514D01*
X138103039Y-93195532D01*
X138058480Y-93297224D01*
X138025583Y-93431781D01*
X138006682Y-93556465D01*
X137989926Y-93670698D01*
X137969179Y-93783590D01*
X137947342Y-93880559D01*
X137931077Y-93936750D01*
X137825491Y-94180614D01*
X137687136Y-94399846D01*
X137519106Y-94591964D01*
X137324498Y-94754487D01*
X137106405Y-94884935D01*
X136867923Y-94980825D01*
X136612146Y-95039677D01*
X136544394Y-95048474D01*
X136450613Y-95059370D01*
X136365814Y-95070264D01*
X136303981Y-95079324D01*
X136289750Y-95081840D01*
X136178851Y-95122729D01*
X136090725Y-95193007D01*
X136027494Y-95285106D01*
X135991282Y-95391459D01*
X135984212Y-95504499D01*
X136008408Y-95616659D01*
X136065994Y-95720371D01*
X136099810Y-95758757D01*
X136163006Y-95813197D01*
X136230423Y-95849878D01*
X136310759Y-95870795D01*
X136412711Y-95877947D01*
X136544979Y-95873329D01*
G36*
X136625956Y-97923401D02*
G01*
X136802938Y-97911379D01*
X136992751Y-97889552D01*
X137189801Y-97858221D01*
X137388494Y-97817683D01*
X137475084Y-97796986D01*
X137893783Y-97670791D01*
X138293426Y-97507362D01*
X138672303Y-97308082D01*
X139028704Y-97074334D01*
X139360919Y-96807499D01*
X139667237Y-96508960D01*
X139945948Y-96180101D01*
X140195343Y-95822303D01*
X140413710Y-95436949D01*
X140427062Y-95410434D01*
X140561550Y-95106431D01*
X140675820Y-94776988D01*
X140767011Y-94433684D01*
X140832263Y-94088101D01*
X140868715Y-93751819D01*
X140875154Y-93596394D01*
X140876264Y-93483896D01*
X140874163Y-93403380D01*
X140867588Y-93344540D01*
X140855273Y-93297069D01*
X140835954Y-93250662D01*
X140831599Y-93241553D01*
X140764110Y-93147963D01*
X140668908Y-93077765D01*
X140556199Y-93035532D01*
X140436190Y-93025834D01*
X140372053Y-93035708D01*
X140268570Y-93080800D01*
X140176726Y-93157720D01*
X140130461Y-93218764D01*
X140110926Y-93257147D01*
X140095279Y-93306308D01*
X140082078Y-93373860D01*
X140069882Y-93467414D01*
X140057249Y-93594585D01*
X140055386Y-93615260D01*
X140039818Y-93781119D01*
X140025127Y-93915200D01*
X140009689Y-94027984D01*
X139991880Y-94129953D01*
X139970076Y-94231586D01*
X139942653Y-94343367D01*
X139942448Y-94344167D01*
X139826867Y-94712395D01*
X139674222Y-95063174D01*
X139486959Y-95394176D01*
X139267527Y-95703075D01*
X139018372Y-95987545D01*
X138741943Y-96245260D01*
X138440687Y-96473893D01*
X138117051Y-96671117D01*
X137773483Y-96834607D01*
X137412431Y-96962036D01*
X137109136Y-97037163D01*
X136997553Y-97056691D01*
X136862096Y-97075903D01*
X136721176Y-97092386D01*
X136611720Y-97102382D01*
X136464710Y-97114830D01*
X136352813Y-97128081D01*
X136268822Y-97144054D01*
X136205531Y-97164665D01*
X136155733Y-97191832D01*
X136112221Y-97227472D01*
X136101202Y-97238209D01*
X136027425Y-97336858D01*
X135990836Y-97450484D01*
X135989226Y-97580318D01*
X136018702Y-97701725D01*
X136082015Y-97800770D01*
X136158193Y-97867458D01*
X136227922Y-97897647D01*
X136332854Y-97916834D01*
X136467396Y-97925319D01*
X136625956Y-97923401D01*
G37*
X136625956Y-97923401D02*
X136802938Y-97911379D01*
X136992751Y-97889552D01*
X137189801Y-97858221D01*
X137388494Y-97817683D01*
X137475084Y-97796986D01*
X137893783Y-97670791D01*
X138293426Y-97507362D01*
X138672303Y-97308082D01*
X139028704Y-97074334D01*
X139360919Y-96807499D01*
X139667237Y-96508960D01*
X139945948Y-96180101D01*
X140195343Y-95822303D01*
X140413710Y-95436949D01*
X140427062Y-95410434D01*
X140561550Y-95106431D01*
X140675820Y-94776988D01*
X140767011Y-94433684D01*
X140832263Y-94088101D01*
X140868715Y-93751819D01*
X140875154Y-93596394D01*
X140876264Y-93483896D01*
X140874163Y-93403380D01*
X140867588Y-93344540D01*
X140855273Y-93297069D01*
X140835954Y-93250662D01*
X140831599Y-93241553D01*
X140764110Y-93147963D01*
X140668908Y-93077765D01*
X140556199Y-93035532D01*
X140436190Y-93025834D01*
X140372053Y-93035708D01*
X140268570Y-93080800D01*
X140176726Y-93157720D01*
X140130461Y-93218764D01*
X140110926Y-93257147D01*
X140095279Y-93306308D01*
X140082078Y-93373860D01*
X140069882Y-93467414D01*
X140057249Y-93594585D01*
X140055386Y-93615260D01*
X140039818Y-93781119D01*
X140025127Y-93915200D01*
X140009689Y-94027984D01*
X139991880Y-94129953D01*
X139970076Y-94231586D01*
X139942653Y-94343367D01*
X139942448Y-94344167D01*
X139826867Y-94712395D01*
X139674222Y-95063174D01*
X139486959Y-95394176D01*
X139267527Y-95703075D01*
X139018372Y-95987545D01*
X138741943Y-96245260D01*
X138440687Y-96473893D01*
X138117051Y-96671117D01*
X137773483Y-96834607D01*
X137412431Y-96962036D01*
X137109136Y-97037163D01*
X136997553Y-97056691D01*
X136862096Y-97075903D01*
X136721176Y-97092386D01*
X136611720Y-97102382D01*
X136464710Y-97114830D01*
X136352813Y-97128081D01*
X136268822Y-97144054D01*
X136205531Y-97164665D01*
X136155733Y-97191832D01*
X136112221Y-97227472D01*
X136101202Y-97238209D01*
X136027425Y-97336858D01*
X135990836Y-97450484D01*
X135989226Y-97580318D01*
X136018702Y-97701725D01*
X136082015Y-97800770D01*
X136158193Y-97867458D01*
X136227922Y-97897647D01*
X136332854Y-97916834D01*
X136467396Y-97925319D01*
X136625956Y-97923401D01*
G36*
X136605647Y-99964331D02*
G01*
X137093042Y-99936770D01*
X137579713Y-99868134D01*
X138062689Y-99759620D01*
X138538997Y-99612429D01*
X139005667Y-99427757D01*
X139459727Y-99206804D01*
X139898203Y-98950768D01*
X140318126Y-98660848D01*
X140716522Y-98338240D01*
X140781907Y-98280222D01*
X141137096Y-97933835D01*
X141464402Y-97559783D01*
X141762336Y-97161293D01*
X142029406Y-96741595D01*
X142264122Y-96303916D01*
X142464993Y-95851486D01*
X142630529Y-95387533D01*
X142759238Y-94915286D01*
X142849631Y-94437972D01*
X142900216Y-93958821D01*
X142910868Y-93669091D01*
X142914917Y-93274433D01*
X142849173Y-93192841D01*
X142750314Y-93099331D01*
X142636598Y-93042419D01*
X142513750Y-93024227D01*
X142425219Y-93035708D01*
X142324128Y-93078979D01*
X142233322Y-93151147D01*
X142164495Y-93241077D01*
X142134638Y-93312333D01*
X142128547Y-93351142D01*
X142120989Y-93423607D01*
X142112722Y-93521107D01*
X142104506Y-93635023D01*
X142100141Y-93703916D01*
X142089724Y-93847636D01*
X142075509Y-94003193D01*
X142059200Y-94153808D01*
X142042503Y-94282704D01*
X142038840Y-94307166D01*
X141944346Y-94783007D01*
X141811444Y-95243778D01*
X141641901Y-95687720D01*
X141437484Y-96113077D01*
X141199959Y-96518093D01*
X140931093Y-96901009D01*
X140632653Y-97260069D01*
X140306405Y-97593515D01*
X139954117Y-97899592D01*
X139577556Y-98176540D01*
X139178487Y-98422604D01*
X138758678Y-98636026D01*
X138319895Y-98815050D01*
X137863905Y-98957917D01*
X137392476Y-99062871D01*
X137230302Y-99089411D01*
X137099159Y-99106746D01*
X136943835Y-99123879D01*
X136782451Y-99138989D01*
X136633129Y-99150253D01*
X136612616Y-99151515D01*
X136461504Y-99162091D01*
X136345461Y-99175106D01*
X136257223Y-99192914D01*
X136189524Y-99217868D01*
X136135100Y-99252324D01*
X136086687Y-99298634D01*
X136059372Y-99330773D01*
X136018604Y-99391479D01*
X135996519Y-99457146D01*
X135986994Y-99534479D01*
X135995096Y-99670722D01*
X136040229Y-99786949D01*
X136121960Y-99882207D01*
X136156600Y-99908679D01*
X136244211Y-99969250D01*
X136605647Y-99964331D01*
G37*
X136605647Y-99964331D02*
X137093042Y-99936770D01*
X137579713Y-99868134D01*
X138062689Y-99759620D01*
X138538997Y-99612429D01*
X139005667Y-99427757D01*
X139459727Y-99206804D01*
X139898203Y-98950768D01*
X140318126Y-98660848D01*
X140716522Y-98338240D01*
X140781907Y-98280222D01*
X141137096Y-97933835D01*
X141464402Y-97559783D01*
X141762336Y-97161293D01*
X142029406Y-96741595D01*
X142264122Y-96303916D01*
X142464993Y-95851486D01*
X142630529Y-95387533D01*
X142759238Y-94915286D01*
X142849631Y-94437972D01*
X142900216Y-93958821D01*
X142910868Y-93669091D01*
X142914917Y-93274433D01*
X142849173Y-93192841D01*
X142750314Y-93099331D01*
X142636598Y-93042419D01*
X142513750Y-93024227D01*
X142425219Y-93035708D01*
X142324128Y-93078979D01*
X142233322Y-93151147D01*
X142164495Y-93241077D01*
X142134638Y-93312333D01*
X142128547Y-93351142D01*
X142120989Y-93423607D01*
X142112722Y-93521107D01*
X142104506Y-93635023D01*
X142100141Y-93703916D01*
X142089724Y-93847636D01*
X142075509Y-94003193D01*
X142059200Y-94153808D01*
X142042503Y-94282704D01*
X142038840Y-94307166D01*
X141944346Y-94783007D01*
X141811444Y-95243778D01*
X141641901Y-95687720D01*
X141437484Y-96113077D01*
X141199959Y-96518093D01*
X140931093Y-96901009D01*
X140632653Y-97260069D01*
X140306405Y-97593515D01*
X139954117Y-97899592D01*
X139577556Y-98176540D01*
X139178487Y-98422604D01*
X138758678Y-98636026D01*
X138319895Y-98815050D01*
X137863905Y-98957917D01*
X137392476Y-99062871D01*
X137230302Y-99089411D01*
X137099159Y-99106746D01*
X136943835Y-99123879D01*
X136782451Y-99138989D01*
X136633129Y-99150253D01*
X136612616Y-99151515D01*
X136461504Y-99162091D01*
X136345461Y-99175106D01*
X136257223Y-99192914D01*
X136189524Y-99217868D01*
X136135100Y-99252324D01*
X136086687Y-99298634D01*
X136059372Y-99330773D01*
X136018604Y-99391479D01*
X135996519Y-99457146D01*
X135986994Y-99534479D01*
X135995096Y-99670722D01*
X136040229Y-99786949D01*
X136121960Y-99882207D01*
X136156600Y-99908679D01*
X136244211Y-99969250D01*
X136605647Y-99964331D01*
M02*
