G04 #@! TF.GenerationSoftware,KiCad,Pcbnew,5.1.10-1.fc33*
G04 #@! TF.CreationDate,2021-10-07T21:11:49-05:00*
G04 #@! TF.ProjectId,dac_pmod,6461635f-706d-46f6-942e-6b696361645f,A*
G04 #@! TF.SameCoordinates,Original*
G04 #@! TF.FileFunction,Copper,L1,Top*
G04 #@! TF.FilePolarity,Positive*
%FSLAX46Y46*%
G04 Gerber Fmt 4.6, Leading zero omitted, Abs format (unit mm)*
G04 Created by KiCad (PCBNEW 5.1.10-1.fc33) date 2021-10-07 21:11:49*
%MOMM*%
%LPD*%
G01*
G04 APERTURE LIST*
G04 #@! TA.AperFunction,ComponentPad*
%ADD10O,1.600000X1.600000*%
G04 #@! TD*
G04 #@! TA.AperFunction,ComponentPad*
%ADD11R,1.600000X1.600000*%
G04 #@! TD*
G04 #@! TA.AperFunction,ComponentPad*
%ADD12O,1.700000X1.700000*%
G04 #@! TD*
G04 #@! TA.AperFunction,ComponentPad*
%ADD13R,1.700000X1.700000*%
G04 #@! TD*
G04 #@! TA.AperFunction,ViaPad*
%ADD14C,0.800000*%
G04 #@! TD*
G04 #@! TA.AperFunction,Conductor*
%ADD15C,0.500000*%
G04 #@! TD*
G04 #@! TA.AperFunction,Conductor*
%ADD16C,0.250000*%
G04 #@! TD*
G04 #@! TA.AperFunction,Conductor*
%ADD17C,0.254000*%
G04 #@! TD*
G04 #@! TA.AperFunction,Conductor*
%ADD18C,0.100000*%
G04 #@! TD*
G04 APERTURE END LIST*
D10*
X153750000Y-95620000D03*
X138510000Y-88000000D03*
X151210000Y-95620000D03*
X141050000Y-88000000D03*
X148670000Y-95620000D03*
X143590000Y-88000000D03*
X146130000Y-95620000D03*
X146130000Y-88000000D03*
X143590000Y-95620000D03*
X148670000Y-88000000D03*
X141050000Y-95620000D03*
X151210000Y-88000000D03*
X138510000Y-95620000D03*
D11*
X153750000Y-88000000D03*
G04 #@! TA.AperFunction,SMDPad,CuDef*
G36*
G01*
X134075000Y-93512500D02*
X134075000Y-93987500D01*
G75*
G02*
X133837500Y-94225000I-237500J0D01*
G01*
X133337500Y-94225000D01*
G75*
G02*
X133100000Y-93987500I0J237500D01*
G01*
X133100000Y-93512500D01*
G75*
G02*
X133337500Y-93275000I237500J0D01*
G01*
X133837500Y-93275000D01*
G75*
G02*
X134075000Y-93512500I0J-237500D01*
G01*
G37*
G04 #@! TD.AperFunction*
G04 #@! TA.AperFunction,SMDPad,CuDef*
G36*
G01*
X135900000Y-93512500D02*
X135900000Y-93987500D01*
G75*
G02*
X135662500Y-94225000I-237500J0D01*
G01*
X135162500Y-94225000D01*
G75*
G02*
X134925000Y-93987500I0J237500D01*
G01*
X134925000Y-93512500D01*
G75*
G02*
X135162500Y-93275000I237500J0D01*
G01*
X135662500Y-93275000D01*
G75*
G02*
X135900000Y-93512500I0J-237500D01*
G01*
G37*
G04 #@! TD.AperFunction*
G04 #@! TA.AperFunction,SMDPad,CuDef*
G36*
G01*
X134075000Y-90512500D02*
X134075000Y-90987500D01*
G75*
G02*
X133837500Y-91225000I-237500J0D01*
G01*
X133337500Y-91225000D01*
G75*
G02*
X133100000Y-90987500I0J237500D01*
G01*
X133100000Y-90512500D01*
G75*
G02*
X133337500Y-90275000I237500J0D01*
G01*
X133837500Y-90275000D01*
G75*
G02*
X134075000Y-90512500I0J-237500D01*
G01*
G37*
G04 #@! TD.AperFunction*
G04 #@! TA.AperFunction,SMDPad,CuDef*
G36*
G01*
X135900000Y-90512500D02*
X135900000Y-90987500D01*
G75*
G02*
X135662500Y-91225000I-237500J0D01*
G01*
X135162500Y-91225000D01*
G75*
G02*
X134925000Y-90987500I0J237500D01*
G01*
X134925000Y-90512500D01*
G75*
G02*
X135162500Y-90275000I237500J0D01*
G01*
X135662500Y-90275000D01*
G75*
G02*
X135900000Y-90512500I0J-237500D01*
G01*
G37*
G04 #@! TD.AperFunction*
G04 #@! TA.AperFunction,SMDPad,CuDef*
G36*
G01*
X134075000Y-87512500D02*
X134075000Y-87987500D01*
G75*
G02*
X133837500Y-88225000I-237500J0D01*
G01*
X133337500Y-88225000D01*
G75*
G02*
X133100000Y-87987500I0J237500D01*
G01*
X133100000Y-87512500D01*
G75*
G02*
X133337500Y-87275000I237500J0D01*
G01*
X133837500Y-87275000D01*
G75*
G02*
X134075000Y-87512500I0J-237500D01*
G01*
G37*
G04 #@! TD.AperFunction*
G04 #@! TA.AperFunction,SMDPad,CuDef*
G36*
G01*
X135900000Y-87512500D02*
X135900000Y-87987500D01*
G75*
G02*
X135662500Y-88225000I-237500J0D01*
G01*
X135162500Y-88225000D01*
G75*
G02*
X134925000Y-87987500I0J237500D01*
G01*
X134925000Y-87512500D01*
G75*
G02*
X135162500Y-87275000I237500J0D01*
G01*
X135662500Y-87275000D01*
G75*
G02*
X135900000Y-87512500I0J-237500D01*
G01*
G37*
G04 #@! TD.AperFunction*
G04 #@! TA.AperFunction,SMDPad,CuDef*
G36*
G01*
X134075000Y-84512500D02*
X134075000Y-84987500D01*
G75*
G02*
X133837500Y-85225000I-237500J0D01*
G01*
X133337500Y-85225000D01*
G75*
G02*
X133100000Y-84987500I0J237500D01*
G01*
X133100000Y-84512500D01*
G75*
G02*
X133337500Y-84275000I237500J0D01*
G01*
X133837500Y-84275000D01*
G75*
G02*
X134075000Y-84512500I0J-237500D01*
G01*
G37*
G04 #@! TD.AperFunction*
G04 #@! TA.AperFunction,SMDPad,CuDef*
G36*
G01*
X135900000Y-84512500D02*
X135900000Y-84987500D01*
G75*
G02*
X135662500Y-85225000I-237500J0D01*
G01*
X135162500Y-85225000D01*
G75*
G02*
X134925000Y-84987500I0J237500D01*
G01*
X134925000Y-84512500D01*
G75*
G02*
X135162500Y-84275000I237500J0D01*
G01*
X135662500Y-84275000D01*
G75*
G02*
X135900000Y-84512500I0J-237500D01*
G01*
G37*
G04 #@! TD.AperFunction*
D12*
X161290000Y-95620000D03*
X158750000Y-95620000D03*
X161290000Y-93080000D03*
X158750000Y-93080000D03*
X161290000Y-90540000D03*
X158750000Y-90540000D03*
X161290000Y-88000000D03*
D13*
X158750000Y-88000000D03*
G04 #@! TA.AperFunction,SMDPad,CuDef*
G36*
G01*
X140675000Y-98012500D02*
X140675000Y-98487500D01*
G75*
G02*
X140437500Y-98725000I-237500J0D01*
G01*
X139837500Y-98725000D01*
G75*
G02*
X139600000Y-98487500I0J237500D01*
G01*
X139600000Y-98012500D01*
G75*
G02*
X139837500Y-97775000I237500J0D01*
G01*
X140437500Y-97775000D01*
G75*
G02*
X140675000Y-98012500I0J-237500D01*
G01*
G37*
G04 #@! TD.AperFunction*
G04 #@! TA.AperFunction,SMDPad,CuDef*
G36*
G01*
X142400000Y-98012500D02*
X142400000Y-98487500D01*
G75*
G02*
X142162500Y-98725000I-237500J0D01*
G01*
X141562500Y-98725000D01*
G75*
G02*
X141325000Y-98487500I0J237500D01*
G01*
X141325000Y-98012500D01*
G75*
G02*
X141562500Y-97775000I237500J0D01*
G01*
X142162500Y-97775000D01*
G75*
G02*
X142400000Y-98012500I0J-237500D01*
G01*
G37*
G04 #@! TD.AperFunction*
G04 #@! TA.AperFunction,SMDPad,CuDef*
G36*
G01*
X151575000Y-98737500D02*
X151575000Y-98262500D01*
G75*
G02*
X151812500Y-98025000I237500J0D01*
G01*
X152412500Y-98025000D01*
G75*
G02*
X152650000Y-98262500I0J-237500D01*
G01*
X152650000Y-98737500D01*
G75*
G02*
X152412500Y-98975000I-237500J0D01*
G01*
X151812500Y-98975000D01*
G75*
G02*
X151575000Y-98737500I0J237500D01*
G01*
G37*
G04 #@! TD.AperFunction*
G04 #@! TA.AperFunction,SMDPad,CuDef*
G36*
G01*
X149850000Y-98737500D02*
X149850000Y-98262500D01*
G75*
G02*
X150087500Y-98025000I237500J0D01*
G01*
X150687500Y-98025000D01*
G75*
G02*
X150925000Y-98262500I0J-237500D01*
G01*
X150925000Y-98737500D01*
G75*
G02*
X150687500Y-98975000I-237500J0D01*
G01*
X150087500Y-98975000D01*
G75*
G02*
X149850000Y-98737500I0J237500D01*
G01*
G37*
G04 #@! TD.AperFunction*
G04 #@! TA.AperFunction,SMDPad,CuDef*
G36*
G01*
X151325000Y-85487500D02*
X151325000Y-85012500D01*
G75*
G02*
X151562500Y-84775000I237500J0D01*
G01*
X152162500Y-84775000D01*
G75*
G02*
X152400000Y-85012500I0J-237500D01*
G01*
X152400000Y-85487500D01*
G75*
G02*
X152162500Y-85725000I-237500J0D01*
G01*
X151562500Y-85725000D01*
G75*
G02*
X151325000Y-85487500I0J237500D01*
G01*
G37*
G04 #@! TD.AperFunction*
G04 #@! TA.AperFunction,SMDPad,CuDef*
G36*
G01*
X149600000Y-85487500D02*
X149600000Y-85012500D01*
G75*
G02*
X149837500Y-84775000I237500J0D01*
G01*
X150437500Y-84775000D01*
G75*
G02*
X150675000Y-85012500I0J-237500D01*
G01*
X150675000Y-85487500D01*
G75*
G02*
X150437500Y-85725000I-237500J0D01*
G01*
X149837500Y-85725000D01*
G75*
G02*
X149600000Y-85487500I0J237500D01*
G01*
G37*
G04 #@! TD.AperFunction*
G04 #@! TA.AperFunction,SMDPad,CuDef*
G36*
G01*
X140675000Y-85012500D02*
X140675000Y-85487500D01*
G75*
G02*
X140437500Y-85725000I-237500J0D01*
G01*
X139837500Y-85725000D01*
G75*
G02*
X139600000Y-85487500I0J237500D01*
G01*
X139600000Y-85012500D01*
G75*
G02*
X139837500Y-84775000I237500J0D01*
G01*
X140437500Y-84775000D01*
G75*
G02*
X140675000Y-85012500I0J-237500D01*
G01*
G37*
G04 #@! TD.AperFunction*
G04 #@! TA.AperFunction,SMDPad,CuDef*
G36*
G01*
X142400000Y-85012500D02*
X142400000Y-85487500D01*
G75*
G02*
X142162500Y-85725000I-237500J0D01*
G01*
X141562500Y-85725000D01*
G75*
G02*
X141325000Y-85487500I0J237500D01*
G01*
X141325000Y-85012500D01*
G75*
G02*
X141562500Y-84775000I237500J0D01*
G01*
X142162500Y-84775000D01*
G75*
G02*
X142400000Y-85012500I0J-237500D01*
G01*
G37*
G04 #@! TD.AperFunction*
G04 #@! TA.AperFunction,SMDPad,CuDef*
G36*
G01*
X146325000Y-85487500D02*
X146325000Y-85012500D01*
G75*
G02*
X146562500Y-84775000I237500J0D01*
G01*
X147162500Y-84775000D01*
G75*
G02*
X147400000Y-85012500I0J-237500D01*
G01*
X147400000Y-85487500D01*
G75*
G02*
X147162500Y-85725000I-237500J0D01*
G01*
X146562500Y-85725000D01*
G75*
G02*
X146325000Y-85487500I0J237500D01*
G01*
G37*
G04 #@! TD.AperFunction*
G04 #@! TA.AperFunction,SMDPad,CuDef*
G36*
G01*
X144600000Y-85487500D02*
X144600000Y-85012500D01*
G75*
G02*
X144837500Y-84775000I237500J0D01*
G01*
X145437500Y-84775000D01*
G75*
G02*
X145675000Y-85012500I0J-237500D01*
G01*
X145675000Y-85487500D01*
G75*
G02*
X145437500Y-85725000I-237500J0D01*
G01*
X144837500Y-85725000D01*
G75*
G02*
X144600000Y-85487500I0J237500D01*
G01*
G37*
G04 #@! TD.AperFunction*
D12*
X128255000Y-98005000D03*
X130795000Y-98005000D03*
X128255000Y-95465000D03*
X130795000Y-95465000D03*
X128255000Y-92925000D03*
X130795000Y-92925000D03*
X128255000Y-90385000D03*
X130795000Y-90385000D03*
X128255000Y-87845000D03*
X130795000Y-87845000D03*
X128255000Y-85305000D03*
D13*
X130795000Y-85305000D03*
D14*
X137500000Y-86000000D03*
X137500000Y-92250000D03*
X140000000Y-92250000D03*
X144250000Y-93250000D03*
X148250000Y-91500000D03*
X151500000Y-91500000D03*
X154750000Y-91500000D03*
D15*
X146130000Y-88000000D02*
X145000000Y-86870000D01*
X145000000Y-85387500D02*
X145137500Y-85250000D01*
X145000000Y-86870000D02*
X145000000Y-85387500D01*
D16*
X132762500Y-92925000D02*
X133587500Y-93750000D01*
X130795000Y-92925000D02*
X132762500Y-92925000D01*
X133222500Y-90385000D02*
X133587500Y-90750000D01*
X130795000Y-90385000D02*
X133222500Y-90385000D01*
X133492500Y-87845000D02*
X133587500Y-87750000D01*
X130795000Y-87845000D02*
X133492500Y-87845000D01*
X133032500Y-85305000D02*
X133587500Y-84750000D01*
X130795000Y-85305000D02*
X133032500Y-85305000D01*
X135412500Y-84750000D02*
X136162500Y-84000000D01*
X140612500Y-84000000D02*
X141862500Y-85250000D01*
X136162500Y-84000000D02*
X140612500Y-84000000D01*
X141862500Y-86272500D02*
X143590000Y-88000000D01*
X141862500Y-85250000D02*
X141862500Y-86272500D01*
X135412500Y-87750000D02*
X137912500Y-90250000D01*
X146420000Y-90250000D02*
X148670000Y-88000000D01*
X137912500Y-90250000D02*
X146420000Y-90250000D01*
X150137500Y-86532500D02*
X148670000Y-88000000D01*
X150137500Y-85250000D02*
X150137500Y-86532500D01*
X150387500Y-97337500D02*
X148670000Y-95620000D01*
X150387500Y-98500000D02*
X150387500Y-97337500D01*
X143800000Y-90750000D02*
X148670000Y-95620000D01*
X135412500Y-90750000D02*
X143800000Y-90750000D01*
X141862500Y-97347500D02*
X143590000Y-95620000D01*
X141862500Y-98250000D02*
X141862500Y-97347500D01*
X141720000Y-93750000D02*
X143590000Y-95620000D01*
X135412500Y-93750000D02*
X141720000Y-93750000D01*
D17*
X162042869Y-83224722D02*
X162156246Y-83258953D01*
X162260819Y-83314555D01*
X162352596Y-83389407D01*
X162428091Y-83480664D01*
X162484419Y-83584844D01*
X162519440Y-83697976D01*
X162535001Y-83846031D01*
X162535001Y-87197364D01*
X162387588Y-86999731D01*
X162171355Y-86804822D01*
X161921252Y-86655843D01*
X161646891Y-86558519D01*
X161417000Y-86679186D01*
X161417000Y-87873000D01*
X161437000Y-87873000D01*
X161437000Y-88127000D01*
X161417000Y-88127000D01*
X161417000Y-90413000D01*
X161437000Y-90413000D01*
X161437000Y-90667000D01*
X161417000Y-90667000D01*
X161417000Y-92953000D01*
X161437000Y-92953000D01*
X161437000Y-93207000D01*
X161417000Y-93207000D01*
X161417000Y-95493000D01*
X161437000Y-95493000D01*
X161437000Y-95747000D01*
X161417000Y-95747000D01*
X161417000Y-96940814D01*
X161646891Y-97061481D01*
X161921252Y-96964157D01*
X162171355Y-96815178D01*
X162387588Y-96620269D01*
X162535000Y-96422637D01*
X162535000Y-99662721D01*
X162520278Y-99812869D01*
X162486047Y-99926246D01*
X162430446Y-100030817D01*
X162355594Y-100122595D01*
X162264335Y-100198091D01*
X162160160Y-100254419D01*
X162047024Y-100289440D01*
X161898979Y-100305000D01*
X125762279Y-100305000D01*
X125612131Y-100290278D01*
X125498754Y-100256047D01*
X125394183Y-100200446D01*
X125302405Y-100125594D01*
X125226909Y-100034335D01*
X125170581Y-99930160D01*
X125135560Y-99817024D01*
X125120000Y-99668979D01*
X125120000Y-97858740D01*
X126770000Y-97858740D01*
X126770000Y-98151260D01*
X126827068Y-98438158D01*
X126939010Y-98708411D01*
X127101525Y-98951632D01*
X127308368Y-99158475D01*
X127551589Y-99320990D01*
X127821842Y-99432932D01*
X128108740Y-99490000D01*
X128401260Y-99490000D01*
X128688158Y-99432932D01*
X128958411Y-99320990D01*
X129201632Y-99158475D01*
X129408475Y-98951632D01*
X129525000Y-98777240D01*
X129641525Y-98951632D01*
X129848368Y-99158475D01*
X130091589Y-99320990D01*
X130361842Y-99432932D01*
X130648740Y-99490000D01*
X130941260Y-99490000D01*
X131228158Y-99432932D01*
X131498411Y-99320990D01*
X131741632Y-99158475D01*
X131948475Y-98951632D01*
X132099905Y-98725000D01*
X138961928Y-98725000D01*
X138974188Y-98849482D01*
X139010498Y-98969180D01*
X139069463Y-99079494D01*
X139148815Y-99176185D01*
X139245506Y-99255537D01*
X139355820Y-99314502D01*
X139475518Y-99350812D01*
X139600000Y-99363072D01*
X139851750Y-99360000D01*
X140010500Y-99201250D01*
X140010500Y-98377000D01*
X139123750Y-98377000D01*
X138965000Y-98535750D01*
X138961928Y-98725000D01*
X132099905Y-98725000D01*
X132110990Y-98708411D01*
X132222932Y-98438158D01*
X132280000Y-98151260D01*
X132280000Y-97858740D01*
X132263343Y-97775000D01*
X138961928Y-97775000D01*
X138965000Y-97964250D01*
X139123750Y-98123000D01*
X140010500Y-98123000D01*
X140010500Y-97298750D01*
X139851750Y-97140000D01*
X139600000Y-97136928D01*
X139475518Y-97149188D01*
X139355820Y-97185498D01*
X139245506Y-97244463D01*
X139148815Y-97323815D01*
X139069463Y-97420506D01*
X139010498Y-97530820D01*
X138974188Y-97650518D01*
X138961928Y-97775000D01*
X132263343Y-97775000D01*
X132222932Y-97571842D01*
X132110990Y-97301589D01*
X131948475Y-97058368D01*
X131741632Y-96851525D01*
X131559466Y-96729805D01*
X131676355Y-96660178D01*
X131892588Y-96465269D01*
X132066641Y-96231920D01*
X132191825Y-95969099D01*
X132236476Y-95821890D01*
X132115155Y-95592000D01*
X130922000Y-95592000D01*
X130922000Y-95612000D01*
X130668000Y-95612000D01*
X130668000Y-95592000D01*
X128382000Y-95592000D01*
X128382000Y-95612000D01*
X128128000Y-95612000D01*
X128128000Y-95592000D01*
X126934845Y-95592000D01*
X126813524Y-95821890D01*
X126858175Y-95969099D01*
X126983359Y-96231920D01*
X127157412Y-96465269D01*
X127373645Y-96660178D01*
X127490534Y-96729805D01*
X127308368Y-96851525D01*
X127101525Y-97058368D01*
X126939010Y-97301589D01*
X126827068Y-97571842D01*
X126770000Y-97858740D01*
X125120000Y-97858740D01*
X125120000Y-85158740D01*
X126770000Y-85158740D01*
X126770000Y-85451260D01*
X126827068Y-85738158D01*
X126939010Y-86008411D01*
X127101525Y-86251632D01*
X127308368Y-86458475D01*
X127482760Y-86575000D01*
X127308368Y-86691525D01*
X127101525Y-86898368D01*
X126939010Y-87141589D01*
X126827068Y-87411842D01*
X126770000Y-87698740D01*
X126770000Y-87991260D01*
X126827068Y-88278158D01*
X126939010Y-88548411D01*
X127101525Y-88791632D01*
X127308368Y-88998475D01*
X127482760Y-89115000D01*
X127308368Y-89231525D01*
X127101525Y-89438368D01*
X126939010Y-89681589D01*
X126827068Y-89951842D01*
X126770000Y-90238740D01*
X126770000Y-90531260D01*
X126827068Y-90818158D01*
X126939010Y-91088411D01*
X127101525Y-91331632D01*
X127308368Y-91538475D01*
X127482760Y-91655000D01*
X127308368Y-91771525D01*
X127101525Y-91978368D01*
X126939010Y-92221589D01*
X126827068Y-92491842D01*
X126770000Y-92778740D01*
X126770000Y-93071260D01*
X126827068Y-93358158D01*
X126939010Y-93628411D01*
X127101525Y-93871632D01*
X127308368Y-94078475D01*
X127490534Y-94200195D01*
X127373645Y-94269822D01*
X127157412Y-94464731D01*
X126983359Y-94698080D01*
X126858175Y-94960901D01*
X126813524Y-95108110D01*
X126934845Y-95338000D01*
X128128000Y-95338000D01*
X128128000Y-95318000D01*
X128382000Y-95318000D01*
X128382000Y-95338000D01*
X130668000Y-95338000D01*
X130668000Y-95318000D01*
X130922000Y-95318000D01*
X130922000Y-95338000D01*
X132115155Y-95338000D01*
X132236476Y-95108110D01*
X132191825Y-94960901D01*
X132066641Y-94698080D01*
X131892588Y-94464731D01*
X131676355Y-94269822D01*
X131559466Y-94200195D01*
X131741632Y-94078475D01*
X131948475Y-93871632D01*
X132073178Y-93685000D01*
X132447699Y-93685000D01*
X132461928Y-93699229D01*
X132461928Y-93987500D01*
X132478752Y-94158316D01*
X132528577Y-94322567D01*
X132609488Y-94473942D01*
X132718377Y-94606623D01*
X132851058Y-94715512D01*
X133002433Y-94796423D01*
X133166684Y-94846248D01*
X133337500Y-94863072D01*
X133837500Y-94863072D01*
X134008316Y-94846248D01*
X134172567Y-94796423D01*
X134323942Y-94715512D01*
X134456623Y-94606623D01*
X134500000Y-94553768D01*
X134543377Y-94606623D01*
X134676058Y-94715512D01*
X134827433Y-94796423D01*
X134991684Y-94846248D01*
X135162500Y-94863072D01*
X135662500Y-94863072D01*
X135833316Y-94846248D01*
X135997567Y-94796423D01*
X136148942Y-94715512D01*
X136281623Y-94606623D01*
X136360920Y-94510000D01*
X137590604Y-94510000D01*
X137395363Y-94705241D01*
X137238320Y-94940273D01*
X137130147Y-95201426D01*
X137075000Y-95478665D01*
X137075000Y-95761335D01*
X137130147Y-96038574D01*
X137238320Y-96299727D01*
X137395363Y-96534759D01*
X137595241Y-96734637D01*
X137830273Y-96891680D01*
X138091426Y-96999853D01*
X138368665Y-97055000D01*
X138651335Y-97055000D01*
X138928574Y-96999853D01*
X139189727Y-96891680D01*
X139424759Y-96734637D01*
X139624637Y-96534759D01*
X139780000Y-96302241D01*
X139935363Y-96534759D01*
X140135241Y-96734637D01*
X140370273Y-96891680D01*
X140631426Y-96999853D01*
X140908665Y-97055000D01*
X141157090Y-97055000D01*
X141156954Y-97055254D01*
X141131248Y-97140000D01*
X141113498Y-97198514D01*
X141106640Y-97268142D01*
X141077394Y-97283774D01*
X141029494Y-97244463D01*
X140919180Y-97185498D01*
X140799482Y-97149188D01*
X140675000Y-97136928D01*
X140423250Y-97140000D01*
X140264500Y-97298750D01*
X140264500Y-98123000D01*
X140284500Y-98123000D01*
X140284500Y-98377000D01*
X140264500Y-98377000D01*
X140264500Y-99201250D01*
X140423250Y-99360000D01*
X140675000Y-99363072D01*
X140799482Y-99350812D01*
X140919180Y-99314502D01*
X141029494Y-99255537D01*
X141077394Y-99216226D01*
X141227433Y-99296423D01*
X141391684Y-99346248D01*
X141562500Y-99363072D01*
X142162500Y-99363072D01*
X142333316Y-99346248D01*
X142497567Y-99296423D01*
X142648942Y-99215512D01*
X142781623Y-99106623D01*
X142890512Y-98973942D01*
X142971423Y-98822567D01*
X143021248Y-98658316D01*
X143038072Y-98487500D01*
X143038072Y-98012500D01*
X143021248Y-97841684D01*
X142971423Y-97677433D01*
X142890512Y-97526058D01*
X142831117Y-97453685D01*
X143266114Y-97018688D01*
X143448665Y-97055000D01*
X143731335Y-97055000D01*
X144008574Y-96999853D01*
X144269727Y-96891680D01*
X144504759Y-96734637D01*
X144704637Y-96534759D01*
X144861680Y-96299727D01*
X144866067Y-96289135D01*
X144977615Y-96475131D01*
X145166586Y-96683519D01*
X145392580Y-96851037D01*
X145646913Y-96971246D01*
X145780961Y-97011904D01*
X146003000Y-96889915D01*
X146003000Y-95747000D01*
X145983000Y-95747000D01*
X145983000Y-95493000D01*
X146003000Y-95493000D01*
X146003000Y-94350085D01*
X145780961Y-94228096D01*
X145646913Y-94268754D01*
X145392580Y-94388963D01*
X145166586Y-94556481D01*
X144977615Y-94764869D01*
X144866067Y-94950865D01*
X144861680Y-94940273D01*
X144704637Y-94705241D01*
X144504759Y-94505363D01*
X144269727Y-94348320D01*
X144008574Y-94240147D01*
X143731335Y-94185000D01*
X143448665Y-94185000D01*
X143266114Y-94221312D01*
X142283804Y-93239003D01*
X142260001Y-93209999D01*
X142144276Y-93115026D01*
X142012247Y-93044454D01*
X141868986Y-93000997D01*
X141757333Y-92990000D01*
X141757322Y-92990000D01*
X141720000Y-92986324D01*
X141682678Y-92990000D01*
X136360920Y-92990000D01*
X136281623Y-92893377D01*
X136148942Y-92784488D01*
X135997567Y-92703577D01*
X135833316Y-92653752D01*
X135662500Y-92636928D01*
X135162500Y-92636928D01*
X134991684Y-92653752D01*
X134827433Y-92703577D01*
X134676058Y-92784488D01*
X134543377Y-92893377D01*
X134500000Y-92946232D01*
X134456623Y-92893377D01*
X134323942Y-92784488D01*
X134172567Y-92703577D01*
X134008316Y-92653752D01*
X133837500Y-92636928D01*
X133549229Y-92636928D01*
X133326303Y-92414002D01*
X133302501Y-92384999D01*
X133186776Y-92290026D01*
X133054747Y-92219454D01*
X132911486Y-92175997D01*
X132799833Y-92165000D01*
X132799822Y-92165000D01*
X132762500Y-92161324D01*
X132725178Y-92165000D01*
X132073178Y-92165000D01*
X131948475Y-91978368D01*
X131741632Y-91771525D01*
X131567240Y-91655000D01*
X131741632Y-91538475D01*
X131948475Y-91331632D01*
X132073178Y-91145000D01*
X132477440Y-91145000D01*
X132478752Y-91158316D01*
X132528577Y-91322567D01*
X132609488Y-91473942D01*
X132718377Y-91606623D01*
X132851058Y-91715512D01*
X133002433Y-91796423D01*
X133166684Y-91846248D01*
X133337500Y-91863072D01*
X133837500Y-91863072D01*
X134008316Y-91846248D01*
X134172567Y-91796423D01*
X134323942Y-91715512D01*
X134456623Y-91606623D01*
X134500000Y-91553768D01*
X134543377Y-91606623D01*
X134676058Y-91715512D01*
X134827433Y-91796423D01*
X134991684Y-91846248D01*
X135162500Y-91863072D01*
X135662500Y-91863072D01*
X135833316Y-91846248D01*
X135997567Y-91796423D01*
X136148942Y-91715512D01*
X136281623Y-91606623D01*
X136360920Y-91510000D01*
X143485199Y-91510000D01*
X146301071Y-94325872D01*
X146257000Y-94350085D01*
X146257000Y-95493000D01*
X146277000Y-95493000D01*
X146277000Y-95747000D01*
X146257000Y-95747000D01*
X146257000Y-96889915D01*
X146479039Y-97011904D01*
X146613087Y-96971246D01*
X146867420Y-96851037D01*
X147093414Y-96683519D01*
X147282385Y-96475131D01*
X147393933Y-96289135D01*
X147398320Y-96299727D01*
X147555363Y-96534759D01*
X147755241Y-96734637D01*
X147990273Y-96891680D01*
X148251426Y-96999853D01*
X148528665Y-97055000D01*
X148811335Y-97055000D01*
X148993886Y-97018688D01*
X149550873Y-97575674D01*
X149468377Y-97643377D01*
X149359488Y-97776058D01*
X149278577Y-97927433D01*
X149228752Y-98091684D01*
X149211928Y-98262500D01*
X149211928Y-98737500D01*
X149228752Y-98908316D01*
X149278577Y-99072567D01*
X149359488Y-99223942D01*
X149468377Y-99356623D01*
X149601058Y-99465512D01*
X149752433Y-99546423D01*
X149916684Y-99596248D01*
X150087500Y-99613072D01*
X150687500Y-99613072D01*
X150858316Y-99596248D01*
X151022567Y-99546423D01*
X151172606Y-99466226D01*
X151220506Y-99505537D01*
X151330820Y-99564502D01*
X151450518Y-99600812D01*
X151575000Y-99613072D01*
X151826750Y-99610000D01*
X151985500Y-99451250D01*
X151985500Y-98627000D01*
X152239500Y-98627000D01*
X152239500Y-99451250D01*
X152398250Y-99610000D01*
X152650000Y-99613072D01*
X152774482Y-99600812D01*
X152894180Y-99564502D01*
X153004494Y-99505537D01*
X153101185Y-99426185D01*
X153180537Y-99329494D01*
X153239502Y-99219180D01*
X153275812Y-99099482D01*
X153288072Y-98975000D01*
X153285000Y-98785750D01*
X153126250Y-98627000D01*
X152239500Y-98627000D01*
X151985500Y-98627000D01*
X151965500Y-98627000D01*
X151965500Y-98373000D01*
X151985500Y-98373000D01*
X151985500Y-97548750D01*
X152239500Y-97548750D01*
X152239500Y-98373000D01*
X153126250Y-98373000D01*
X153285000Y-98214250D01*
X153288072Y-98025000D01*
X153275812Y-97900518D01*
X153239502Y-97780820D01*
X153180537Y-97670506D01*
X153101185Y-97573815D01*
X153004494Y-97494463D01*
X152894180Y-97435498D01*
X152774482Y-97399188D01*
X152650000Y-97386928D01*
X152398250Y-97390000D01*
X152239500Y-97548750D01*
X151985500Y-97548750D01*
X151826750Y-97390000D01*
X151575000Y-97386928D01*
X151450518Y-97399188D01*
X151330820Y-97435498D01*
X151220506Y-97494463D01*
X151172606Y-97533774D01*
X151147500Y-97520355D01*
X151147500Y-97374825D01*
X151151176Y-97337500D01*
X151147500Y-97300175D01*
X151147500Y-97300167D01*
X151136503Y-97188514D01*
X151096003Y-97055000D01*
X151351335Y-97055000D01*
X151628574Y-96999853D01*
X151889727Y-96891680D01*
X152124759Y-96734637D01*
X152324637Y-96534759D01*
X152480000Y-96302241D01*
X152635363Y-96534759D01*
X152835241Y-96734637D01*
X153070273Y-96891680D01*
X153331426Y-96999853D01*
X153608665Y-97055000D01*
X153891335Y-97055000D01*
X154168574Y-96999853D01*
X154429727Y-96891680D01*
X154664759Y-96734637D01*
X154864637Y-96534759D01*
X155021680Y-96299727D01*
X155129853Y-96038574D01*
X155185000Y-95761335D01*
X155185000Y-95478665D01*
X155129853Y-95201426D01*
X155021680Y-94940273D01*
X154864637Y-94705241D01*
X154664759Y-94505363D01*
X154429727Y-94348320D01*
X154168574Y-94240147D01*
X153891335Y-94185000D01*
X153608665Y-94185000D01*
X153331426Y-94240147D01*
X153070273Y-94348320D01*
X152835241Y-94505363D01*
X152635363Y-94705241D01*
X152480000Y-94937759D01*
X152324637Y-94705241D01*
X152124759Y-94505363D01*
X151889727Y-94348320D01*
X151628574Y-94240147D01*
X151351335Y-94185000D01*
X151068665Y-94185000D01*
X150791426Y-94240147D01*
X150530273Y-94348320D01*
X150295241Y-94505363D01*
X150095363Y-94705241D01*
X149940000Y-94937759D01*
X149784637Y-94705241D01*
X149584759Y-94505363D01*
X149349727Y-94348320D01*
X149088574Y-94240147D01*
X148811335Y-94185000D01*
X148528665Y-94185000D01*
X148346114Y-94221312D01*
X145134801Y-91010000D01*
X146382678Y-91010000D01*
X146420000Y-91013676D01*
X146457322Y-91010000D01*
X146457333Y-91010000D01*
X146568986Y-90999003D01*
X146712247Y-90955546D01*
X146844276Y-90884974D01*
X146960001Y-90790001D01*
X146983804Y-90760997D01*
X148346114Y-89398688D01*
X148528665Y-89435000D01*
X148811335Y-89435000D01*
X149088574Y-89379853D01*
X149349727Y-89271680D01*
X149584759Y-89114637D01*
X149784637Y-88914759D01*
X149940000Y-88682241D01*
X150095363Y-88914759D01*
X150295241Y-89114637D01*
X150530273Y-89271680D01*
X150791426Y-89379853D01*
X151068665Y-89435000D01*
X151351335Y-89435000D01*
X151628574Y-89379853D01*
X151889727Y-89271680D01*
X152124759Y-89114637D01*
X152323357Y-88916039D01*
X152324188Y-88924482D01*
X152360498Y-89044180D01*
X152419463Y-89154494D01*
X152498815Y-89251185D01*
X152595506Y-89330537D01*
X152705820Y-89389502D01*
X152825518Y-89425812D01*
X152950000Y-89438072D01*
X154550000Y-89438072D01*
X154674482Y-89425812D01*
X154794180Y-89389502D01*
X154904494Y-89330537D01*
X155001185Y-89251185D01*
X155080537Y-89154494D01*
X155139502Y-89044180D01*
X155175812Y-88924482D01*
X155188072Y-88800000D01*
X155188072Y-87200000D01*
X155183148Y-87150000D01*
X157261928Y-87150000D01*
X157261928Y-88850000D01*
X157274188Y-88974482D01*
X157310498Y-89094180D01*
X157369463Y-89204494D01*
X157448815Y-89301185D01*
X157545506Y-89380537D01*
X157655820Y-89439502D01*
X157728380Y-89461513D01*
X157596525Y-89593368D01*
X157434010Y-89836589D01*
X157322068Y-90106842D01*
X157265000Y-90393740D01*
X157265000Y-90686260D01*
X157322068Y-90973158D01*
X157434010Y-91243411D01*
X157596525Y-91486632D01*
X157803368Y-91693475D01*
X157977760Y-91810000D01*
X157803368Y-91926525D01*
X157596525Y-92133368D01*
X157434010Y-92376589D01*
X157322068Y-92646842D01*
X157265000Y-92933740D01*
X157265000Y-93226260D01*
X157322068Y-93513158D01*
X157434010Y-93783411D01*
X157596525Y-94026632D01*
X157803368Y-94233475D01*
X157977760Y-94350000D01*
X157803368Y-94466525D01*
X157596525Y-94673368D01*
X157434010Y-94916589D01*
X157322068Y-95186842D01*
X157265000Y-95473740D01*
X157265000Y-95766260D01*
X157322068Y-96053158D01*
X157434010Y-96323411D01*
X157596525Y-96566632D01*
X157803368Y-96773475D01*
X158046589Y-96935990D01*
X158316842Y-97047932D01*
X158603740Y-97105000D01*
X158896260Y-97105000D01*
X159183158Y-97047932D01*
X159453411Y-96935990D01*
X159696632Y-96773475D01*
X159903475Y-96566632D01*
X160021100Y-96390594D01*
X160192412Y-96620269D01*
X160408645Y-96815178D01*
X160658748Y-96964157D01*
X160933109Y-97061481D01*
X161163000Y-96940814D01*
X161163000Y-95747000D01*
X161143000Y-95747000D01*
X161143000Y-95493000D01*
X161163000Y-95493000D01*
X161163000Y-93207000D01*
X161143000Y-93207000D01*
X161143000Y-92953000D01*
X161163000Y-92953000D01*
X161163000Y-90667000D01*
X161143000Y-90667000D01*
X161143000Y-90413000D01*
X161163000Y-90413000D01*
X161163000Y-88127000D01*
X161143000Y-88127000D01*
X161143000Y-87873000D01*
X161163000Y-87873000D01*
X161163000Y-86679186D01*
X160933109Y-86558519D01*
X160658748Y-86655843D01*
X160408645Y-86804822D01*
X160212498Y-86981626D01*
X160189502Y-86905820D01*
X160130537Y-86795506D01*
X160051185Y-86698815D01*
X159954494Y-86619463D01*
X159844180Y-86560498D01*
X159724482Y-86524188D01*
X159600000Y-86511928D01*
X157900000Y-86511928D01*
X157775518Y-86524188D01*
X157655820Y-86560498D01*
X157545506Y-86619463D01*
X157448815Y-86698815D01*
X157369463Y-86795506D01*
X157310498Y-86905820D01*
X157274188Y-87025518D01*
X157261928Y-87150000D01*
X155183148Y-87150000D01*
X155175812Y-87075518D01*
X155139502Y-86955820D01*
X155080537Y-86845506D01*
X155001185Y-86748815D01*
X154904494Y-86669463D01*
X154794180Y-86610498D01*
X154674482Y-86574188D01*
X154550000Y-86561928D01*
X152950000Y-86561928D01*
X152825518Y-86574188D01*
X152705820Y-86610498D01*
X152595506Y-86669463D01*
X152498815Y-86748815D01*
X152419463Y-86845506D01*
X152360498Y-86955820D01*
X152324188Y-87075518D01*
X152323357Y-87083961D01*
X152124759Y-86885363D01*
X151889727Y-86728320D01*
X151628574Y-86620147D01*
X151351335Y-86565000D01*
X151068665Y-86565000D01*
X150894565Y-86599631D01*
X150897500Y-86569833D01*
X150897500Y-86569824D01*
X150901176Y-86532501D01*
X150897500Y-86495178D01*
X150897500Y-86229645D01*
X150922606Y-86216226D01*
X150970506Y-86255537D01*
X151080820Y-86314502D01*
X151200518Y-86350812D01*
X151325000Y-86363072D01*
X151576750Y-86360000D01*
X151735500Y-86201250D01*
X151735500Y-85377000D01*
X151989500Y-85377000D01*
X151989500Y-86201250D01*
X152148250Y-86360000D01*
X152400000Y-86363072D01*
X152524482Y-86350812D01*
X152644180Y-86314502D01*
X152754494Y-86255537D01*
X152851185Y-86176185D01*
X152930537Y-86079494D01*
X152989502Y-85969180D01*
X153025812Y-85849482D01*
X153038072Y-85725000D01*
X153035000Y-85535750D01*
X152876250Y-85377000D01*
X151989500Y-85377000D01*
X151735500Y-85377000D01*
X151715500Y-85377000D01*
X151715500Y-85123000D01*
X151735500Y-85123000D01*
X151735500Y-84298750D01*
X151989500Y-84298750D01*
X151989500Y-85123000D01*
X152876250Y-85123000D01*
X153035000Y-84964250D01*
X153038072Y-84775000D01*
X153025812Y-84650518D01*
X152989502Y-84530820D01*
X152930537Y-84420506D01*
X152851185Y-84323815D01*
X152754494Y-84244463D01*
X152644180Y-84185498D01*
X152524482Y-84149188D01*
X152400000Y-84136928D01*
X152148250Y-84140000D01*
X151989500Y-84298750D01*
X151735500Y-84298750D01*
X151576750Y-84140000D01*
X151325000Y-84136928D01*
X151200518Y-84149188D01*
X151080820Y-84185498D01*
X150970506Y-84244463D01*
X150922606Y-84283774D01*
X150772567Y-84203577D01*
X150608316Y-84153752D01*
X150437500Y-84136928D01*
X149837500Y-84136928D01*
X149666684Y-84153752D01*
X149502433Y-84203577D01*
X149351058Y-84284488D01*
X149218377Y-84393377D01*
X149109488Y-84526058D01*
X149028577Y-84677433D01*
X148978752Y-84841684D01*
X148961928Y-85012500D01*
X148961928Y-85487500D01*
X148978752Y-85658316D01*
X149028577Y-85822567D01*
X149109488Y-85973942D01*
X149218377Y-86106623D01*
X149351058Y-86215512D01*
X149369714Y-86225484D01*
X148993886Y-86601312D01*
X148811335Y-86565000D01*
X148528665Y-86565000D01*
X148251426Y-86620147D01*
X147990273Y-86728320D01*
X147755241Y-86885363D01*
X147555363Y-87085241D01*
X147400000Y-87317759D01*
X147244637Y-87085241D01*
X147044759Y-86885363D01*
X146809727Y-86728320D01*
X146548574Y-86620147D01*
X146271335Y-86565000D01*
X145988665Y-86565000D01*
X145953561Y-86571983D01*
X145885000Y-86503422D01*
X145885000Y-86236327D01*
X145922606Y-86216226D01*
X145970506Y-86255537D01*
X146080820Y-86314502D01*
X146200518Y-86350812D01*
X146325000Y-86363072D01*
X146576750Y-86360000D01*
X146735500Y-86201250D01*
X146735500Y-85377000D01*
X146989500Y-85377000D01*
X146989500Y-86201250D01*
X147148250Y-86360000D01*
X147400000Y-86363072D01*
X147524482Y-86350812D01*
X147644180Y-86314502D01*
X147754494Y-86255537D01*
X147851185Y-86176185D01*
X147930537Y-86079494D01*
X147989502Y-85969180D01*
X148025812Y-85849482D01*
X148038072Y-85725000D01*
X148035000Y-85535750D01*
X147876250Y-85377000D01*
X146989500Y-85377000D01*
X146735500Y-85377000D01*
X146715500Y-85377000D01*
X146715500Y-85123000D01*
X146735500Y-85123000D01*
X146735500Y-84298750D01*
X146989500Y-84298750D01*
X146989500Y-85123000D01*
X147876250Y-85123000D01*
X148035000Y-84964250D01*
X148038072Y-84775000D01*
X148025812Y-84650518D01*
X147989502Y-84530820D01*
X147930537Y-84420506D01*
X147851185Y-84323815D01*
X147754494Y-84244463D01*
X147644180Y-84185498D01*
X147524482Y-84149188D01*
X147400000Y-84136928D01*
X147148250Y-84140000D01*
X146989500Y-84298750D01*
X146735500Y-84298750D01*
X146576750Y-84140000D01*
X146325000Y-84136928D01*
X146200518Y-84149188D01*
X146080820Y-84185498D01*
X145970506Y-84244463D01*
X145922606Y-84283774D01*
X145772567Y-84203577D01*
X145608316Y-84153752D01*
X145437500Y-84136928D01*
X144837500Y-84136928D01*
X144666684Y-84153752D01*
X144502433Y-84203577D01*
X144351058Y-84284488D01*
X144218377Y-84393377D01*
X144109488Y-84526058D01*
X144028577Y-84677433D01*
X143978752Y-84841684D01*
X143961928Y-85012500D01*
X143961928Y-85487500D01*
X143978752Y-85658316D01*
X144028577Y-85822567D01*
X144109488Y-85973942D01*
X144115001Y-85980659D01*
X144115000Y-86664230D01*
X144008574Y-86620147D01*
X143731335Y-86565000D01*
X143448665Y-86565000D01*
X143266114Y-86601312D01*
X142776021Y-86111220D01*
X142781623Y-86106623D01*
X142890512Y-85973942D01*
X142971423Y-85822567D01*
X143021248Y-85658316D01*
X143038072Y-85487500D01*
X143038072Y-85012500D01*
X143021248Y-84841684D01*
X142971423Y-84677433D01*
X142890512Y-84526058D01*
X142781623Y-84393377D01*
X142648942Y-84284488D01*
X142497567Y-84203577D01*
X142333316Y-84153752D01*
X142162500Y-84136928D01*
X141824230Y-84136928D01*
X141176304Y-83489003D01*
X141152501Y-83459999D01*
X141036776Y-83365026D01*
X140904747Y-83294454D01*
X140761486Y-83250997D01*
X140649833Y-83240000D01*
X140649822Y-83240000D01*
X140612500Y-83236324D01*
X140575178Y-83240000D01*
X136199822Y-83240000D01*
X136162499Y-83236324D01*
X136125176Y-83240000D01*
X136125167Y-83240000D01*
X136013514Y-83250997D01*
X135870253Y-83294454D01*
X135738224Y-83365026D01*
X135622499Y-83459999D01*
X135598701Y-83488998D01*
X135450770Y-83636928D01*
X135162500Y-83636928D01*
X134991684Y-83653752D01*
X134827433Y-83703577D01*
X134676058Y-83784488D01*
X134543377Y-83893377D01*
X134500000Y-83946232D01*
X134456623Y-83893377D01*
X134323942Y-83784488D01*
X134172567Y-83703577D01*
X134008316Y-83653752D01*
X133837500Y-83636928D01*
X133337500Y-83636928D01*
X133166684Y-83653752D01*
X133002433Y-83703577D01*
X132851058Y-83784488D01*
X132718377Y-83893377D01*
X132609488Y-84026058D01*
X132528577Y-84177433D01*
X132478752Y-84341684D01*
X132461928Y-84512500D01*
X132461928Y-84545000D01*
X132283072Y-84545000D01*
X132283072Y-84455000D01*
X132270812Y-84330518D01*
X132234502Y-84210820D01*
X132175537Y-84100506D01*
X132096185Y-84003815D01*
X131999494Y-83924463D01*
X131889180Y-83865498D01*
X131769482Y-83829188D01*
X131645000Y-83816928D01*
X129945000Y-83816928D01*
X129820518Y-83829188D01*
X129700820Y-83865498D01*
X129590506Y-83924463D01*
X129493815Y-84003815D01*
X129414463Y-84100506D01*
X129355498Y-84210820D01*
X129333487Y-84283380D01*
X129201632Y-84151525D01*
X128958411Y-83989010D01*
X128688158Y-83877068D01*
X128401260Y-83820000D01*
X128108740Y-83820000D01*
X127821842Y-83877068D01*
X127551589Y-83989010D01*
X127308368Y-84151525D01*
X127101525Y-84358368D01*
X126939010Y-84601589D01*
X126827068Y-84871842D01*
X126770000Y-85158740D01*
X125120000Y-85158740D01*
X125120000Y-83852279D01*
X125134722Y-83702131D01*
X125168953Y-83588754D01*
X125224555Y-83484181D01*
X125299407Y-83392404D01*
X125390664Y-83316909D01*
X125494844Y-83260581D01*
X125607976Y-83225560D01*
X125756022Y-83210000D01*
X161892721Y-83210000D01*
X162042869Y-83224722D01*
G04 #@! TA.AperFunction,Conductor*
D18*
G36*
X162042869Y-83224722D02*
G01*
X162156246Y-83258953D01*
X162260819Y-83314555D01*
X162352596Y-83389407D01*
X162428091Y-83480664D01*
X162484419Y-83584844D01*
X162519440Y-83697976D01*
X162535001Y-83846031D01*
X162535001Y-87197364D01*
X162387588Y-86999731D01*
X162171355Y-86804822D01*
X161921252Y-86655843D01*
X161646891Y-86558519D01*
X161417000Y-86679186D01*
X161417000Y-87873000D01*
X161437000Y-87873000D01*
X161437000Y-88127000D01*
X161417000Y-88127000D01*
X161417000Y-90413000D01*
X161437000Y-90413000D01*
X161437000Y-90667000D01*
X161417000Y-90667000D01*
X161417000Y-92953000D01*
X161437000Y-92953000D01*
X161437000Y-93207000D01*
X161417000Y-93207000D01*
X161417000Y-95493000D01*
X161437000Y-95493000D01*
X161437000Y-95747000D01*
X161417000Y-95747000D01*
X161417000Y-96940814D01*
X161646891Y-97061481D01*
X161921252Y-96964157D01*
X162171355Y-96815178D01*
X162387588Y-96620269D01*
X162535000Y-96422637D01*
X162535000Y-99662721D01*
X162520278Y-99812869D01*
X162486047Y-99926246D01*
X162430446Y-100030817D01*
X162355594Y-100122595D01*
X162264335Y-100198091D01*
X162160160Y-100254419D01*
X162047024Y-100289440D01*
X161898979Y-100305000D01*
X125762279Y-100305000D01*
X125612131Y-100290278D01*
X125498754Y-100256047D01*
X125394183Y-100200446D01*
X125302405Y-100125594D01*
X125226909Y-100034335D01*
X125170581Y-99930160D01*
X125135560Y-99817024D01*
X125120000Y-99668979D01*
X125120000Y-97858740D01*
X126770000Y-97858740D01*
X126770000Y-98151260D01*
X126827068Y-98438158D01*
X126939010Y-98708411D01*
X127101525Y-98951632D01*
X127308368Y-99158475D01*
X127551589Y-99320990D01*
X127821842Y-99432932D01*
X128108740Y-99490000D01*
X128401260Y-99490000D01*
X128688158Y-99432932D01*
X128958411Y-99320990D01*
X129201632Y-99158475D01*
X129408475Y-98951632D01*
X129525000Y-98777240D01*
X129641525Y-98951632D01*
X129848368Y-99158475D01*
X130091589Y-99320990D01*
X130361842Y-99432932D01*
X130648740Y-99490000D01*
X130941260Y-99490000D01*
X131228158Y-99432932D01*
X131498411Y-99320990D01*
X131741632Y-99158475D01*
X131948475Y-98951632D01*
X132099905Y-98725000D01*
X138961928Y-98725000D01*
X138974188Y-98849482D01*
X139010498Y-98969180D01*
X139069463Y-99079494D01*
X139148815Y-99176185D01*
X139245506Y-99255537D01*
X139355820Y-99314502D01*
X139475518Y-99350812D01*
X139600000Y-99363072D01*
X139851750Y-99360000D01*
X140010500Y-99201250D01*
X140010500Y-98377000D01*
X139123750Y-98377000D01*
X138965000Y-98535750D01*
X138961928Y-98725000D01*
X132099905Y-98725000D01*
X132110990Y-98708411D01*
X132222932Y-98438158D01*
X132280000Y-98151260D01*
X132280000Y-97858740D01*
X132263343Y-97775000D01*
X138961928Y-97775000D01*
X138965000Y-97964250D01*
X139123750Y-98123000D01*
X140010500Y-98123000D01*
X140010500Y-97298750D01*
X139851750Y-97140000D01*
X139600000Y-97136928D01*
X139475518Y-97149188D01*
X139355820Y-97185498D01*
X139245506Y-97244463D01*
X139148815Y-97323815D01*
X139069463Y-97420506D01*
X139010498Y-97530820D01*
X138974188Y-97650518D01*
X138961928Y-97775000D01*
X132263343Y-97775000D01*
X132222932Y-97571842D01*
X132110990Y-97301589D01*
X131948475Y-97058368D01*
X131741632Y-96851525D01*
X131559466Y-96729805D01*
X131676355Y-96660178D01*
X131892588Y-96465269D01*
X132066641Y-96231920D01*
X132191825Y-95969099D01*
X132236476Y-95821890D01*
X132115155Y-95592000D01*
X130922000Y-95592000D01*
X130922000Y-95612000D01*
X130668000Y-95612000D01*
X130668000Y-95592000D01*
X128382000Y-95592000D01*
X128382000Y-95612000D01*
X128128000Y-95612000D01*
X128128000Y-95592000D01*
X126934845Y-95592000D01*
X126813524Y-95821890D01*
X126858175Y-95969099D01*
X126983359Y-96231920D01*
X127157412Y-96465269D01*
X127373645Y-96660178D01*
X127490534Y-96729805D01*
X127308368Y-96851525D01*
X127101525Y-97058368D01*
X126939010Y-97301589D01*
X126827068Y-97571842D01*
X126770000Y-97858740D01*
X125120000Y-97858740D01*
X125120000Y-85158740D01*
X126770000Y-85158740D01*
X126770000Y-85451260D01*
X126827068Y-85738158D01*
X126939010Y-86008411D01*
X127101525Y-86251632D01*
X127308368Y-86458475D01*
X127482760Y-86575000D01*
X127308368Y-86691525D01*
X127101525Y-86898368D01*
X126939010Y-87141589D01*
X126827068Y-87411842D01*
X126770000Y-87698740D01*
X126770000Y-87991260D01*
X126827068Y-88278158D01*
X126939010Y-88548411D01*
X127101525Y-88791632D01*
X127308368Y-88998475D01*
X127482760Y-89115000D01*
X127308368Y-89231525D01*
X127101525Y-89438368D01*
X126939010Y-89681589D01*
X126827068Y-89951842D01*
X126770000Y-90238740D01*
X126770000Y-90531260D01*
X126827068Y-90818158D01*
X126939010Y-91088411D01*
X127101525Y-91331632D01*
X127308368Y-91538475D01*
X127482760Y-91655000D01*
X127308368Y-91771525D01*
X127101525Y-91978368D01*
X126939010Y-92221589D01*
X126827068Y-92491842D01*
X126770000Y-92778740D01*
X126770000Y-93071260D01*
X126827068Y-93358158D01*
X126939010Y-93628411D01*
X127101525Y-93871632D01*
X127308368Y-94078475D01*
X127490534Y-94200195D01*
X127373645Y-94269822D01*
X127157412Y-94464731D01*
X126983359Y-94698080D01*
X126858175Y-94960901D01*
X126813524Y-95108110D01*
X126934845Y-95338000D01*
X128128000Y-95338000D01*
X128128000Y-95318000D01*
X128382000Y-95318000D01*
X128382000Y-95338000D01*
X130668000Y-95338000D01*
X130668000Y-95318000D01*
X130922000Y-95318000D01*
X130922000Y-95338000D01*
X132115155Y-95338000D01*
X132236476Y-95108110D01*
X132191825Y-94960901D01*
X132066641Y-94698080D01*
X131892588Y-94464731D01*
X131676355Y-94269822D01*
X131559466Y-94200195D01*
X131741632Y-94078475D01*
X131948475Y-93871632D01*
X132073178Y-93685000D01*
X132447699Y-93685000D01*
X132461928Y-93699229D01*
X132461928Y-93987500D01*
X132478752Y-94158316D01*
X132528577Y-94322567D01*
X132609488Y-94473942D01*
X132718377Y-94606623D01*
X132851058Y-94715512D01*
X133002433Y-94796423D01*
X133166684Y-94846248D01*
X133337500Y-94863072D01*
X133837500Y-94863072D01*
X134008316Y-94846248D01*
X134172567Y-94796423D01*
X134323942Y-94715512D01*
X134456623Y-94606623D01*
X134500000Y-94553768D01*
X134543377Y-94606623D01*
X134676058Y-94715512D01*
X134827433Y-94796423D01*
X134991684Y-94846248D01*
X135162500Y-94863072D01*
X135662500Y-94863072D01*
X135833316Y-94846248D01*
X135997567Y-94796423D01*
X136148942Y-94715512D01*
X136281623Y-94606623D01*
X136360920Y-94510000D01*
X137590604Y-94510000D01*
X137395363Y-94705241D01*
X137238320Y-94940273D01*
X137130147Y-95201426D01*
X137075000Y-95478665D01*
X137075000Y-95761335D01*
X137130147Y-96038574D01*
X137238320Y-96299727D01*
X137395363Y-96534759D01*
X137595241Y-96734637D01*
X137830273Y-96891680D01*
X138091426Y-96999853D01*
X138368665Y-97055000D01*
X138651335Y-97055000D01*
X138928574Y-96999853D01*
X139189727Y-96891680D01*
X139424759Y-96734637D01*
X139624637Y-96534759D01*
X139780000Y-96302241D01*
X139935363Y-96534759D01*
X140135241Y-96734637D01*
X140370273Y-96891680D01*
X140631426Y-96999853D01*
X140908665Y-97055000D01*
X141157090Y-97055000D01*
X141156954Y-97055254D01*
X141131248Y-97140000D01*
X141113498Y-97198514D01*
X141106640Y-97268142D01*
X141077394Y-97283774D01*
X141029494Y-97244463D01*
X140919180Y-97185498D01*
X140799482Y-97149188D01*
X140675000Y-97136928D01*
X140423250Y-97140000D01*
X140264500Y-97298750D01*
X140264500Y-98123000D01*
X140284500Y-98123000D01*
X140284500Y-98377000D01*
X140264500Y-98377000D01*
X140264500Y-99201250D01*
X140423250Y-99360000D01*
X140675000Y-99363072D01*
X140799482Y-99350812D01*
X140919180Y-99314502D01*
X141029494Y-99255537D01*
X141077394Y-99216226D01*
X141227433Y-99296423D01*
X141391684Y-99346248D01*
X141562500Y-99363072D01*
X142162500Y-99363072D01*
X142333316Y-99346248D01*
X142497567Y-99296423D01*
X142648942Y-99215512D01*
X142781623Y-99106623D01*
X142890512Y-98973942D01*
X142971423Y-98822567D01*
X143021248Y-98658316D01*
X143038072Y-98487500D01*
X143038072Y-98012500D01*
X143021248Y-97841684D01*
X142971423Y-97677433D01*
X142890512Y-97526058D01*
X142831117Y-97453685D01*
X143266114Y-97018688D01*
X143448665Y-97055000D01*
X143731335Y-97055000D01*
X144008574Y-96999853D01*
X144269727Y-96891680D01*
X144504759Y-96734637D01*
X144704637Y-96534759D01*
X144861680Y-96299727D01*
X144866067Y-96289135D01*
X144977615Y-96475131D01*
X145166586Y-96683519D01*
X145392580Y-96851037D01*
X145646913Y-96971246D01*
X145780961Y-97011904D01*
X146003000Y-96889915D01*
X146003000Y-95747000D01*
X145983000Y-95747000D01*
X145983000Y-95493000D01*
X146003000Y-95493000D01*
X146003000Y-94350085D01*
X145780961Y-94228096D01*
X145646913Y-94268754D01*
X145392580Y-94388963D01*
X145166586Y-94556481D01*
X144977615Y-94764869D01*
X144866067Y-94950865D01*
X144861680Y-94940273D01*
X144704637Y-94705241D01*
X144504759Y-94505363D01*
X144269727Y-94348320D01*
X144008574Y-94240147D01*
X143731335Y-94185000D01*
X143448665Y-94185000D01*
X143266114Y-94221312D01*
X142283804Y-93239003D01*
X142260001Y-93209999D01*
X142144276Y-93115026D01*
X142012247Y-93044454D01*
X141868986Y-93000997D01*
X141757333Y-92990000D01*
X141757322Y-92990000D01*
X141720000Y-92986324D01*
X141682678Y-92990000D01*
X136360920Y-92990000D01*
X136281623Y-92893377D01*
X136148942Y-92784488D01*
X135997567Y-92703577D01*
X135833316Y-92653752D01*
X135662500Y-92636928D01*
X135162500Y-92636928D01*
X134991684Y-92653752D01*
X134827433Y-92703577D01*
X134676058Y-92784488D01*
X134543377Y-92893377D01*
X134500000Y-92946232D01*
X134456623Y-92893377D01*
X134323942Y-92784488D01*
X134172567Y-92703577D01*
X134008316Y-92653752D01*
X133837500Y-92636928D01*
X133549229Y-92636928D01*
X133326303Y-92414002D01*
X133302501Y-92384999D01*
X133186776Y-92290026D01*
X133054747Y-92219454D01*
X132911486Y-92175997D01*
X132799833Y-92165000D01*
X132799822Y-92165000D01*
X132762500Y-92161324D01*
X132725178Y-92165000D01*
X132073178Y-92165000D01*
X131948475Y-91978368D01*
X131741632Y-91771525D01*
X131567240Y-91655000D01*
X131741632Y-91538475D01*
X131948475Y-91331632D01*
X132073178Y-91145000D01*
X132477440Y-91145000D01*
X132478752Y-91158316D01*
X132528577Y-91322567D01*
X132609488Y-91473942D01*
X132718377Y-91606623D01*
X132851058Y-91715512D01*
X133002433Y-91796423D01*
X133166684Y-91846248D01*
X133337500Y-91863072D01*
X133837500Y-91863072D01*
X134008316Y-91846248D01*
X134172567Y-91796423D01*
X134323942Y-91715512D01*
X134456623Y-91606623D01*
X134500000Y-91553768D01*
X134543377Y-91606623D01*
X134676058Y-91715512D01*
X134827433Y-91796423D01*
X134991684Y-91846248D01*
X135162500Y-91863072D01*
X135662500Y-91863072D01*
X135833316Y-91846248D01*
X135997567Y-91796423D01*
X136148942Y-91715512D01*
X136281623Y-91606623D01*
X136360920Y-91510000D01*
X143485199Y-91510000D01*
X146301071Y-94325872D01*
X146257000Y-94350085D01*
X146257000Y-95493000D01*
X146277000Y-95493000D01*
X146277000Y-95747000D01*
X146257000Y-95747000D01*
X146257000Y-96889915D01*
X146479039Y-97011904D01*
X146613087Y-96971246D01*
X146867420Y-96851037D01*
X147093414Y-96683519D01*
X147282385Y-96475131D01*
X147393933Y-96289135D01*
X147398320Y-96299727D01*
X147555363Y-96534759D01*
X147755241Y-96734637D01*
X147990273Y-96891680D01*
X148251426Y-96999853D01*
X148528665Y-97055000D01*
X148811335Y-97055000D01*
X148993886Y-97018688D01*
X149550873Y-97575674D01*
X149468377Y-97643377D01*
X149359488Y-97776058D01*
X149278577Y-97927433D01*
X149228752Y-98091684D01*
X149211928Y-98262500D01*
X149211928Y-98737500D01*
X149228752Y-98908316D01*
X149278577Y-99072567D01*
X149359488Y-99223942D01*
X149468377Y-99356623D01*
X149601058Y-99465512D01*
X149752433Y-99546423D01*
X149916684Y-99596248D01*
X150087500Y-99613072D01*
X150687500Y-99613072D01*
X150858316Y-99596248D01*
X151022567Y-99546423D01*
X151172606Y-99466226D01*
X151220506Y-99505537D01*
X151330820Y-99564502D01*
X151450518Y-99600812D01*
X151575000Y-99613072D01*
X151826750Y-99610000D01*
X151985500Y-99451250D01*
X151985500Y-98627000D01*
X152239500Y-98627000D01*
X152239500Y-99451250D01*
X152398250Y-99610000D01*
X152650000Y-99613072D01*
X152774482Y-99600812D01*
X152894180Y-99564502D01*
X153004494Y-99505537D01*
X153101185Y-99426185D01*
X153180537Y-99329494D01*
X153239502Y-99219180D01*
X153275812Y-99099482D01*
X153288072Y-98975000D01*
X153285000Y-98785750D01*
X153126250Y-98627000D01*
X152239500Y-98627000D01*
X151985500Y-98627000D01*
X151965500Y-98627000D01*
X151965500Y-98373000D01*
X151985500Y-98373000D01*
X151985500Y-97548750D01*
X152239500Y-97548750D01*
X152239500Y-98373000D01*
X153126250Y-98373000D01*
X153285000Y-98214250D01*
X153288072Y-98025000D01*
X153275812Y-97900518D01*
X153239502Y-97780820D01*
X153180537Y-97670506D01*
X153101185Y-97573815D01*
X153004494Y-97494463D01*
X152894180Y-97435498D01*
X152774482Y-97399188D01*
X152650000Y-97386928D01*
X152398250Y-97390000D01*
X152239500Y-97548750D01*
X151985500Y-97548750D01*
X151826750Y-97390000D01*
X151575000Y-97386928D01*
X151450518Y-97399188D01*
X151330820Y-97435498D01*
X151220506Y-97494463D01*
X151172606Y-97533774D01*
X151147500Y-97520355D01*
X151147500Y-97374825D01*
X151151176Y-97337500D01*
X151147500Y-97300175D01*
X151147500Y-97300167D01*
X151136503Y-97188514D01*
X151096003Y-97055000D01*
X151351335Y-97055000D01*
X151628574Y-96999853D01*
X151889727Y-96891680D01*
X152124759Y-96734637D01*
X152324637Y-96534759D01*
X152480000Y-96302241D01*
X152635363Y-96534759D01*
X152835241Y-96734637D01*
X153070273Y-96891680D01*
X153331426Y-96999853D01*
X153608665Y-97055000D01*
X153891335Y-97055000D01*
X154168574Y-96999853D01*
X154429727Y-96891680D01*
X154664759Y-96734637D01*
X154864637Y-96534759D01*
X155021680Y-96299727D01*
X155129853Y-96038574D01*
X155185000Y-95761335D01*
X155185000Y-95478665D01*
X155129853Y-95201426D01*
X155021680Y-94940273D01*
X154864637Y-94705241D01*
X154664759Y-94505363D01*
X154429727Y-94348320D01*
X154168574Y-94240147D01*
X153891335Y-94185000D01*
X153608665Y-94185000D01*
X153331426Y-94240147D01*
X153070273Y-94348320D01*
X152835241Y-94505363D01*
X152635363Y-94705241D01*
X152480000Y-94937759D01*
X152324637Y-94705241D01*
X152124759Y-94505363D01*
X151889727Y-94348320D01*
X151628574Y-94240147D01*
X151351335Y-94185000D01*
X151068665Y-94185000D01*
X150791426Y-94240147D01*
X150530273Y-94348320D01*
X150295241Y-94505363D01*
X150095363Y-94705241D01*
X149940000Y-94937759D01*
X149784637Y-94705241D01*
X149584759Y-94505363D01*
X149349727Y-94348320D01*
X149088574Y-94240147D01*
X148811335Y-94185000D01*
X148528665Y-94185000D01*
X148346114Y-94221312D01*
X145134801Y-91010000D01*
X146382678Y-91010000D01*
X146420000Y-91013676D01*
X146457322Y-91010000D01*
X146457333Y-91010000D01*
X146568986Y-90999003D01*
X146712247Y-90955546D01*
X146844276Y-90884974D01*
X146960001Y-90790001D01*
X146983804Y-90760997D01*
X148346114Y-89398688D01*
X148528665Y-89435000D01*
X148811335Y-89435000D01*
X149088574Y-89379853D01*
X149349727Y-89271680D01*
X149584759Y-89114637D01*
X149784637Y-88914759D01*
X149940000Y-88682241D01*
X150095363Y-88914759D01*
X150295241Y-89114637D01*
X150530273Y-89271680D01*
X150791426Y-89379853D01*
X151068665Y-89435000D01*
X151351335Y-89435000D01*
X151628574Y-89379853D01*
X151889727Y-89271680D01*
X152124759Y-89114637D01*
X152323357Y-88916039D01*
X152324188Y-88924482D01*
X152360498Y-89044180D01*
X152419463Y-89154494D01*
X152498815Y-89251185D01*
X152595506Y-89330537D01*
X152705820Y-89389502D01*
X152825518Y-89425812D01*
X152950000Y-89438072D01*
X154550000Y-89438072D01*
X154674482Y-89425812D01*
X154794180Y-89389502D01*
X154904494Y-89330537D01*
X155001185Y-89251185D01*
X155080537Y-89154494D01*
X155139502Y-89044180D01*
X155175812Y-88924482D01*
X155188072Y-88800000D01*
X155188072Y-87200000D01*
X155183148Y-87150000D01*
X157261928Y-87150000D01*
X157261928Y-88850000D01*
X157274188Y-88974482D01*
X157310498Y-89094180D01*
X157369463Y-89204494D01*
X157448815Y-89301185D01*
X157545506Y-89380537D01*
X157655820Y-89439502D01*
X157728380Y-89461513D01*
X157596525Y-89593368D01*
X157434010Y-89836589D01*
X157322068Y-90106842D01*
X157265000Y-90393740D01*
X157265000Y-90686260D01*
X157322068Y-90973158D01*
X157434010Y-91243411D01*
X157596525Y-91486632D01*
X157803368Y-91693475D01*
X157977760Y-91810000D01*
X157803368Y-91926525D01*
X157596525Y-92133368D01*
X157434010Y-92376589D01*
X157322068Y-92646842D01*
X157265000Y-92933740D01*
X157265000Y-93226260D01*
X157322068Y-93513158D01*
X157434010Y-93783411D01*
X157596525Y-94026632D01*
X157803368Y-94233475D01*
X157977760Y-94350000D01*
X157803368Y-94466525D01*
X157596525Y-94673368D01*
X157434010Y-94916589D01*
X157322068Y-95186842D01*
X157265000Y-95473740D01*
X157265000Y-95766260D01*
X157322068Y-96053158D01*
X157434010Y-96323411D01*
X157596525Y-96566632D01*
X157803368Y-96773475D01*
X158046589Y-96935990D01*
X158316842Y-97047932D01*
X158603740Y-97105000D01*
X158896260Y-97105000D01*
X159183158Y-97047932D01*
X159453411Y-96935990D01*
X159696632Y-96773475D01*
X159903475Y-96566632D01*
X160021100Y-96390594D01*
X160192412Y-96620269D01*
X160408645Y-96815178D01*
X160658748Y-96964157D01*
X160933109Y-97061481D01*
X161163000Y-96940814D01*
X161163000Y-95747000D01*
X161143000Y-95747000D01*
X161143000Y-95493000D01*
X161163000Y-95493000D01*
X161163000Y-93207000D01*
X161143000Y-93207000D01*
X161143000Y-92953000D01*
X161163000Y-92953000D01*
X161163000Y-90667000D01*
X161143000Y-90667000D01*
X161143000Y-90413000D01*
X161163000Y-90413000D01*
X161163000Y-88127000D01*
X161143000Y-88127000D01*
X161143000Y-87873000D01*
X161163000Y-87873000D01*
X161163000Y-86679186D01*
X160933109Y-86558519D01*
X160658748Y-86655843D01*
X160408645Y-86804822D01*
X160212498Y-86981626D01*
X160189502Y-86905820D01*
X160130537Y-86795506D01*
X160051185Y-86698815D01*
X159954494Y-86619463D01*
X159844180Y-86560498D01*
X159724482Y-86524188D01*
X159600000Y-86511928D01*
X157900000Y-86511928D01*
X157775518Y-86524188D01*
X157655820Y-86560498D01*
X157545506Y-86619463D01*
X157448815Y-86698815D01*
X157369463Y-86795506D01*
X157310498Y-86905820D01*
X157274188Y-87025518D01*
X157261928Y-87150000D01*
X155183148Y-87150000D01*
X155175812Y-87075518D01*
X155139502Y-86955820D01*
X155080537Y-86845506D01*
X155001185Y-86748815D01*
X154904494Y-86669463D01*
X154794180Y-86610498D01*
X154674482Y-86574188D01*
X154550000Y-86561928D01*
X152950000Y-86561928D01*
X152825518Y-86574188D01*
X152705820Y-86610498D01*
X152595506Y-86669463D01*
X152498815Y-86748815D01*
X152419463Y-86845506D01*
X152360498Y-86955820D01*
X152324188Y-87075518D01*
X152323357Y-87083961D01*
X152124759Y-86885363D01*
X151889727Y-86728320D01*
X151628574Y-86620147D01*
X151351335Y-86565000D01*
X151068665Y-86565000D01*
X150894565Y-86599631D01*
X150897500Y-86569833D01*
X150897500Y-86569824D01*
X150901176Y-86532501D01*
X150897500Y-86495178D01*
X150897500Y-86229645D01*
X150922606Y-86216226D01*
X150970506Y-86255537D01*
X151080820Y-86314502D01*
X151200518Y-86350812D01*
X151325000Y-86363072D01*
X151576750Y-86360000D01*
X151735500Y-86201250D01*
X151735500Y-85377000D01*
X151989500Y-85377000D01*
X151989500Y-86201250D01*
X152148250Y-86360000D01*
X152400000Y-86363072D01*
X152524482Y-86350812D01*
X152644180Y-86314502D01*
X152754494Y-86255537D01*
X152851185Y-86176185D01*
X152930537Y-86079494D01*
X152989502Y-85969180D01*
X153025812Y-85849482D01*
X153038072Y-85725000D01*
X153035000Y-85535750D01*
X152876250Y-85377000D01*
X151989500Y-85377000D01*
X151735500Y-85377000D01*
X151715500Y-85377000D01*
X151715500Y-85123000D01*
X151735500Y-85123000D01*
X151735500Y-84298750D01*
X151989500Y-84298750D01*
X151989500Y-85123000D01*
X152876250Y-85123000D01*
X153035000Y-84964250D01*
X153038072Y-84775000D01*
X153025812Y-84650518D01*
X152989502Y-84530820D01*
X152930537Y-84420506D01*
X152851185Y-84323815D01*
X152754494Y-84244463D01*
X152644180Y-84185498D01*
X152524482Y-84149188D01*
X152400000Y-84136928D01*
X152148250Y-84140000D01*
X151989500Y-84298750D01*
X151735500Y-84298750D01*
X151576750Y-84140000D01*
X151325000Y-84136928D01*
X151200518Y-84149188D01*
X151080820Y-84185498D01*
X150970506Y-84244463D01*
X150922606Y-84283774D01*
X150772567Y-84203577D01*
X150608316Y-84153752D01*
X150437500Y-84136928D01*
X149837500Y-84136928D01*
X149666684Y-84153752D01*
X149502433Y-84203577D01*
X149351058Y-84284488D01*
X149218377Y-84393377D01*
X149109488Y-84526058D01*
X149028577Y-84677433D01*
X148978752Y-84841684D01*
X148961928Y-85012500D01*
X148961928Y-85487500D01*
X148978752Y-85658316D01*
X149028577Y-85822567D01*
X149109488Y-85973942D01*
X149218377Y-86106623D01*
X149351058Y-86215512D01*
X149369714Y-86225484D01*
X148993886Y-86601312D01*
X148811335Y-86565000D01*
X148528665Y-86565000D01*
X148251426Y-86620147D01*
X147990273Y-86728320D01*
X147755241Y-86885363D01*
X147555363Y-87085241D01*
X147400000Y-87317759D01*
X147244637Y-87085241D01*
X147044759Y-86885363D01*
X146809727Y-86728320D01*
X146548574Y-86620147D01*
X146271335Y-86565000D01*
X145988665Y-86565000D01*
X145953561Y-86571983D01*
X145885000Y-86503422D01*
X145885000Y-86236327D01*
X145922606Y-86216226D01*
X145970506Y-86255537D01*
X146080820Y-86314502D01*
X146200518Y-86350812D01*
X146325000Y-86363072D01*
X146576750Y-86360000D01*
X146735500Y-86201250D01*
X146735500Y-85377000D01*
X146989500Y-85377000D01*
X146989500Y-86201250D01*
X147148250Y-86360000D01*
X147400000Y-86363072D01*
X147524482Y-86350812D01*
X147644180Y-86314502D01*
X147754494Y-86255537D01*
X147851185Y-86176185D01*
X147930537Y-86079494D01*
X147989502Y-85969180D01*
X148025812Y-85849482D01*
X148038072Y-85725000D01*
X148035000Y-85535750D01*
X147876250Y-85377000D01*
X146989500Y-85377000D01*
X146735500Y-85377000D01*
X146715500Y-85377000D01*
X146715500Y-85123000D01*
X146735500Y-85123000D01*
X146735500Y-84298750D01*
X146989500Y-84298750D01*
X146989500Y-85123000D01*
X147876250Y-85123000D01*
X148035000Y-84964250D01*
X148038072Y-84775000D01*
X148025812Y-84650518D01*
X147989502Y-84530820D01*
X147930537Y-84420506D01*
X147851185Y-84323815D01*
X147754494Y-84244463D01*
X147644180Y-84185498D01*
X147524482Y-84149188D01*
X147400000Y-84136928D01*
X147148250Y-84140000D01*
X146989500Y-84298750D01*
X146735500Y-84298750D01*
X146576750Y-84140000D01*
X146325000Y-84136928D01*
X146200518Y-84149188D01*
X146080820Y-84185498D01*
X145970506Y-84244463D01*
X145922606Y-84283774D01*
X145772567Y-84203577D01*
X145608316Y-84153752D01*
X145437500Y-84136928D01*
X144837500Y-84136928D01*
X144666684Y-84153752D01*
X144502433Y-84203577D01*
X144351058Y-84284488D01*
X144218377Y-84393377D01*
X144109488Y-84526058D01*
X144028577Y-84677433D01*
X143978752Y-84841684D01*
X143961928Y-85012500D01*
X143961928Y-85487500D01*
X143978752Y-85658316D01*
X144028577Y-85822567D01*
X144109488Y-85973942D01*
X144115001Y-85980659D01*
X144115000Y-86664230D01*
X144008574Y-86620147D01*
X143731335Y-86565000D01*
X143448665Y-86565000D01*
X143266114Y-86601312D01*
X142776021Y-86111220D01*
X142781623Y-86106623D01*
X142890512Y-85973942D01*
X142971423Y-85822567D01*
X143021248Y-85658316D01*
X143038072Y-85487500D01*
X143038072Y-85012500D01*
X143021248Y-84841684D01*
X142971423Y-84677433D01*
X142890512Y-84526058D01*
X142781623Y-84393377D01*
X142648942Y-84284488D01*
X142497567Y-84203577D01*
X142333316Y-84153752D01*
X142162500Y-84136928D01*
X141824230Y-84136928D01*
X141176304Y-83489003D01*
X141152501Y-83459999D01*
X141036776Y-83365026D01*
X140904747Y-83294454D01*
X140761486Y-83250997D01*
X140649833Y-83240000D01*
X140649822Y-83240000D01*
X140612500Y-83236324D01*
X140575178Y-83240000D01*
X136199822Y-83240000D01*
X136162499Y-83236324D01*
X136125176Y-83240000D01*
X136125167Y-83240000D01*
X136013514Y-83250997D01*
X135870253Y-83294454D01*
X135738224Y-83365026D01*
X135622499Y-83459999D01*
X135598701Y-83488998D01*
X135450770Y-83636928D01*
X135162500Y-83636928D01*
X134991684Y-83653752D01*
X134827433Y-83703577D01*
X134676058Y-83784488D01*
X134543377Y-83893377D01*
X134500000Y-83946232D01*
X134456623Y-83893377D01*
X134323942Y-83784488D01*
X134172567Y-83703577D01*
X134008316Y-83653752D01*
X133837500Y-83636928D01*
X133337500Y-83636928D01*
X133166684Y-83653752D01*
X133002433Y-83703577D01*
X132851058Y-83784488D01*
X132718377Y-83893377D01*
X132609488Y-84026058D01*
X132528577Y-84177433D01*
X132478752Y-84341684D01*
X132461928Y-84512500D01*
X132461928Y-84545000D01*
X132283072Y-84545000D01*
X132283072Y-84455000D01*
X132270812Y-84330518D01*
X132234502Y-84210820D01*
X132175537Y-84100506D01*
X132096185Y-84003815D01*
X131999494Y-83924463D01*
X131889180Y-83865498D01*
X131769482Y-83829188D01*
X131645000Y-83816928D01*
X129945000Y-83816928D01*
X129820518Y-83829188D01*
X129700820Y-83865498D01*
X129590506Y-83924463D01*
X129493815Y-84003815D01*
X129414463Y-84100506D01*
X129355498Y-84210820D01*
X129333487Y-84283380D01*
X129201632Y-84151525D01*
X128958411Y-83989010D01*
X128688158Y-83877068D01*
X128401260Y-83820000D01*
X128108740Y-83820000D01*
X127821842Y-83877068D01*
X127551589Y-83989010D01*
X127308368Y-84151525D01*
X127101525Y-84358368D01*
X126939010Y-84601589D01*
X126827068Y-84871842D01*
X126770000Y-85158740D01*
X125120000Y-85158740D01*
X125120000Y-83852279D01*
X125134722Y-83702131D01*
X125168953Y-83588754D01*
X125224555Y-83484181D01*
X125299407Y-83392404D01*
X125390664Y-83316909D01*
X125494844Y-83260581D01*
X125607976Y-83225560D01*
X125756022Y-83210000D01*
X161892721Y-83210000D01*
X162042869Y-83224722D01*
G37*
G04 #@! TD.AperFunction*
D17*
X138961928Y-84775000D02*
X138965000Y-84964250D01*
X139123750Y-85123000D01*
X140010500Y-85123000D01*
X140010500Y-85103000D01*
X140264500Y-85103000D01*
X140264500Y-85123000D01*
X140284500Y-85123000D01*
X140284500Y-85377000D01*
X140264500Y-85377000D01*
X140264500Y-86201250D01*
X140423250Y-86360000D01*
X140675000Y-86363072D01*
X140799482Y-86350812D01*
X140919180Y-86314502D01*
X141029494Y-86255537D01*
X141077394Y-86216226D01*
X141102501Y-86229646D01*
X141102501Y-86235168D01*
X141098824Y-86272500D01*
X141113498Y-86421485D01*
X141156954Y-86564746D01*
X141157090Y-86565000D01*
X140908665Y-86565000D01*
X140631426Y-86620147D01*
X140370273Y-86728320D01*
X140135241Y-86885363D01*
X139935363Y-87085241D01*
X139780000Y-87317759D01*
X139624637Y-87085241D01*
X139424759Y-86885363D01*
X139189727Y-86728320D01*
X138928574Y-86620147D01*
X138651335Y-86565000D01*
X138368665Y-86565000D01*
X138091426Y-86620147D01*
X137830273Y-86728320D01*
X137595241Y-86885363D01*
X137395363Y-87085241D01*
X137238320Y-87320273D01*
X137130147Y-87581426D01*
X137075000Y-87858665D01*
X137075000Y-88141335D01*
X137123758Y-88386457D01*
X136538072Y-87800771D01*
X136538072Y-87512500D01*
X136521248Y-87341684D01*
X136471423Y-87177433D01*
X136390512Y-87026058D01*
X136281623Y-86893377D01*
X136148942Y-86784488D01*
X135997567Y-86703577D01*
X135833316Y-86653752D01*
X135662500Y-86636928D01*
X135162500Y-86636928D01*
X134991684Y-86653752D01*
X134827433Y-86703577D01*
X134676058Y-86784488D01*
X134543377Y-86893377D01*
X134500000Y-86946232D01*
X134456623Y-86893377D01*
X134323942Y-86784488D01*
X134172567Y-86703577D01*
X134008316Y-86653752D01*
X133837500Y-86636928D01*
X133337500Y-86636928D01*
X133166684Y-86653752D01*
X133002433Y-86703577D01*
X132851058Y-86784488D01*
X132718377Y-86893377D01*
X132609488Y-87026058D01*
X132577983Y-87085000D01*
X132073178Y-87085000D01*
X131948475Y-86898368D01*
X131816620Y-86766513D01*
X131889180Y-86744502D01*
X131999494Y-86685537D01*
X132096185Y-86606185D01*
X132175537Y-86509494D01*
X132234502Y-86399180D01*
X132270812Y-86279482D01*
X132283072Y-86155000D01*
X132283072Y-86065000D01*
X132995178Y-86065000D01*
X133032500Y-86068676D01*
X133069822Y-86065000D01*
X133069833Y-86065000D01*
X133181486Y-86054003D01*
X133324747Y-86010546D01*
X133456776Y-85939974D01*
X133550481Y-85863072D01*
X133837500Y-85863072D01*
X134008316Y-85846248D01*
X134172567Y-85796423D01*
X134323942Y-85715512D01*
X134456623Y-85606623D01*
X134500000Y-85553768D01*
X134543377Y-85606623D01*
X134676058Y-85715512D01*
X134827433Y-85796423D01*
X134991684Y-85846248D01*
X135162500Y-85863072D01*
X135662500Y-85863072D01*
X135833316Y-85846248D01*
X135997567Y-85796423D01*
X136131191Y-85725000D01*
X138961928Y-85725000D01*
X138974188Y-85849482D01*
X139010498Y-85969180D01*
X139069463Y-86079494D01*
X139148815Y-86176185D01*
X139245506Y-86255537D01*
X139355820Y-86314502D01*
X139475518Y-86350812D01*
X139600000Y-86363072D01*
X139851750Y-86360000D01*
X140010500Y-86201250D01*
X140010500Y-85377000D01*
X139123750Y-85377000D01*
X138965000Y-85535750D01*
X138961928Y-85725000D01*
X136131191Y-85725000D01*
X136148942Y-85715512D01*
X136281623Y-85606623D01*
X136390512Y-85473942D01*
X136471423Y-85322567D01*
X136521248Y-85158316D01*
X136538072Y-84987500D01*
X136538072Y-84760000D01*
X138963405Y-84760000D01*
X138961928Y-84775000D01*
G04 #@! TA.AperFunction,Conductor*
D18*
G36*
X138961928Y-84775000D02*
G01*
X138965000Y-84964250D01*
X139123750Y-85123000D01*
X140010500Y-85123000D01*
X140010500Y-85103000D01*
X140264500Y-85103000D01*
X140264500Y-85123000D01*
X140284500Y-85123000D01*
X140284500Y-85377000D01*
X140264500Y-85377000D01*
X140264500Y-86201250D01*
X140423250Y-86360000D01*
X140675000Y-86363072D01*
X140799482Y-86350812D01*
X140919180Y-86314502D01*
X141029494Y-86255537D01*
X141077394Y-86216226D01*
X141102501Y-86229646D01*
X141102501Y-86235168D01*
X141098824Y-86272500D01*
X141113498Y-86421485D01*
X141156954Y-86564746D01*
X141157090Y-86565000D01*
X140908665Y-86565000D01*
X140631426Y-86620147D01*
X140370273Y-86728320D01*
X140135241Y-86885363D01*
X139935363Y-87085241D01*
X139780000Y-87317759D01*
X139624637Y-87085241D01*
X139424759Y-86885363D01*
X139189727Y-86728320D01*
X138928574Y-86620147D01*
X138651335Y-86565000D01*
X138368665Y-86565000D01*
X138091426Y-86620147D01*
X137830273Y-86728320D01*
X137595241Y-86885363D01*
X137395363Y-87085241D01*
X137238320Y-87320273D01*
X137130147Y-87581426D01*
X137075000Y-87858665D01*
X137075000Y-88141335D01*
X137123758Y-88386457D01*
X136538072Y-87800771D01*
X136538072Y-87512500D01*
X136521248Y-87341684D01*
X136471423Y-87177433D01*
X136390512Y-87026058D01*
X136281623Y-86893377D01*
X136148942Y-86784488D01*
X135997567Y-86703577D01*
X135833316Y-86653752D01*
X135662500Y-86636928D01*
X135162500Y-86636928D01*
X134991684Y-86653752D01*
X134827433Y-86703577D01*
X134676058Y-86784488D01*
X134543377Y-86893377D01*
X134500000Y-86946232D01*
X134456623Y-86893377D01*
X134323942Y-86784488D01*
X134172567Y-86703577D01*
X134008316Y-86653752D01*
X133837500Y-86636928D01*
X133337500Y-86636928D01*
X133166684Y-86653752D01*
X133002433Y-86703577D01*
X132851058Y-86784488D01*
X132718377Y-86893377D01*
X132609488Y-87026058D01*
X132577983Y-87085000D01*
X132073178Y-87085000D01*
X131948475Y-86898368D01*
X131816620Y-86766513D01*
X131889180Y-86744502D01*
X131999494Y-86685537D01*
X132096185Y-86606185D01*
X132175537Y-86509494D01*
X132234502Y-86399180D01*
X132270812Y-86279482D01*
X132283072Y-86155000D01*
X132283072Y-86065000D01*
X132995178Y-86065000D01*
X133032500Y-86068676D01*
X133069822Y-86065000D01*
X133069833Y-86065000D01*
X133181486Y-86054003D01*
X133324747Y-86010546D01*
X133456776Y-85939974D01*
X133550481Y-85863072D01*
X133837500Y-85863072D01*
X134008316Y-85846248D01*
X134172567Y-85796423D01*
X134323942Y-85715512D01*
X134456623Y-85606623D01*
X134500000Y-85553768D01*
X134543377Y-85606623D01*
X134676058Y-85715512D01*
X134827433Y-85796423D01*
X134991684Y-85846248D01*
X135162500Y-85863072D01*
X135662500Y-85863072D01*
X135833316Y-85846248D01*
X135997567Y-85796423D01*
X136131191Y-85725000D01*
X138961928Y-85725000D01*
X138974188Y-85849482D01*
X139010498Y-85969180D01*
X139069463Y-86079494D01*
X139148815Y-86176185D01*
X139245506Y-86255537D01*
X139355820Y-86314502D01*
X139475518Y-86350812D01*
X139600000Y-86363072D01*
X139851750Y-86360000D01*
X140010500Y-86201250D01*
X140010500Y-85377000D01*
X139123750Y-85377000D01*
X138965000Y-85535750D01*
X138961928Y-85725000D01*
X136131191Y-85725000D01*
X136148942Y-85715512D01*
X136281623Y-85606623D01*
X136390512Y-85473942D01*
X136471423Y-85322567D01*
X136521248Y-85158316D01*
X136538072Y-84987500D01*
X136538072Y-84760000D01*
X138963405Y-84760000D01*
X138961928Y-84775000D01*
G37*
G04 #@! TD.AperFunction*
M02*
