G04 #@! TF.GenerationSoftware,KiCad,Pcbnew,5.1.10-1.fc33*
G04 #@! TF.CreationDate,2021-10-07T21:11:49-05:00*
G04 #@! TF.ProjectId,dac_pmod,6461635f-706d-46f6-942e-6b696361645f,A*
G04 #@! TF.SameCoordinates,Original*
G04 #@! TF.FileFunction,Copper,L2,Bot*
G04 #@! TF.FilePolarity,Positive*
%FSLAX46Y46*%
G04 Gerber Fmt 4.6, Leading zero omitted, Abs format (unit mm)*
G04 Created by KiCad (PCBNEW 5.1.10-1.fc33) date 2021-10-07 21:11:49*
%MOMM*%
%LPD*%
G01*
G04 APERTURE LIST*
G04 #@! TA.AperFunction,ComponentPad*
%ADD10O,1.600000X1.600000*%
G04 #@! TD*
G04 #@! TA.AperFunction,ComponentPad*
%ADD11R,1.600000X1.600000*%
G04 #@! TD*
G04 #@! TA.AperFunction,ComponentPad*
%ADD12O,1.700000X1.700000*%
G04 #@! TD*
G04 #@! TA.AperFunction,ComponentPad*
%ADD13R,1.700000X1.700000*%
G04 #@! TD*
G04 #@! TA.AperFunction,ViaPad*
%ADD14C,0.800000*%
G04 #@! TD*
G04 #@! TA.AperFunction,Conductor*
%ADD15C,0.500000*%
G04 #@! TD*
G04 #@! TA.AperFunction,Conductor*
%ADD16C,0.250000*%
G04 #@! TD*
G04 #@! TA.AperFunction,Conductor*
%ADD17C,0.254000*%
G04 #@! TD*
G04 #@! TA.AperFunction,Conductor*
%ADD18C,0.100000*%
G04 #@! TD*
G04 APERTURE END LIST*
D10*
X153750000Y-95620000D03*
X138510000Y-88000000D03*
X151210000Y-95620000D03*
X141050000Y-88000000D03*
X148670000Y-95620000D03*
X143590000Y-88000000D03*
X146130000Y-95620000D03*
X146130000Y-88000000D03*
X143590000Y-95620000D03*
X148670000Y-88000000D03*
X141050000Y-95620000D03*
X151210000Y-88000000D03*
X138510000Y-95620000D03*
D11*
X153750000Y-88000000D03*
D12*
X161290000Y-95620000D03*
X158750000Y-95620000D03*
X161290000Y-93080000D03*
X158750000Y-93080000D03*
X161290000Y-90540000D03*
X158750000Y-90540000D03*
X161290000Y-88000000D03*
D13*
X158750000Y-88000000D03*
D12*
X128255000Y-98005000D03*
X130795000Y-98005000D03*
X128255000Y-95465000D03*
X130795000Y-95465000D03*
X128255000Y-92925000D03*
X130795000Y-92925000D03*
X128255000Y-90385000D03*
X130795000Y-90385000D03*
X128255000Y-87845000D03*
X130795000Y-87845000D03*
X128255000Y-85305000D03*
D13*
X130795000Y-85305000D03*
D14*
X137500000Y-86000000D03*
X137500000Y-92250000D03*
X140000000Y-92250000D03*
X144250000Y-93250000D03*
X148250000Y-91500000D03*
X151500000Y-91500000D03*
X154750000Y-91500000D03*
D15*
X128255000Y-98005000D02*
X130795000Y-98005000D01*
X139860001Y-94269999D02*
X146130000Y-88000000D01*
X134530001Y-94269999D02*
X139860001Y-94269999D01*
X130795000Y-98005000D02*
X134530001Y-94269999D01*
D16*
X138510000Y-95620000D02*
X140390000Y-97500000D01*
X140390000Y-97500000D02*
X157000000Y-97500000D01*
X158750000Y-95750000D02*
X158750000Y-95620000D01*
X157000000Y-97500000D02*
X158750000Y-95750000D01*
X141050000Y-95620000D02*
X138510000Y-95620000D01*
X153750000Y-95620000D02*
X155250000Y-94120000D01*
X157710000Y-94120000D02*
X158750000Y-93080000D01*
X155250000Y-94120000D02*
X157710000Y-94120000D01*
X151210000Y-95620000D02*
X153750000Y-95620000D01*
X153750000Y-88000000D02*
X153750000Y-88750000D01*
X155540000Y-90540000D02*
X158750000Y-90540000D01*
X153750000Y-88750000D02*
X155540000Y-90540000D01*
X151210000Y-88000000D02*
X153750000Y-88000000D01*
X138510000Y-88000000D02*
X140510000Y-86000000D01*
X140510000Y-86000000D02*
X157000000Y-86000000D01*
X158750000Y-87750000D02*
X158750000Y-88000000D01*
X157000000Y-86000000D02*
X158750000Y-87750000D01*
X141050000Y-88000000D02*
X138510000Y-88000000D01*
D17*
X162042869Y-83224722D02*
X162156246Y-83258953D01*
X162260819Y-83314555D01*
X162352596Y-83389407D01*
X162428091Y-83480664D01*
X162484419Y-83584844D01*
X162519440Y-83697976D01*
X162535001Y-83846031D01*
X162535001Y-87197364D01*
X162387588Y-86999731D01*
X162171355Y-86804822D01*
X161921252Y-86655843D01*
X161646891Y-86558519D01*
X161417000Y-86679186D01*
X161417000Y-87873000D01*
X161437000Y-87873000D01*
X161437000Y-88127000D01*
X161417000Y-88127000D01*
X161417000Y-90413000D01*
X161437000Y-90413000D01*
X161437000Y-90667000D01*
X161417000Y-90667000D01*
X161417000Y-92953000D01*
X161437000Y-92953000D01*
X161437000Y-93207000D01*
X161417000Y-93207000D01*
X161417000Y-95493000D01*
X161437000Y-95493000D01*
X161437000Y-95747000D01*
X161417000Y-95747000D01*
X161417000Y-96940814D01*
X161646891Y-97061481D01*
X161921252Y-96964157D01*
X162171355Y-96815178D01*
X162387588Y-96620269D01*
X162535000Y-96422637D01*
X162535000Y-99662721D01*
X162520278Y-99812869D01*
X162486047Y-99926246D01*
X162430446Y-100030817D01*
X162355594Y-100122595D01*
X162264335Y-100198091D01*
X162160160Y-100254419D01*
X162047024Y-100289440D01*
X161898979Y-100305000D01*
X125762279Y-100305000D01*
X125612131Y-100290278D01*
X125498754Y-100256047D01*
X125394183Y-100200446D01*
X125302405Y-100125594D01*
X125226909Y-100034335D01*
X125170581Y-99930160D01*
X125135560Y-99817024D01*
X125120000Y-99668979D01*
X125120000Y-85158740D01*
X126770000Y-85158740D01*
X126770000Y-85451260D01*
X126827068Y-85738158D01*
X126939010Y-86008411D01*
X127101525Y-86251632D01*
X127308368Y-86458475D01*
X127482760Y-86575000D01*
X127308368Y-86691525D01*
X127101525Y-86898368D01*
X126939010Y-87141589D01*
X126827068Y-87411842D01*
X126770000Y-87698740D01*
X126770000Y-87991260D01*
X126827068Y-88278158D01*
X126939010Y-88548411D01*
X127101525Y-88791632D01*
X127308368Y-88998475D01*
X127482760Y-89115000D01*
X127308368Y-89231525D01*
X127101525Y-89438368D01*
X126939010Y-89681589D01*
X126827068Y-89951842D01*
X126770000Y-90238740D01*
X126770000Y-90531260D01*
X126827068Y-90818158D01*
X126939010Y-91088411D01*
X127101525Y-91331632D01*
X127308368Y-91538475D01*
X127482760Y-91655000D01*
X127308368Y-91771525D01*
X127101525Y-91978368D01*
X126939010Y-92221589D01*
X126827068Y-92491842D01*
X126770000Y-92778740D01*
X126770000Y-93071260D01*
X126827068Y-93358158D01*
X126939010Y-93628411D01*
X127101525Y-93871632D01*
X127308368Y-94078475D01*
X127490534Y-94200195D01*
X127373645Y-94269822D01*
X127157412Y-94464731D01*
X126983359Y-94698080D01*
X126858175Y-94960901D01*
X126813524Y-95108110D01*
X126934845Y-95338000D01*
X128128000Y-95338000D01*
X128128000Y-95318000D01*
X128382000Y-95318000D01*
X128382000Y-95338000D01*
X130668000Y-95338000D01*
X130668000Y-95318000D01*
X130922000Y-95318000D01*
X130922000Y-95338000D01*
X130942000Y-95338000D01*
X130942000Y-95592000D01*
X130922000Y-95592000D01*
X130922000Y-95612000D01*
X130668000Y-95612000D01*
X130668000Y-95592000D01*
X128382000Y-95592000D01*
X128382000Y-95612000D01*
X128128000Y-95612000D01*
X128128000Y-95592000D01*
X126934845Y-95592000D01*
X126813524Y-95821890D01*
X126858175Y-95969099D01*
X126983359Y-96231920D01*
X127157412Y-96465269D01*
X127373645Y-96660178D01*
X127490534Y-96729805D01*
X127308368Y-96851525D01*
X127101525Y-97058368D01*
X126939010Y-97301589D01*
X126827068Y-97571842D01*
X126770000Y-97858740D01*
X126770000Y-98151260D01*
X126827068Y-98438158D01*
X126939010Y-98708411D01*
X127101525Y-98951632D01*
X127308368Y-99158475D01*
X127551589Y-99320990D01*
X127821842Y-99432932D01*
X128108740Y-99490000D01*
X128401260Y-99490000D01*
X128688158Y-99432932D01*
X128958411Y-99320990D01*
X129201632Y-99158475D01*
X129408475Y-98951632D01*
X129449656Y-98890000D01*
X129600344Y-98890000D01*
X129641525Y-98951632D01*
X129848368Y-99158475D01*
X130091589Y-99320990D01*
X130361842Y-99432932D01*
X130648740Y-99490000D01*
X130941260Y-99490000D01*
X131228158Y-99432932D01*
X131498411Y-99320990D01*
X131741632Y-99158475D01*
X131948475Y-98951632D01*
X132110990Y-98708411D01*
X132222932Y-98438158D01*
X132280000Y-98151260D01*
X132280000Y-97858740D01*
X132265539Y-97786039D01*
X134896580Y-95154999D01*
X137149378Y-95154999D01*
X137130147Y-95201426D01*
X137075000Y-95478665D01*
X137075000Y-95761335D01*
X137130147Y-96038574D01*
X137238320Y-96299727D01*
X137395363Y-96534759D01*
X137595241Y-96734637D01*
X137830273Y-96891680D01*
X138091426Y-96999853D01*
X138368665Y-97055000D01*
X138651335Y-97055000D01*
X138833886Y-97018688D01*
X139826205Y-98011008D01*
X139849999Y-98040001D01*
X139878992Y-98063795D01*
X139878996Y-98063799D01*
X139949685Y-98121811D01*
X139965724Y-98134974D01*
X140097753Y-98205546D01*
X140241014Y-98249003D01*
X140352667Y-98260000D01*
X140352676Y-98260000D01*
X140389999Y-98263676D01*
X140427322Y-98260000D01*
X156962678Y-98260000D01*
X157000000Y-98263676D01*
X157037322Y-98260000D01*
X157037333Y-98260000D01*
X157148986Y-98249003D01*
X157292247Y-98205546D01*
X157424276Y-98134974D01*
X157540001Y-98040001D01*
X157563804Y-98010997D01*
X158492024Y-97082778D01*
X158603740Y-97105000D01*
X158896260Y-97105000D01*
X159183158Y-97047932D01*
X159453411Y-96935990D01*
X159696632Y-96773475D01*
X159903475Y-96566632D01*
X160021100Y-96390594D01*
X160192412Y-96620269D01*
X160408645Y-96815178D01*
X160658748Y-96964157D01*
X160933109Y-97061481D01*
X161163000Y-96940814D01*
X161163000Y-95747000D01*
X161143000Y-95747000D01*
X161143000Y-95493000D01*
X161163000Y-95493000D01*
X161163000Y-93207000D01*
X161143000Y-93207000D01*
X161143000Y-92953000D01*
X161163000Y-92953000D01*
X161163000Y-90667000D01*
X161143000Y-90667000D01*
X161143000Y-90413000D01*
X161163000Y-90413000D01*
X161163000Y-88127000D01*
X161143000Y-88127000D01*
X161143000Y-87873000D01*
X161163000Y-87873000D01*
X161163000Y-86679186D01*
X160933109Y-86558519D01*
X160658748Y-86655843D01*
X160408645Y-86804822D01*
X160212498Y-86981626D01*
X160189502Y-86905820D01*
X160130537Y-86795506D01*
X160051185Y-86698815D01*
X159954494Y-86619463D01*
X159844180Y-86560498D01*
X159724482Y-86524188D01*
X159600000Y-86511928D01*
X158586730Y-86511928D01*
X157563804Y-85489003D01*
X157540001Y-85459999D01*
X157424276Y-85365026D01*
X157292247Y-85294454D01*
X157148986Y-85250997D01*
X157037333Y-85240000D01*
X157037322Y-85240000D01*
X157000000Y-85236324D01*
X156962678Y-85240000D01*
X140547322Y-85240000D01*
X140509999Y-85236324D01*
X140472676Y-85240000D01*
X140472667Y-85240000D01*
X140361014Y-85250997D01*
X140217753Y-85294454D01*
X140085723Y-85365026D01*
X140002083Y-85433668D01*
X139969999Y-85459999D01*
X139946201Y-85488997D01*
X138833886Y-86601312D01*
X138651335Y-86565000D01*
X138368665Y-86565000D01*
X138091426Y-86620147D01*
X137830273Y-86728320D01*
X137595241Y-86885363D01*
X137395363Y-87085241D01*
X137238320Y-87320273D01*
X137130147Y-87581426D01*
X137075000Y-87858665D01*
X137075000Y-88141335D01*
X137130147Y-88418574D01*
X137238320Y-88679727D01*
X137395363Y-88914759D01*
X137595241Y-89114637D01*
X137830273Y-89271680D01*
X138091426Y-89379853D01*
X138368665Y-89435000D01*
X138651335Y-89435000D01*
X138928574Y-89379853D01*
X139189727Y-89271680D01*
X139424759Y-89114637D01*
X139624637Y-88914759D01*
X139728043Y-88760000D01*
X139831957Y-88760000D01*
X139935363Y-88914759D01*
X140135241Y-89114637D01*
X140370273Y-89271680D01*
X140631426Y-89379853D01*
X140908665Y-89435000D01*
X141191335Y-89435000D01*
X141468574Y-89379853D01*
X141729727Y-89271680D01*
X141964759Y-89114637D01*
X142164637Y-88914759D01*
X142320000Y-88682241D01*
X142475363Y-88914759D01*
X142675241Y-89114637D01*
X142910273Y-89271680D01*
X143171426Y-89379853D01*
X143444291Y-89434130D01*
X139493423Y-93384999D01*
X134573467Y-93384999D01*
X134530000Y-93380718D01*
X134486534Y-93384999D01*
X134486524Y-93384999D01*
X134356511Y-93397804D01*
X134189688Y-93448410D01*
X134035942Y-93530588D01*
X134035940Y-93530589D01*
X134035941Y-93530589D01*
X133934954Y-93613467D01*
X133934952Y-93613469D01*
X133901184Y-93641182D01*
X133873471Y-93674950D01*
X132210424Y-95337998D01*
X132115156Y-95337998D01*
X132236476Y-95108110D01*
X132191825Y-94960901D01*
X132066641Y-94698080D01*
X131892588Y-94464731D01*
X131676355Y-94269822D01*
X131559466Y-94200195D01*
X131741632Y-94078475D01*
X131948475Y-93871632D01*
X132110990Y-93628411D01*
X132222932Y-93358158D01*
X132280000Y-93071260D01*
X132280000Y-92778740D01*
X132222932Y-92491842D01*
X132110990Y-92221589D01*
X131948475Y-91978368D01*
X131741632Y-91771525D01*
X131567240Y-91655000D01*
X131741632Y-91538475D01*
X131948475Y-91331632D01*
X132110990Y-91088411D01*
X132222932Y-90818158D01*
X132280000Y-90531260D01*
X132280000Y-90238740D01*
X132222932Y-89951842D01*
X132110990Y-89681589D01*
X131948475Y-89438368D01*
X131741632Y-89231525D01*
X131567240Y-89115000D01*
X131741632Y-88998475D01*
X131948475Y-88791632D01*
X132110990Y-88548411D01*
X132222932Y-88278158D01*
X132280000Y-87991260D01*
X132280000Y-87698740D01*
X132222932Y-87411842D01*
X132110990Y-87141589D01*
X131948475Y-86898368D01*
X131816620Y-86766513D01*
X131889180Y-86744502D01*
X131999494Y-86685537D01*
X132096185Y-86606185D01*
X132175537Y-86509494D01*
X132234502Y-86399180D01*
X132270812Y-86279482D01*
X132283072Y-86155000D01*
X132283072Y-84455000D01*
X132270812Y-84330518D01*
X132234502Y-84210820D01*
X132175537Y-84100506D01*
X132096185Y-84003815D01*
X131999494Y-83924463D01*
X131889180Y-83865498D01*
X131769482Y-83829188D01*
X131645000Y-83816928D01*
X129945000Y-83816928D01*
X129820518Y-83829188D01*
X129700820Y-83865498D01*
X129590506Y-83924463D01*
X129493815Y-84003815D01*
X129414463Y-84100506D01*
X129355498Y-84210820D01*
X129333487Y-84283380D01*
X129201632Y-84151525D01*
X128958411Y-83989010D01*
X128688158Y-83877068D01*
X128401260Y-83820000D01*
X128108740Y-83820000D01*
X127821842Y-83877068D01*
X127551589Y-83989010D01*
X127308368Y-84151525D01*
X127101525Y-84358368D01*
X126939010Y-84601589D01*
X126827068Y-84871842D01*
X126770000Y-85158740D01*
X125120000Y-85158740D01*
X125120000Y-83852279D01*
X125134722Y-83702131D01*
X125168953Y-83588754D01*
X125224555Y-83484181D01*
X125299407Y-83392404D01*
X125390664Y-83316909D01*
X125494844Y-83260581D01*
X125607976Y-83225560D01*
X125756022Y-83210000D01*
X161892721Y-83210000D01*
X162042869Y-83224722D01*
G04 #@! TA.AperFunction,Conductor*
D18*
G36*
X162042869Y-83224722D02*
G01*
X162156246Y-83258953D01*
X162260819Y-83314555D01*
X162352596Y-83389407D01*
X162428091Y-83480664D01*
X162484419Y-83584844D01*
X162519440Y-83697976D01*
X162535001Y-83846031D01*
X162535001Y-87197364D01*
X162387588Y-86999731D01*
X162171355Y-86804822D01*
X161921252Y-86655843D01*
X161646891Y-86558519D01*
X161417000Y-86679186D01*
X161417000Y-87873000D01*
X161437000Y-87873000D01*
X161437000Y-88127000D01*
X161417000Y-88127000D01*
X161417000Y-90413000D01*
X161437000Y-90413000D01*
X161437000Y-90667000D01*
X161417000Y-90667000D01*
X161417000Y-92953000D01*
X161437000Y-92953000D01*
X161437000Y-93207000D01*
X161417000Y-93207000D01*
X161417000Y-95493000D01*
X161437000Y-95493000D01*
X161437000Y-95747000D01*
X161417000Y-95747000D01*
X161417000Y-96940814D01*
X161646891Y-97061481D01*
X161921252Y-96964157D01*
X162171355Y-96815178D01*
X162387588Y-96620269D01*
X162535000Y-96422637D01*
X162535000Y-99662721D01*
X162520278Y-99812869D01*
X162486047Y-99926246D01*
X162430446Y-100030817D01*
X162355594Y-100122595D01*
X162264335Y-100198091D01*
X162160160Y-100254419D01*
X162047024Y-100289440D01*
X161898979Y-100305000D01*
X125762279Y-100305000D01*
X125612131Y-100290278D01*
X125498754Y-100256047D01*
X125394183Y-100200446D01*
X125302405Y-100125594D01*
X125226909Y-100034335D01*
X125170581Y-99930160D01*
X125135560Y-99817024D01*
X125120000Y-99668979D01*
X125120000Y-85158740D01*
X126770000Y-85158740D01*
X126770000Y-85451260D01*
X126827068Y-85738158D01*
X126939010Y-86008411D01*
X127101525Y-86251632D01*
X127308368Y-86458475D01*
X127482760Y-86575000D01*
X127308368Y-86691525D01*
X127101525Y-86898368D01*
X126939010Y-87141589D01*
X126827068Y-87411842D01*
X126770000Y-87698740D01*
X126770000Y-87991260D01*
X126827068Y-88278158D01*
X126939010Y-88548411D01*
X127101525Y-88791632D01*
X127308368Y-88998475D01*
X127482760Y-89115000D01*
X127308368Y-89231525D01*
X127101525Y-89438368D01*
X126939010Y-89681589D01*
X126827068Y-89951842D01*
X126770000Y-90238740D01*
X126770000Y-90531260D01*
X126827068Y-90818158D01*
X126939010Y-91088411D01*
X127101525Y-91331632D01*
X127308368Y-91538475D01*
X127482760Y-91655000D01*
X127308368Y-91771525D01*
X127101525Y-91978368D01*
X126939010Y-92221589D01*
X126827068Y-92491842D01*
X126770000Y-92778740D01*
X126770000Y-93071260D01*
X126827068Y-93358158D01*
X126939010Y-93628411D01*
X127101525Y-93871632D01*
X127308368Y-94078475D01*
X127490534Y-94200195D01*
X127373645Y-94269822D01*
X127157412Y-94464731D01*
X126983359Y-94698080D01*
X126858175Y-94960901D01*
X126813524Y-95108110D01*
X126934845Y-95338000D01*
X128128000Y-95338000D01*
X128128000Y-95318000D01*
X128382000Y-95318000D01*
X128382000Y-95338000D01*
X130668000Y-95338000D01*
X130668000Y-95318000D01*
X130922000Y-95318000D01*
X130922000Y-95338000D01*
X130942000Y-95338000D01*
X130942000Y-95592000D01*
X130922000Y-95592000D01*
X130922000Y-95612000D01*
X130668000Y-95612000D01*
X130668000Y-95592000D01*
X128382000Y-95592000D01*
X128382000Y-95612000D01*
X128128000Y-95612000D01*
X128128000Y-95592000D01*
X126934845Y-95592000D01*
X126813524Y-95821890D01*
X126858175Y-95969099D01*
X126983359Y-96231920D01*
X127157412Y-96465269D01*
X127373645Y-96660178D01*
X127490534Y-96729805D01*
X127308368Y-96851525D01*
X127101525Y-97058368D01*
X126939010Y-97301589D01*
X126827068Y-97571842D01*
X126770000Y-97858740D01*
X126770000Y-98151260D01*
X126827068Y-98438158D01*
X126939010Y-98708411D01*
X127101525Y-98951632D01*
X127308368Y-99158475D01*
X127551589Y-99320990D01*
X127821842Y-99432932D01*
X128108740Y-99490000D01*
X128401260Y-99490000D01*
X128688158Y-99432932D01*
X128958411Y-99320990D01*
X129201632Y-99158475D01*
X129408475Y-98951632D01*
X129449656Y-98890000D01*
X129600344Y-98890000D01*
X129641525Y-98951632D01*
X129848368Y-99158475D01*
X130091589Y-99320990D01*
X130361842Y-99432932D01*
X130648740Y-99490000D01*
X130941260Y-99490000D01*
X131228158Y-99432932D01*
X131498411Y-99320990D01*
X131741632Y-99158475D01*
X131948475Y-98951632D01*
X132110990Y-98708411D01*
X132222932Y-98438158D01*
X132280000Y-98151260D01*
X132280000Y-97858740D01*
X132265539Y-97786039D01*
X134896580Y-95154999D01*
X137149378Y-95154999D01*
X137130147Y-95201426D01*
X137075000Y-95478665D01*
X137075000Y-95761335D01*
X137130147Y-96038574D01*
X137238320Y-96299727D01*
X137395363Y-96534759D01*
X137595241Y-96734637D01*
X137830273Y-96891680D01*
X138091426Y-96999853D01*
X138368665Y-97055000D01*
X138651335Y-97055000D01*
X138833886Y-97018688D01*
X139826205Y-98011008D01*
X139849999Y-98040001D01*
X139878992Y-98063795D01*
X139878996Y-98063799D01*
X139949685Y-98121811D01*
X139965724Y-98134974D01*
X140097753Y-98205546D01*
X140241014Y-98249003D01*
X140352667Y-98260000D01*
X140352676Y-98260000D01*
X140389999Y-98263676D01*
X140427322Y-98260000D01*
X156962678Y-98260000D01*
X157000000Y-98263676D01*
X157037322Y-98260000D01*
X157037333Y-98260000D01*
X157148986Y-98249003D01*
X157292247Y-98205546D01*
X157424276Y-98134974D01*
X157540001Y-98040001D01*
X157563804Y-98010997D01*
X158492024Y-97082778D01*
X158603740Y-97105000D01*
X158896260Y-97105000D01*
X159183158Y-97047932D01*
X159453411Y-96935990D01*
X159696632Y-96773475D01*
X159903475Y-96566632D01*
X160021100Y-96390594D01*
X160192412Y-96620269D01*
X160408645Y-96815178D01*
X160658748Y-96964157D01*
X160933109Y-97061481D01*
X161163000Y-96940814D01*
X161163000Y-95747000D01*
X161143000Y-95747000D01*
X161143000Y-95493000D01*
X161163000Y-95493000D01*
X161163000Y-93207000D01*
X161143000Y-93207000D01*
X161143000Y-92953000D01*
X161163000Y-92953000D01*
X161163000Y-90667000D01*
X161143000Y-90667000D01*
X161143000Y-90413000D01*
X161163000Y-90413000D01*
X161163000Y-88127000D01*
X161143000Y-88127000D01*
X161143000Y-87873000D01*
X161163000Y-87873000D01*
X161163000Y-86679186D01*
X160933109Y-86558519D01*
X160658748Y-86655843D01*
X160408645Y-86804822D01*
X160212498Y-86981626D01*
X160189502Y-86905820D01*
X160130537Y-86795506D01*
X160051185Y-86698815D01*
X159954494Y-86619463D01*
X159844180Y-86560498D01*
X159724482Y-86524188D01*
X159600000Y-86511928D01*
X158586730Y-86511928D01*
X157563804Y-85489003D01*
X157540001Y-85459999D01*
X157424276Y-85365026D01*
X157292247Y-85294454D01*
X157148986Y-85250997D01*
X157037333Y-85240000D01*
X157037322Y-85240000D01*
X157000000Y-85236324D01*
X156962678Y-85240000D01*
X140547322Y-85240000D01*
X140509999Y-85236324D01*
X140472676Y-85240000D01*
X140472667Y-85240000D01*
X140361014Y-85250997D01*
X140217753Y-85294454D01*
X140085723Y-85365026D01*
X140002083Y-85433668D01*
X139969999Y-85459999D01*
X139946201Y-85488997D01*
X138833886Y-86601312D01*
X138651335Y-86565000D01*
X138368665Y-86565000D01*
X138091426Y-86620147D01*
X137830273Y-86728320D01*
X137595241Y-86885363D01*
X137395363Y-87085241D01*
X137238320Y-87320273D01*
X137130147Y-87581426D01*
X137075000Y-87858665D01*
X137075000Y-88141335D01*
X137130147Y-88418574D01*
X137238320Y-88679727D01*
X137395363Y-88914759D01*
X137595241Y-89114637D01*
X137830273Y-89271680D01*
X138091426Y-89379853D01*
X138368665Y-89435000D01*
X138651335Y-89435000D01*
X138928574Y-89379853D01*
X139189727Y-89271680D01*
X139424759Y-89114637D01*
X139624637Y-88914759D01*
X139728043Y-88760000D01*
X139831957Y-88760000D01*
X139935363Y-88914759D01*
X140135241Y-89114637D01*
X140370273Y-89271680D01*
X140631426Y-89379853D01*
X140908665Y-89435000D01*
X141191335Y-89435000D01*
X141468574Y-89379853D01*
X141729727Y-89271680D01*
X141964759Y-89114637D01*
X142164637Y-88914759D01*
X142320000Y-88682241D01*
X142475363Y-88914759D01*
X142675241Y-89114637D01*
X142910273Y-89271680D01*
X143171426Y-89379853D01*
X143444291Y-89434130D01*
X139493423Y-93384999D01*
X134573467Y-93384999D01*
X134530000Y-93380718D01*
X134486534Y-93384999D01*
X134486524Y-93384999D01*
X134356511Y-93397804D01*
X134189688Y-93448410D01*
X134035942Y-93530588D01*
X134035940Y-93530589D01*
X134035941Y-93530589D01*
X133934954Y-93613467D01*
X133934952Y-93613469D01*
X133901184Y-93641182D01*
X133873471Y-93674950D01*
X132210424Y-95337998D01*
X132115156Y-95337998D01*
X132236476Y-95108110D01*
X132191825Y-94960901D01*
X132066641Y-94698080D01*
X131892588Y-94464731D01*
X131676355Y-94269822D01*
X131559466Y-94200195D01*
X131741632Y-94078475D01*
X131948475Y-93871632D01*
X132110990Y-93628411D01*
X132222932Y-93358158D01*
X132280000Y-93071260D01*
X132280000Y-92778740D01*
X132222932Y-92491842D01*
X132110990Y-92221589D01*
X131948475Y-91978368D01*
X131741632Y-91771525D01*
X131567240Y-91655000D01*
X131741632Y-91538475D01*
X131948475Y-91331632D01*
X132110990Y-91088411D01*
X132222932Y-90818158D01*
X132280000Y-90531260D01*
X132280000Y-90238740D01*
X132222932Y-89951842D01*
X132110990Y-89681589D01*
X131948475Y-89438368D01*
X131741632Y-89231525D01*
X131567240Y-89115000D01*
X131741632Y-88998475D01*
X131948475Y-88791632D01*
X132110990Y-88548411D01*
X132222932Y-88278158D01*
X132280000Y-87991260D01*
X132280000Y-87698740D01*
X132222932Y-87411842D01*
X132110990Y-87141589D01*
X131948475Y-86898368D01*
X131816620Y-86766513D01*
X131889180Y-86744502D01*
X131999494Y-86685537D01*
X132096185Y-86606185D01*
X132175537Y-86509494D01*
X132234502Y-86399180D01*
X132270812Y-86279482D01*
X132283072Y-86155000D01*
X132283072Y-84455000D01*
X132270812Y-84330518D01*
X132234502Y-84210820D01*
X132175537Y-84100506D01*
X132096185Y-84003815D01*
X131999494Y-83924463D01*
X131889180Y-83865498D01*
X131769482Y-83829188D01*
X131645000Y-83816928D01*
X129945000Y-83816928D01*
X129820518Y-83829188D01*
X129700820Y-83865498D01*
X129590506Y-83924463D01*
X129493815Y-84003815D01*
X129414463Y-84100506D01*
X129355498Y-84210820D01*
X129333487Y-84283380D01*
X129201632Y-84151525D01*
X128958411Y-83989010D01*
X128688158Y-83877068D01*
X128401260Y-83820000D01*
X128108740Y-83820000D01*
X127821842Y-83877068D01*
X127551589Y-83989010D01*
X127308368Y-84151525D01*
X127101525Y-84358368D01*
X126939010Y-84601589D01*
X126827068Y-84871842D01*
X126770000Y-85158740D01*
X125120000Y-85158740D01*
X125120000Y-83852279D01*
X125134722Y-83702131D01*
X125168953Y-83588754D01*
X125224555Y-83484181D01*
X125299407Y-83392404D01*
X125390664Y-83316909D01*
X125494844Y-83260581D01*
X125607976Y-83225560D01*
X125756022Y-83210000D01*
X161892721Y-83210000D01*
X162042869Y-83224722D01*
G37*
G04 #@! TD.AperFunction*
D17*
X150095363Y-88914759D02*
X150295241Y-89114637D01*
X150530273Y-89271680D01*
X150791426Y-89379853D01*
X151068665Y-89435000D01*
X151351335Y-89435000D01*
X151628574Y-89379853D01*
X151889727Y-89271680D01*
X152124759Y-89114637D01*
X152323357Y-88916039D01*
X152324188Y-88924482D01*
X152360498Y-89044180D01*
X152419463Y-89154494D01*
X152498815Y-89251185D01*
X152595506Y-89330537D01*
X152705820Y-89389502D01*
X152825518Y-89425812D01*
X152950000Y-89438072D01*
X153363271Y-89438072D01*
X154976201Y-91051003D01*
X154999999Y-91080001D01*
X155115724Y-91174974D01*
X155247753Y-91245546D01*
X155391014Y-91289003D01*
X155502667Y-91300000D01*
X155502676Y-91300000D01*
X155539999Y-91303676D01*
X155577322Y-91300000D01*
X157471822Y-91300000D01*
X157596525Y-91486632D01*
X157803368Y-91693475D01*
X157977760Y-91810000D01*
X157803368Y-91926525D01*
X157596525Y-92133368D01*
X157434010Y-92376589D01*
X157322068Y-92646842D01*
X157265000Y-92933740D01*
X157265000Y-93226260D01*
X157291603Y-93360000D01*
X155287322Y-93360000D01*
X155249999Y-93356324D01*
X155212676Y-93360000D01*
X155212667Y-93360000D01*
X155101014Y-93370997D01*
X154957753Y-93414454D01*
X154825724Y-93485026D01*
X154709999Y-93579999D01*
X154686201Y-93608997D01*
X154073886Y-94221312D01*
X153891335Y-94185000D01*
X153608665Y-94185000D01*
X153331426Y-94240147D01*
X153070273Y-94348320D01*
X152835241Y-94505363D01*
X152635363Y-94705241D01*
X152531957Y-94860000D01*
X152428043Y-94860000D01*
X152324637Y-94705241D01*
X152124759Y-94505363D01*
X151889727Y-94348320D01*
X151628574Y-94240147D01*
X151351335Y-94185000D01*
X151068665Y-94185000D01*
X150791426Y-94240147D01*
X150530273Y-94348320D01*
X150295241Y-94505363D01*
X150095363Y-94705241D01*
X149940000Y-94937759D01*
X149784637Y-94705241D01*
X149584759Y-94505363D01*
X149349727Y-94348320D01*
X149088574Y-94240147D01*
X148811335Y-94185000D01*
X148528665Y-94185000D01*
X148251426Y-94240147D01*
X147990273Y-94348320D01*
X147755241Y-94505363D01*
X147555363Y-94705241D01*
X147398320Y-94940273D01*
X147393933Y-94950865D01*
X147282385Y-94764869D01*
X147093414Y-94556481D01*
X146867420Y-94388963D01*
X146613087Y-94268754D01*
X146479039Y-94228096D01*
X146257000Y-94350085D01*
X146257000Y-95493000D01*
X146277000Y-95493000D01*
X146277000Y-95747000D01*
X146257000Y-95747000D01*
X146257000Y-95767000D01*
X146003000Y-95767000D01*
X146003000Y-95747000D01*
X145983000Y-95747000D01*
X145983000Y-95493000D01*
X146003000Y-95493000D01*
X146003000Y-94350085D01*
X145780961Y-94228096D01*
X145646913Y-94268754D01*
X145392580Y-94388963D01*
X145166586Y-94556481D01*
X144977615Y-94764869D01*
X144866067Y-94950865D01*
X144861680Y-94940273D01*
X144704637Y-94705241D01*
X144504759Y-94505363D01*
X144269727Y-94348320D01*
X144008574Y-94240147D01*
X143731335Y-94185000D01*
X143448665Y-94185000D01*
X143171426Y-94240147D01*
X142910273Y-94348320D01*
X142675241Y-94505363D01*
X142475363Y-94705241D01*
X142320000Y-94937759D01*
X142164637Y-94705241D01*
X141964759Y-94505363D01*
X141729727Y-94348320D01*
X141468574Y-94240147D01*
X141195708Y-94185870D01*
X145953561Y-89428017D01*
X145988665Y-89435000D01*
X146271335Y-89435000D01*
X146548574Y-89379853D01*
X146809727Y-89271680D01*
X147044759Y-89114637D01*
X147244637Y-88914759D01*
X147400000Y-88682241D01*
X147555363Y-88914759D01*
X147755241Y-89114637D01*
X147990273Y-89271680D01*
X148251426Y-89379853D01*
X148528665Y-89435000D01*
X148811335Y-89435000D01*
X149088574Y-89379853D01*
X149349727Y-89271680D01*
X149584759Y-89114637D01*
X149784637Y-88914759D01*
X149940000Y-88682241D01*
X150095363Y-88914759D01*
G04 #@! TA.AperFunction,Conductor*
D18*
G36*
X150095363Y-88914759D02*
G01*
X150295241Y-89114637D01*
X150530273Y-89271680D01*
X150791426Y-89379853D01*
X151068665Y-89435000D01*
X151351335Y-89435000D01*
X151628574Y-89379853D01*
X151889727Y-89271680D01*
X152124759Y-89114637D01*
X152323357Y-88916039D01*
X152324188Y-88924482D01*
X152360498Y-89044180D01*
X152419463Y-89154494D01*
X152498815Y-89251185D01*
X152595506Y-89330537D01*
X152705820Y-89389502D01*
X152825518Y-89425812D01*
X152950000Y-89438072D01*
X153363271Y-89438072D01*
X154976201Y-91051003D01*
X154999999Y-91080001D01*
X155115724Y-91174974D01*
X155247753Y-91245546D01*
X155391014Y-91289003D01*
X155502667Y-91300000D01*
X155502676Y-91300000D01*
X155539999Y-91303676D01*
X155577322Y-91300000D01*
X157471822Y-91300000D01*
X157596525Y-91486632D01*
X157803368Y-91693475D01*
X157977760Y-91810000D01*
X157803368Y-91926525D01*
X157596525Y-92133368D01*
X157434010Y-92376589D01*
X157322068Y-92646842D01*
X157265000Y-92933740D01*
X157265000Y-93226260D01*
X157291603Y-93360000D01*
X155287322Y-93360000D01*
X155249999Y-93356324D01*
X155212676Y-93360000D01*
X155212667Y-93360000D01*
X155101014Y-93370997D01*
X154957753Y-93414454D01*
X154825724Y-93485026D01*
X154709999Y-93579999D01*
X154686201Y-93608997D01*
X154073886Y-94221312D01*
X153891335Y-94185000D01*
X153608665Y-94185000D01*
X153331426Y-94240147D01*
X153070273Y-94348320D01*
X152835241Y-94505363D01*
X152635363Y-94705241D01*
X152531957Y-94860000D01*
X152428043Y-94860000D01*
X152324637Y-94705241D01*
X152124759Y-94505363D01*
X151889727Y-94348320D01*
X151628574Y-94240147D01*
X151351335Y-94185000D01*
X151068665Y-94185000D01*
X150791426Y-94240147D01*
X150530273Y-94348320D01*
X150295241Y-94505363D01*
X150095363Y-94705241D01*
X149940000Y-94937759D01*
X149784637Y-94705241D01*
X149584759Y-94505363D01*
X149349727Y-94348320D01*
X149088574Y-94240147D01*
X148811335Y-94185000D01*
X148528665Y-94185000D01*
X148251426Y-94240147D01*
X147990273Y-94348320D01*
X147755241Y-94505363D01*
X147555363Y-94705241D01*
X147398320Y-94940273D01*
X147393933Y-94950865D01*
X147282385Y-94764869D01*
X147093414Y-94556481D01*
X146867420Y-94388963D01*
X146613087Y-94268754D01*
X146479039Y-94228096D01*
X146257000Y-94350085D01*
X146257000Y-95493000D01*
X146277000Y-95493000D01*
X146277000Y-95747000D01*
X146257000Y-95747000D01*
X146257000Y-95767000D01*
X146003000Y-95767000D01*
X146003000Y-95747000D01*
X145983000Y-95747000D01*
X145983000Y-95493000D01*
X146003000Y-95493000D01*
X146003000Y-94350085D01*
X145780961Y-94228096D01*
X145646913Y-94268754D01*
X145392580Y-94388963D01*
X145166586Y-94556481D01*
X144977615Y-94764869D01*
X144866067Y-94950865D01*
X144861680Y-94940273D01*
X144704637Y-94705241D01*
X144504759Y-94505363D01*
X144269727Y-94348320D01*
X144008574Y-94240147D01*
X143731335Y-94185000D01*
X143448665Y-94185000D01*
X143171426Y-94240147D01*
X142910273Y-94348320D01*
X142675241Y-94505363D01*
X142475363Y-94705241D01*
X142320000Y-94937759D01*
X142164637Y-94705241D01*
X141964759Y-94505363D01*
X141729727Y-94348320D01*
X141468574Y-94240147D01*
X141195708Y-94185870D01*
X145953561Y-89428017D01*
X145988665Y-89435000D01*
X146271335Y-89435000D01*
X146548574Y-89379853D01*
X146809727Y-89271680D01*
X147044759Y-89114637D01*
X147244637Y-88914759D01*
X147400000Y-88682241D01*
X147555363Y-88914759D01*
X147755241Y-89114637D01*
X147990273Y-89271680D01*
X148251426Y-89379853D01*
X148528665Y-89435000D01*
X148811335Y-89435000D01*
X149088574Y-89379853D01*
X149349727Y-89271680D01*
X149584759Y-89114637D01*
X149784637Y-88914759D01*
X149940000Y-88682241D01*
X150095363Y-88914759D01*
G37*
G04 #@! TD.AperFunction*
M02*
