G04 #@! TF.GenerationSoftware,KiCad,Pcbnew,5.1.10-1.fc33*
G04 #@! TF.CreationDate,2021-10-07T21:11:49-05:00*
G04 #@! TF.ProjectId,dac_pmod,6461635f-706d-46f6-942e-6b696361645f,A*
G04 #@! TF.SameCoordinates,Original*
G04 #@! TF.FileFunction,Soldermask,Top*
G04 #@! TF.FilePolarity,Negative*
%FSLAX46Y46*%
G04 Gerber Fmt 4.6, Leading zero omitted, Abs format (unit mm)*
G04 Created by KiCad (PCBNEW 5.1.10-1.fc33) date 2021-10-07 21:11:49*
%MOMM*%
%LPD*%
G01*
G04 APERTURE LIST*
%ADD10C,0.150000*%
%ADD11O,1.600000X1.600000*%
%ADD12R,1.600000X1.600000*%
%ADD13O,1.700000X1.700000*%
%ADD14R,1.700000X1.700000*%
G04 APERTURE END LIST*
D10*
X158523809Y-100059523D02*
X158285714Y-99773809D01*
X158095238Y-100059523D02*
X158095238Y-99392857D01*
X158380952Y-99392857D01*
X158476190Y-99440476D01*
X158523809Y-99535714D01*
X158523809Y-99630952D01*
X158476190Y-99726190D01*
X158380952Y-99773809D01*
X158095238Y-99773809D01*
X158285714Y-99059523D02*
X158047619Y-99107142D01*
X157809523Y-99250000D01*
X157666666Y-99488095D01*
X157619047Y-99726190D01*
X157666666Y-99964285D01*
X157809523Y-100202380D01*
X158047619Y-100345238D01*
X158285714Y-100392857D01*
X158523809Y-100345238D01*
X158761904Y-100202380D01*
X158904761Y-99964285D01*
X158952380Y-99726190D01*
X158904761Y-99488095D01*
X158761904Y-99250000D01*
X158523809Y-99107142D01*
X158285714Y-99059523D01*
X160190476Y-99440476D02*
X160095238Y-99392857D01*
X159904761Y-99392857D01*
X159809523Y-99440476D01*
X159714285Y-99535714D01*
X159666666Y-99630952D01*
X159666666Y-99821428D01*
X159714285Y-99916666D01*
X159809523Y-100011904D01*
X159904761Y-100059523D01*
X160095238Y-100059523D01*
X160190476Y-100011904D01*
X160000000Y-99059523D02*
X159761904Y-99107142D01*
X159523809Y-99250000D01*
X159380952Y-99488095D01*
X159333333Y-99726190D01*
X159380952Y-99964285D01*
X159523809Y-100202380D01*
X159761904Y-100345238D01*
X160000000Y-100392857D01*
X160238095Y-100345238D01*
X160476190Y-100202380D01*
X160619047Y-99964285D01*
X160666666Y-99726190D01*
X160619047Y-99488095D01*
X160476190Y-99250000D01*
X160238095Y-99107142D01*
X160000000Y-99059523D01*
X161952380Y-100059523D02*
X161714285Y-99773809D01*
X161523809Y-100059523D02*
X161523809Y-99392857D01*
X161809523Y-99392857D01*
X161904761Y-99440476D01*
X161952380Y-99535714D01*
X161952380Y-99630952D01*
X161904761Y-99726190D01*
X161809523Y-99773809D01*
X161523809Y-99773809D01*
X161714285Y-99059523D02*
X161476190Y-99107142D01*
X161238095Y-99250000D01*
X161095238Y-99488095D01*
X161047619Y-99726190D01*
X161095238Y-99964285D01*
X161238095Y-100202380D01*
X161476190Y-100345238D01*
X161714285Y-100392857D01*
X161952380Y-100345238D01*
X162190476Y-100202380D01*
X162333333Y-99964285D01*
X162380952Y-99726190D01*
X162333333Y-99488095D01*
X162190476Y-99250000D01*
X161952380Y-99107142D01*
X161714285Y-99059523D01*
D11*
X153750000Y-95620000D03*
X138510000Y-88000000D03*
X151210000Y-95620000D03*
X141050000Y-88000000D03*
X148670000Y-95620000D03*
X143590000Y-88000000D03*
X146130000Y-95620000D03*
X146130000Y-88000000D03*
X143590000Y-95620000D03*
X148670000Y-88000000D03*
X141050000Y-95620000D03*
X151210000Y-88000000D03*
X138510000Y-95620000D03*
D12*
X153750000Y-88000000D03*
G36*
G01*
X134075000Y-93512500D02*
X134075000Y-93987500D01*
G75*
G02*
X133837500Y-94225000I-237500J0D01*
G01*
X133337500Y-94225000D01*
G75*
G02*
X133100000Y-93987500I0J237500D01*
G01*
X133100000Y-93512500D01*
G75*
G02*
X133337500Y-93275000I237500J0D01*
G01*
X133837500Y-93275000D01*
G75*
G02*
X134075000Y-93512500I0J-237500D01*
G01*
G37*
G36*
G01*
X135900000Y-93512500D02*
X135900000Y-93987500D01*
G75*
G02*
X135662500Y-94225000I-237500J0D01*
G01*
X135162500Y-94225000D01*
G75*
G02*
X134925000Y-93987500I0J237500D01*
G01*
X134925000Y-93512500D01*
G75*
G02*
X135162500Y-93275000I237500J0D01*
G01*
X135662500Y-93275000D01*
G75*
G02*
X135900000Y-93512500I0J-237500D01*
G01*
G37*
G36*
G01*
X134075000Y-90512500D02*
X134075000Y-90987500D01*
G75*
G02*
X133837500Y-91225000I-237500J0D01*
G01*
X133337500Y-91225000D01*
G75*
G02*
X133100000Y-90987500I0J237500D01*
G01*
X133100000Y-90512500D01*
G75*
G02*
X133337500Y-90275000I237500J0D01*
G01*
X133837500Y-90275000D01*
G75*
G02*
X134075000Y-90512500I0J-237500D01*
G01*
G37*
G36*
G01*
X135900000Y-90512500D02*
X135900000Y-90987500D01*
G75*
G02*
X135662500Y-91225000I-237500J0D01*
G01*
X135162500Y-91225000D01*
G75*
G02*
X134925000Y-90987500I0J237500D01*
G01*
X134925000Y-90512500D01*
G75*
G02*
X135162500Y-90275000I237500J0D01*
G01*
X135662500Y-90275000D01*
G75*
G02*
X135900000Y-90512500I0J-237500D01*
G01*
G37*
G36*
G01*
X134075000Y-87512500D02*
X134075000Y-87987500D01*
G75*
G02*
X133837500Y-88225000I-237500J0D01*
G01*
X133337500Y-88225000D01*
G75*
G02*
X133100000Y-87987500I0J237500D01*
G01*
X133100000Y-87512500D01*
G75*
G02*
X133337500Y-87275000I237500J0D01*
G01*
X133837500Y-87275000D01*
G75*
G02*
X134075000Y-87512500I0J-237500D01*
G01*
G37*
G36*
G01*
X135900000Y-87512500D02*
X135900000Y-87987500D01*
G75*
G02*
X135662500Y-88225000I-237500J0D01*
G01*
X135162500Y-88225000D01*
G75*
G02*
X134925000Y-87987500I0J237500D01*
G01*
X134925000Y-87512500D01*
G75*
G02*
X135162500Y-87275000I237500J0D01*
G01*
X135662500Y-87275000D01*
G75*
G02*
X135900000Y-87512500I0J-237500D01*
G01*
G37*
G36*
G01*
X134075000Y-84512500D02*
X134075000Y-84987500D01*
G75*
G02*
X133837500Y-85225000I-237500J0D01*
G01*
X133337500Y-85225000D01*
G75*
G02*
X133100000Y-84987500I0J237500D01*
G01*
X133100000Y-84512500D01*
G75*
G02*
X133337500Y-84275000I237500J0D01*
G01*
X133837500Y-84275000D01*
G75*
G02*
X134075000Y-84512500I0J-237500D01*
G01*
G37*
G36*
G01*
X135900000Y-84512500D02*
X135900000Y-84987500D01*
G75*
G02*
X135662500Y-85225000I-237500J0D01*
G01*
X135162500Y-85225000D01*
G75*
G02*
X134925000Y-84987500I0J237500D01*
G01*
X134925000Y-84512500D01*
G75*
G02*
X135162500Y-84275000I237500J0D01*
G01*
X135662500Y-84275000D01*
G75*
G02*
X135900000Y-84512500I0J-237500D01*
G01*
G37*
D13*
X161290000Y-95620000D03*
X158750000Y-95620000D03*
X161290000Y-93080000D03*
X158750000Y-93080000D03*
X161290000Y-90540000D03*
X158750000Y-90540000D03*
X161290000Y-88000000D03*
D14*
X158750000Y-88000000D03*
G36*
G01*
X140675000Y-98012500D02*
X140675000Y-98487500D01*
G75*
G02*
X140437500Y-98725000I-237500J0D01*
G01*
X139837500Y-98725000D01*
G75*
G02*
X139600000Y-98487500I0J237500D01*
G01*
X139600000Y-98012500D01*
G75*
G02*
X139837500Y-97775000I237500J0D01*
G01*
X140437500Y-97775000D01*
G75*
G02*
X140675000Y-98012500I0J-237500D01*
G01*
G37*
G36*
G01*
X142400000Y-98012500D02*
X142400000Y-98487500D01*
G75*
G02*
X142162500Y-98725000I-237500J0D01*
G01*
X141562500Y-98725000D01*
G75*
G02*
X141325000Y-98487500I0J237500D01*
G01*
X141325000Y-98012500D01*
G75*
G02*
X141562500Y-97775000I237500J0D01*
G01*
X142162500Y-97775000D01*
G75*
G02*
X142400000Y-98012500I0J-237500D01*
G01*
G37*
G36*
G01*
X151575000Y-98737500D02*
X151575000Y-98262500D01*
G75*
G02*
X151812500Y-98025000I237500J0D01*
G01*
X152412500Y-98025000D01*
G75*
G02*
X152650000Y-98262500I0J-237500D01*
G01*
X152650000Y-98737500D01*
G75*
G02*
X152412500Y-98975000I-237500J0D01*
G01*
X151812500Y-98975000D01*
G75*
G02*
X151575000Y-98737500I0J237500D01*
G01*
G37*
G36*
G01*
X149850000Y-98737500D02*
X149850000Y-98262500D01*
G75*
G02*
X150087500Y-98025000I237500J0D01*
G01*
X150687500Y-98025000D01*
G75*
G02*
X150925000Y-98262500I0J-237500D01*
G01*
X150925000Y-98737500D01*
G75*
G02*
X150687500Y-98975000I-237500J0D01*
G01*
X150087500Y-98975000D01*
G75*
G02*
X149850000Y-98737500I0J237500D01*
G01*
G37*
G36*
G01*
X151325000Y-85487500D02*
X151325000Y-85012500D01*
G75*
G02*
X151562500Y-84775000I237500J0D01*
G01*
X152162500Y-84775000D01*
G75*
G02*
X152400000Y-85012500I0J-237500D01*
G01*
X152400000Y-85487500D01*
G75*
G02*
X152162500Y-85725000I-237500J0D01*
G01*
X151562500Y-85725000D01*
G75*
G02*
X151325000Y-85487500I0J237500D01*
G01*
G37*
G36*
G01*
X149600000Y-85487500D02*
X149600000Y-85012500D01*
G75*
G02*
X149837500Y-84775000I237500J0D01*
G01*
X150437500Y-84775000D01*
G75*
G02*
X150675000Y-85012500I0J-237500D01*
G01*
X150675000Y-85487500D01*
G75*
G02*
X150437500Y-85725000I-237500J0D01*
G01*
X149837500Y-85725000D01*
G75*
G02*
X149600000Y-85487500I0J237500D01*
G01*
G37*
G36*
G01*
X140675000Y-85012500D02*
X140675000Y-85487500D01*
G75*
G02*
X140437500Y-85725000I-237500J0D01*
G01*
X139837500Y-85725000D01*
G75*
G02*
X139600000Y-85487500I0J237500D01*
G01*
X139600000Y-85012500D01*
G75*
G02*
X139837500Y-84775000I237500J0D01*
G01*
X140437500Y-84775000D01*
G75*
G02*
X140675000Y-85012500I0J-237500D01*
G01*
G37*
G36*
G01*
X142400000Y-85012500D02*
X142400000Y-85487500D01*
G75*
G02*
X142162500Y-85725000I-237500J0D01*
G01*
X141562500Y-85725000D01*
G75*
G02*
X141325000Y-85487500I0J237500D01*
G01*
X141325000Y-85012500D01*
G75*
G02*
X141562500Y-84775000I237500J0D01*
G01*
X142162500Y-84775000D01*
G75*
G02*
X142400000Y-85012500I0J-237500D01*
G01*
G37*
G36*
G01*
X146325000Y-85487500D02*
X146325000Y-85012500D01*
G75*
G02*
X146562500Y-84775000I237500J0D01*
G01*
X147162500Y-84775000D01*
G75*
G02*
X147400000Y-85012500I0J-237500D01*
G01*
X147400000Y-85487500D01*
G75*
G02*
X147162500Y-85725000I-237500J0D01*
G01*
X146562500Y-85725000D01*
G75*
G02*
X146325000Y-85487500I0J237500D01*
G01*
G37*
G36*
G01*
X144600000Y-85487500D02*
X144600000Y-85012500D01*
G75*
G02*
X144837500Y-84775000I237500J0D01*
G01*
X145437500Y-84775000D01*
G75*
G02*
X145675000Y-85012500I0J-237500D01*
G01*
X145675000Y-85487500D01*
G75*
G02*
X145437500Y-85725000I-237500J0D01*
G01*
X144837500Y-85725000D01*
G75*
G02*
X144600000Y-85487500I0J237500D01*
G01*
G37*
D13*
X128255000Y-98005000D03*
X130795000Y-98005000D03*
X128255000Y-95465000D03*
X130795000Y-95465000D03*
X128255000Y-92925000D03*
X130795000Y-92925000D03*
X128255000Y-90385000D03*
X130795000Y-90385000D03*
X128255000Y-87845000D03*
X130795000Y-87845000D03*
X128255000Y-85305000D03*
D14*
X130795000Y-85305000D03*
M02*
